<?xml version="1.0" encoding="UTF-8"?>
<svg version="1.1" xmlns="http://www.w3.org/2000/svg" width="225" height="225">
<path d="M0 0 C74.25 0 148.5 0 225 0 C225 74.25 225 148.5 225 225 C150.75 225 76.5 225 0 225 C0 150.75 0 76.5 0 0 Z " fill="#FEFEFE" transform="translate(0,0)"/>
<path d="M0 0 C4.36581165 3.64336636 8.60293638 7.38221093 12.73828125 11.28515625 C13.48722656 11.96964844 14.23617187 12.65414062 15.0078125 13.359375 C27.99575535 25.66493907 41.21347008 44.78006922 42.07421875 63.2109375 C42.38749482 81.99884777 42.38749482 81.99884777 37.73828125 89.28515625 C37.37605469 89.86007813 37.01382813 90.435 36.640625 91.02734375 C31.77870559 97.65273901 23.64506967 101.65462378 15.73828125 103.28515625 C12.38565565 103.50084965 9.09121202 103.47415235 5.73828125 103.28515625 C8.07666483 101.72623386 9.95813075 100.74306066 12.48828125 99.66015625 C19.67961472 96.06448951 24.43335966 89.7472699 27.07421875 82.2265625 C31.14213375 64.20809195 24.32008151 47.10051356 14.9140625 31.99853516 C13.69070238 30.21582309 12.36517113 28.59281465 10.95703125 26.953125 C8.73828125 24.28515625 8.73828125 24.28515625 8.73828125 22.28515625 C8.07828125 22.28515625 7.41828125 22.28515625 6.73828125 22.28515625 C6.73828125 23.60515625 6.73828125 24.92515625 6.73828125 26.28515625 C-1.67671875 26.78015625 -1.67671875 26.78015625 -10.26171875 27.28515625 C-10.46853271 28.69321533 -10.67534668 30.10127441 -10.88842773 31.55200195 C-11.6553834 36.76871645 -12.42590343 41.98489926 -13.19750977 47.20092773 C-13.53116784 49.45989841 -13.86385497 51.71901271 -14.19555664 53.97827148 C-14.67209666 57.22287502 -15.15210915 60.46694851 -15.6328125 63.7109375 C-15.78076767 64.72352127 -15.92872284 65.73610504 -16.0811615 66.77937317 C-16.22123123 67.72012192 -16.36130096 68.66087067 -16.50561523 69.63012695 C-16.62774887 70.45841507 -16.74988251 71.28670319 -16.87571716 72.14009094 C-17.26171875 74.28515625 -17.26171875 74.28515625 -18.26171875 77.28515625 C-22.22171875 77.28515625 -26.18171875 77.28515625 -30.26171875 77.28515625 C-29.44843612 71.46785192 -28.63040092 65.65124228 -27.80810547 59.83520508 C-27.52947919 57.85979961 -27.25211398 55.88421583 -26.97607422 53.90844727 C-26.57727493 51.05566463 -26.1738262 48.20357086 -25.76953125 45.3515625 C-25.58815109 44.04319176 -25.58815109 44.04319176 -25.40310669 42.70838928 C-24.61070404 37.15907639 -23.53903372 31.74387024 -22.26171875 26.28515625 C-24.57171875 26.28515625 -26.88171875 26.28515625 -29.26171875 26.28515625 C-28.93171875 26.94515625 -28.60171875 27.60515625 -28.26171875 28.28515625 C-27.83241219 33.75881491 -28.59108178 37.47800971 -31.26171875 42.28515625 C-33.15535695 44.28988789 -34.97854018 45.68207342 -37.26171875 47.28515625 C-37.92171875 47.28515625 -38.58171875 47.28515625 -39.26171875 47.28515625 C-39.26171875 47.94515625 -39.26171875 48.60515625 -39.26171875 49.28515625 C-38.08609375 49.65640625 -38.08609375 49.65640625 -36.88671875 50.03515625 C-33.81831271 51.49630198 -33.45008496 52.19540411 -32.26171875 55.28515625 C-32.05053711 57.43579102 -32.05053711 57.43579102 -32.1015625 59.7265625 C-32.11799805 60.97276367 -32.11799805 60.97276367 -32.13476562 62.24414062 C-32.15603516 63.10330078 -32.17730469 63.96246094 -32.19921875 64.84765625 C-32.23369064 66.55720643 -32.26382201 68.26685111 -32.2890625 69.9765625 C-32.30702881 70.73138916 -32.32499512 71.48621582 -32.34350586 72.26391602 C-32.34702577 74.49192392 -32.34702577 74.49192392 -31.26171875 77.28515625 C-33.40748512 77.31201563 -35.5533452 77.33148713 -37.69921875 77.34765625 C-38.89417969 77.35925781 -40.08914062 77.37085938 -41.3203125 77.3828125 C-44.26171875 77.28515625 -44.26171875 77.28515625 -45.26171875 76.28515625 C-45.34857478 74.7234288 -45.36874094 73.15786281 -45.359375 71.59375 C-45.35615234 70.64951172 -45.35292969 69.70527344 -45.34960938 68.73242188 C-45.33704102 67.24258789 -45.33704102 67.24258789 -45.32421875 65.72265625 C-45.31970703 64.72556641 -45.31519531 63.72847656 -45.31054688 62.70117188 C-45.29871882 60.22910776 -45.28223724 57.75716107 -45.26171875 55.28515625 C-48.85526813 54.32528232 -52.29648886 53.98272234 -56.01171875 53.72265625 C-57.76742187 53.59697266 -57.76742187 53.59697266 -59.55859375 53.46875 C-60.450625 53.40816406 -61.34265625 53.34757812 -62.26171875 53.28515625 C-62.35259766 54.37183594 -62.35259766 54.37183594 -62.4453125 55.48046875 C-62.87655308 60.45632158 -63.33219516 65.37196016 -64.26171875 70.28515625 C-63.39933594 70.66027344 -63.39933594 70.66027344 -62.51953125 71.04296875 C-59.95029347 72.45649403 -58.23277061 74.10918077 -56.13671875 76.16015625 C-39.24074002 91.59016036 -16.3044929 105.48296581 6.98828125 105.72265625 C8.23013184 105.738125 8.23013184 105.738125 9.49707031 105.75390625 C18.11077303 105.6300176 24.76654829 103.216382 31.73828125 98.28515625 C32.39828125 98.28515625 33.05828125 98.28515625 33.73828125 98.28515625 C34.10953125 97.51171875 34.10953125 97.51171875 34.48828125 96.72265625 C35.73828125 94.28515625 35.73828125 94.28515625 37.61328125 91.34765625 C42.51503839 82.77417092 44.34705874 73.04615791 44.73828125 63.28515625 C47.53196857 66.07884357 47.05112535 68.09150325 47.11865234 71.91308594 C47.08990269 86.2826862 45.24983801 97.7042589 34.8203125 108.21875 C25.31514361 117.06205026 15.26030637 117.74898814 2.8046875 117.56640625 C-20.85087423 116.67154861 -45.33610911 103.02226266 -63.26171875 88.28515625 C-63.26171875 87.62515625 -63.26171875 86.96515625 -63.26171875 86.28515625 C-63.84824219 86.01832031 -64.43476562 85.75148438 -65.0390625 85.4765625 C-67.95519206 83.91343506 -70.14428032 81.8420211 -72.578125 79.625 C-74.33390319 78.07036709 -74.33390319 78.07036709 -77.26171875 77.28515625 C-77.55046875 76.54265625 -77.83921875 75.80015625 -78.13671875 75.03515625 C-79.55591656 71.56600605 -81.57784096 69.90939231 -84.26171875 67.28515625 C-98.49863223 50.49986923 -110.01343122 29.89817179 -108.26171875 7.28515625 C-106.82887515 0.1773494 -103.87075055 -6.05555716 -97.9609375 -10.41015625 C-85.22881876 -18.40878623 -71.37169374 -18.1907227 -57.07421875 -15.08984375 C-49.04012801 -13.23012473 -41.68110066 -10.29332377 -34.26171875 -6.71484375 C-38.28996197 -5.11361707 -41.24052852 -6.42868238 -45.26171875 -7.65234375 C-51.86341217 -9.49110429 -58.10251144 -10.10554145 -64.94921875 -10.08984375 C-65.79806641 -10.09105225 -66.64691406 -10.09226074 -67.52148438 -10.09350586 C-74.40252553 -9.97299123 -79.20874011 -8.64149792 -84.26171875 -3.71484375 C-90.1044931 5.19702836 -91.51071583 12.92595765 -89.71875 23.484375 C-87.3212109 33.17583586 -82.46056875 46.08630625 -75.26171875 53.28515625 C-72.40080363 41.39511184 -70.79761404 29.40440718 -69.26171875 17.28515625 C-68.53734619 17.29039307 -67.81297363 17.29562988 -67.06665039 17.30102539 C-43.78354301 17.44382218 -20.53462836 16.93813842 2.73828125 16.28515625 C-19.10938925 -4.06355853 -42.95361701 -19.43649059 -73.875 -19.01171875 C-80.02932422 -18.74794277 -85.52470925 -16.83116281 -91.26171875 -14.71484375 C-92.58957194 -14.36030915 -93.9210592 -14.01736788 -95.26171875 -13.71484375 C-92.537861 -17.29776433 -88.63991832 -18.11946359 -84.51171875 -19.33984375 C-83.82078125 -19.55640625 -83.12984375 -19.77296875 -82.41796875 -19.99609375 C-54.59795026 -28.46760314 -22.18500142 -17.50183468 0 0 Z " fill="#1296BD" transform="translate(146.26171875,64.71484375)"/>
<path d="M0 0 C4.36581165 3.64336636 8.60293638 7.38221093 12.73828125 11.28515625 C13.48722656 11.96964844 14.23617187 12.65414062 15.0078125 13.359375 C27.99575535 25.66493907 41.21347008 44.78006922 42.07421875 63.2109375 C42.38749482 81.99884777 42.38749482 81.99884777 37.73828125 89.28515625 C37.37605469 89.86007813 37.01382813 90.435 36.640625 91.02734375 C31.77870559 97.65273901 23.64506967 101.65462378 15.73828125 103.28515625 C12.38565565 103.50084965 9.09121202 103.47415235 5.73828125 103.28515625 C8.07666483 101.72623386 9.95813075 100.74306066 12.48828125 99.66015625 C19.67961472 96.06448951 24.43335966 89.7472699 27.07421875 82.2265625 C31.14213375 64.20809195 24.32008151 47.10051356 14.9140625 31.99853516 C13.69070238 30.21582309 12.36517113 28.59281465 10.95703125 26.953125 C8.73828125 24.28515625 8.73828125 24.28515625 8.73828125 22.28515625 C8.07828125 22.28515625 7.41828125 22.28515625 6.73828125 22.28515625 C6.73828125 23.60515625 6.73828125 24.92515625 6.73828125 26.28515625 C-1.67671875 26.78015625 -1.67671875 26.78015625 -10.26171875 27.28515625 C-10.46853271 28.69321533 -10.67534668 30.10127441 -10.88842773 31.55200195 C-11.6553834 36.76871645 -12.42590343 41.98489926 -13.19750977 47.20092773 C-13.53116784 49.45989841 -13.86385497 51.71901271 -14.19555664 53.97827148 C-14.67209666 57.22287502 -15.15210915 60.46694851 -15.6328125 63.7109375 C-15.78076767 64.72352127 -15.92872284 65.73610504 -16.0811615 66.77937317 C-16.22123123 67.72012192 -16.36130096 68.66087067 -16.50561523 69.63012695 C-16.62774887 70.45841507 -16.74988251 71.28670319 -16.87571716 72.14009094 C-17.26171875 74.28515625 -17.26171875 74.28515625 -18.26171875 77.28515625 C-22.22171875 77.28515625 -26.18171875 77.28515625 -30.26171875 77.28515625 C-29.44843612 71.46785192 -28.63040092 65.65124228 -27.80810547 59.83520508 C-27.52947919 57.85979961 -27.25211398 55.88421583 -26.97607422 53.90844727 C-26.57727493 51.05566463 -26.1738262 48.20357086 -25.76953125 45.3515625 C-25.58815109 44.04319176 -25.58815109 44.04319176 -25.40310669 42.70838928 C-24.61070404 37.15907639 -23.53903372 31.74387024 -22.26171875 26.28515625 C-27.87171875 26.28515625 -33.48171875 26.28515625 -39.26171875 26.28515625 C-38.93171875 23.31515625 -38.60171875 20.34515625 -38.26171875 17.28515625 C-24.73171875 16.95515625 -11.20171875 16.62515625 2.73828125 16.28515625 C-20.01681315 -4.57368028 -44.09655036 -20.28803105 -76.10791016 -18.91601562 C-81.41127566 -18.42066614 -86.30191174 -16.54446145 -91.26171875 -14.71484375 C-92.58957194 -14.36030915 -93.9210592 -14.01736788 -95.26171875 -13.71484375 C-92.537861 -17.29776433 -88.63991832 -18.11946359 -84.51171875 -19.33984375 C-83.82078125 -19.55640625 -83.12984375 -19.77296875 -82.41796875 -19.99609375 C-54.59795026 -28.46760314 -22.18500142 -17.50183468 0 0 Z " fill="#0F678E" transform="translate(146.26171875,64.71484375)"/>
<path d="M0 0 C-4.02824322 1.60122668 -6.97880977 0.28616137 -11 -0.9375 C-17.60169342 -2.77626054 -23.84079269 -3.3906977 -30.6875 -3.375 C-31.53634766 -3.3762085 -32.38519531 -3.37741699 -33.25976562 -3.37866211 C-40.14080678 -3.25814748 -44.94702136 -1.92665417 -50 3 C-55.84277435 11.91187211 -57.24899708 19.6408014 -55.45703125 30.19921875 C-52.87796639 40.62445275 -47.70466025 53.29533975 -40 61 C-39.93837517 63.88756331 -40.00122819 66.62811315 -40.1875 69.5 C-40.21908203 70.28503906 -40.25066406 71.07007813 -40.28320312 71.87890625 C-40.41796875 74.15625 -40.41796875 74.15625 -41 78 C-41.99 78.66 -42.98 79.32 -44 80 C-60.47807495 64.55180473 -73.49053086 42.50400785 -74.25 19.625 C-74.15030676 11.53877028 -71.85269198 3.81098633 -66 -2 C-46.19812112 -16.59085812 -20.43880931 -9.85794661 0 0 Z " fill="#0AB7E7" transform="translate(112,58)"/>
<path d="M0 0 C15.18 0 30.36 0 46 0 C45.67 2.97 45.34 5.94 45 9 C36.585 9.495 36.585 9.495 28 10 C27.79318604 11.40805908 27.58637207 12.81611816 27.37329102 14.2668457 C26.60633535 19.4835602 25.83581532 24.69974301 25.06420898 29.91577148 C24.73055091 32.17474216 24.39786378 34.43385646 24.06616211 36.69311523 C23.58962209 39.93771877 23.1096096 43.18179226 22.62890625 46.42578125 C22.48095108 47.43836502 22.33299591 48.45094879 22.18055725 49.49421692 C22.04048752 50.43496567 21.90041779 51.37571442 21.75610352 52.3449707 C21.63396988 53.17325882 21.51183624 54.00154694 21.38600159 54.85493469 C21 57 21 57 20 60 C16.04 60 12.08 60 8 60 C8.81328263 54.18269567 9.63131783 48.36608603 10.45361328 42.55004883 C10.73223956 40.57464336 11.00960477 38.59905958 11.28564453 36.62329102 C11.68444382 33.77050838 12.08789255 30.91841461 12.4921875 28.06640625 C12.6131076 27.19415909 12.73402771 26.32191193 12.85861206 25.42323303 C13.65101471 19.87392014 14.72268503 14.45871399 16 9 C10.39 9 4.78 9 -1 9 C-0.67 6.03 -0.34 3.06 0 0 Z " fill="#044F79" transform="translate(108,82)"/>
<path d="M0 0 C4.24998566 -0.02902996 8.49994581 -0.04680887 12.75 -0.0625 C13.9565625 -0.07087891 15.163125 -0.07925781 16.40625 -0.08789062 C18.14648438 -0.09272461 18.14648438 -0.09272461 19.921875 -0.09765625 C20.99018555 -0.10289307 22.05849609 -0.10812988 23.15917969 -0.11352539 C25.62389235 -0.01503008 27.65245467 0.28434536 30 1 C29.67 3.64 29.34 6.28 29 9 C32.3 9 35.6 9 39 9 C41.08576173 13.17152346 40.20978337 17.32403136 38.875 21.625 C36.6502367 25.62957393 34.72175214 27.38685488 31 30 C30.34 30 29.68 30 29 30 C29 30.99 29 31.98 29 33 C28.34 32.67 27.68 32.34 27 32 C27 31.67 27 31.34 27 31 C24.69 31 22.38 31 20 31 C20.33 29.68 20.66 28.36 21 27 C16.71 27 12.42 27 8 27 C8 24.36 8 21.72 8 19 C7.67 20.65 7.34 22.3 7 24 C6.34 24 5.68 24 5 24 C4.87625 25.134375 4.7525 26.26875 4.625 27.4375 C4.41875 28.613125 4.2125 29.78875 4 31 C3.34 31.33 2.68 31.66 2 32 C2.09765625 28.97265625 2.09765625 28.97265625 2.1953125 25.9453125 C2.18331689 23.76136355 2.18331689 23.76136355 0 22 C-0.33 25.3 -0.66 28.6 -1 32 C-3.47088784 28.29366824 -3.09180048 26.79712561 -2.6875 22.4375 C-2.58824219 21.28121094 -2.48898438 20.12492187 -2.38671875 18.93359375 C-2 16 -2 16 -1 14 C-0.76970044 11.62876754 -0.58880058 9.25258057 -0.4375 6.875 C-0.35371094 5.59367187 -0.26992187 4.31234375 -0.18359375 2.9921875 C-0.09271484 1.51105469 -0.09271484 1.51105469 0 0 Z " fill="#0AB5E4" transform="translate(78,82)"/>
<path d="M0 0 C2.31 0 4.62 0 7 0 C5.44552284 12.46088946 3.76624939 24.8979226 1.875 37.3125 C1.70452148 38.44478027 1.53404297 39.57706055 1.35839844 40.74365234 C1.19629883 41.79375488 1.03419922 42.84385742 0.8671875 43.92578125 C0.72394043 44.85817627 0.58069336 45.79057129 0.43310547 46.7512207 C0 49 0 49 -1 51 C2.96 51 6.92 51 11 51 C11.33 50.01 11.66 49.02 12 48 C12 49.32 12 50.64 12 52 C3.65080904 52.62340626 -4.62239447 53.17740812 -13 53 C-13 53.99 -13 54.98 -13 56 C-15 57.6875 -15 57.6875 -17 59 C-17.88042969 58.25234375 -18.76085937 57.5046875 -19.66796875 56.734375 C-20.841115 55.73954698 -22.01429382 54.74475735 -23.1875 53.75 C-23.76564453 53.25886719 -24.34378906 52.76773438 -24.93945312 52.26171875 C-25.50986328 51.77832031 -26.08027344 51.29492188 -26.66796875 50.796875 C-27.2290332 50.31621582 -27.79009766 49.83555664 -28.36816406 49.34033203 C-29.82887143 48.14055892 -31.37756592 47.04982803 -32.93359375 45.9765625 C-35 44 -35 44 -35.3046875 41.4140625 C-35.16289063 40.49367187 -35.02109375 39.57328125 -34.875 38.625 C-34.68550781 37.25214844 -34.68550781 37.25214844 -34.4921875 35.8515625 C-34.24855469 34.44003906 -34.24855469 34.44003906 -34 33 C-33.81695312 31.89398438 -33.63390625 30.78796875 -33.4453125 29.6484375 C-33.22488281 28.33746094 -33.22488281 28.33746094 -33 27 C-30.91695462 26.94581674 -28.83350232 26.90712449 -26.75 26.875 C-25.58984375 26.85179688 -24.4296875 26.82859375 -23.234375 26.8046875 C-20.15318867 26.99074948 -18.5214091 27.28304047 -16 29 C-14.82573736 31.34852528 -14.88491827 32.73774065 -14.90234375 35.3515625 C-14.90556641 36.20234375 -14.90878906 37.053125 -14.91210938 37.9296875 C-14.92048828 38.81914062 -14.92886719 39.70859375 -14.9375 40.625 C-14.94201172 41.5221875 -14.94652344 42.419375 -14.95117188 43.34375 C-14.96297389 45.56252831 -14.98090961 47.78127243 -15 50 C-11.04 50 -7.08 50 -3 50 C-3.33 49.34 -3.66 48.68 -4 48 C-4.06012282 46.59761277 -4.06051443 45.19234594 -4.02734375 43.7890625 C-4.00897461 42.53996094 -4.00897461 42.53996094 -3.99023438 41.265625 C-3.95523243 39.51293504 -3.91620566 37.76032058 -3.87304688 36.0078125 C-3.86208984 35.1725 -3.85113281 34.3371875 -3.83984375 33.4765625 C-3.82300537 32.71424316 -3.80616699 31.95192383 -3.78881836 31.16650391 C-4.03175608 28.67421571 -4.67807751 27.1172605 -6 25 C-8.0335948 23.73195434 -8.0335948 23.73195434 -10 23 C-10 22.34 -10 21.68 -10 21 C-8 19.66666667 -6 18.33333333 -4 17 C-0.41520247 13.04436134 0.13937416 9.47744267 0.0625 4.25 C0.05347656 3.45078125 0.04445312 2.6515625 0.03515625 1.828125 C0.02355469 1.22484375 0.01195312 0.6215625 0 0 Z " fill="#F6FBFC" transform="translate(117,91)"/>
<path d="M0 0 C0.33 0 0.66 0 1 0 C1 5.61 1 11.22 1 17 C0.67 17 0.34 17 0 17 C0 17.99 0 18.98 0 20 C0.66 20.391875 1.32 20.78375 2 21.1875 C4 23 4 23 4.265625 24.96875 C4.25145376 26.98106558 4.1316756 28.99194713 4 31 C4.495 26.545 4.495 26.545 5 22 C5.33 22.66 5.66 23.32 6 24 C6.66 24 7.32 24 8 24 C7.67 23.01 7.34 22.02 7 21 C7.9375 18.3125 7.9375 18.3125 9 16 C9.33 16 9.66 16 10 16 C9.67 19.63 9.34 23.26 9 27 C13.95 26.67 18.9 26.34 24 26 C23.34 26.33 22.68 26.66 22 27 C22.33 27.99 22.66 28.98 23 30 C24.98 30 26.96 30 29 30 C29.495 30.99 29.495 30.99 30 32 C31.2065625 32.433125 31.2065625 32.433125 32.4375 32.875 C35 34 35 34 36.15014648 35.79272461 C37.07647867 38.19863363 37.217336 39.87433653 37.16015625 42.44140625 C37.1437207 43.68760742 37.1437207 43.68760742 37.12695312 44.95898438 C37.10568359 45.81814453 37.08441406 46.67730469 37.0625 47.5625 C37.02802811 49.27205018 36.99789674 50.98169486 36.97265625 52.69140625 C36.95468994 53.44623291 36.93672363 54.20105957 36.91821289 54.97875977 C36.91469298 57.20676767 36.91469298 57.20676767 38 60 C35.85423363 60.02685938 33.70837355 60.04633088 31.5625 60.0625 C30.36753906 60.07410156 29.17257813 60.08570313 27.94140625 60.09765625 C25 60 25 60 24 59 C23.91314397 57.43827255 23.89297781 55.87270656 23.90234375 54.30859375 C23.90556641 53.36435547 23.90878906 52.42011719 23.91210938 51.44726562 C23.92048828 50.45404297 23.92886719 49.46082031 23.9375 48.4375 C23.94201172 47.44041016 23.94652344 46.44332031 23.95117188 45.41601562 C23.96299993 42.94395151 23.97948151 40.47200482 24 38 C19.90996141 36.85017398 15.96822949 36.88905744 11.75 36.9375 C11.00492188 36.94201172 10.25984375 36.94652344 9.4921875 36.95117188 C7.6614236 36.96290754 5.83070127 36.9808415 4 37 C3.67 38.32 3.34 39.64 3 41 C2.67 39.68 2.34 38.36 2 37 C-0.475 37.495 -0.475 37.495 -3 38 C-4.45192194 29.53066132 -3.40346888 21.80270732 -2.0625 13.375 C-1.86720703 12.08464844 -1.67191406 10.79429688 -1.47070312 9.46484375 C-0.99133931 6.30805768 -0.50088401 3.15343036 0 0 Z " fill="#0CA4CD" transform="translate(77,82)"/>
<path d="M0 0 C2.79368732 2.79368732 2.3128441 4.806347 2.38037109 8.62792969 C2.35162144 22.99752995 0.51155676 34.41910265 -9.91796875 44.93359375 C-17.70337972 52.17688713 -25.26871021 54.19366676 -35.8125 54.0625 C-36.50537109 54.05798828 -37.19824219 54.05347656 -37.91210938 54.04882812 C-39.60811068 54.03713156 -41.30406703 54.01919924 -43 54 C-43 53.67 -43 53.34 -43 53 C-40.36 53 -37.72 53 -35 53 C-35 52.34 -35 51.68 -35 51 C-32.69 51 -30.38 51 -28 51 C-28 50.34 -28 49.68 -28 49 C-28.99 48.67 -29.98 48.34 -31 48 C-31.33 47.34 -31.66 46.68 -32 46 C-33.54107422 46.05220703 -33.54107422 46.05220703 -35.11328125 46.10546875 C-48.52470366 46.42532955 -58.70184663 43.4300747 -71 38 C-71 37.01 -71 36.02 -71 35 C-66.1453208 35.51101886 -62.10437748 37.06430687 -57.66015625 38.96484375 C-51.00000497 41.55653258 -45.19518826 42.33915984 -38.125 42.3125 C-37.27808594 42.32861328 -36.43117187 42.34472656 -35.55859375 42.36132812 C-26.76338156 42.36806259 -20.11804546 40.03471508 -13 35 C-12.34 35 -11.68 35 -11 35 C-10.7525 34.484375 -10.505 33.96875 -10.25 33.4375 C-9 31 -9 31 -7.125 28.0625 C-2.22324286 19.48901467 -0.39122251 9.76100166 0 0 Z " fill="#188DB3" transform="translate(191,128)"/>
<path d="M0 0 C-4.02824322 1.60122668 -6.97880977 0.28616137 -11 -0.9375 C-17.60169342 -2.77626054 -23.84079269 -3.3906977 -30.6875 -3.375 C-31.53634766 -3.3762085 -32.38519531 -3.37741699 -33.25976562 -3.37866211 C-40.14080678 -3.25814748 -44.94702136 -1.92665417 -50 3 C-55.32224603 9.94806182 -56.18726998 17.47239999 -57 26 C-58.32 25.67 -59.64 25.34 -61 25 C-61.33591896 22.72954771 -61.66865065 20.45862367 -62 18.1875 C-62.185625 16.92292969 -62.37125 15.65835938 -62.5625 14.35546875 C-63 11 -63 11 -63 8 C-65.4390706 5.79857668 -65.4390706 5.79857668 -68 4 C-68.99 4.495 -68.99 4.495 -70 5 C-66.89382306 -2.62425249 -60.20118218 -5.95559778 -53 -9 C-36.21636512 -14.6899743 -15.08119517 -7.27388835 0 0 Z " fill="#08BBEC" transform="translate(112,58)"/>
<path d="M0 0 C0.66 0 1.32 0 2 0 C4.61973616 3.46938032 6.76104488 7.277137 9 11 C9.51651123 11.84232178 9.51651123 11.84232178 10.04345703 12.70166016 C16.70292751 23.59308687 21.2696525 33.43218638 21.5625 46.375 C21.58957031 47.13651367 21.61664063 47.89802734 21.64453125 48.68261719 C21.61647239 52.66171379 21.22928601 55.22081732 18.69921875 58.37109375 C11.67465573 65.2126725 3.31377783 69.15964026 -6.5625 69.1875 C-8.0422308 69.14020267 -9.52185988 69.08331896 -11 69 C-8.66161642 67.44107761 -6.7801505 66.45790441 -4.25 65.375 C2.94133347 61.77933326 7.69507841 55.46211365 10.3359375 47.94140625 C14.14130912 31.08584844 8.17971014 14.58855519 0 0 Z " fill="#06527A" transform="translate(163,99)"/>
<path d="M0 0 C0.33 0 0.66 0 1 0 C1 2.64 1 5.28 1 8 C1.66 8 2.32 8 3 8 C3.33 7.01 3.66 6.02 4 5 C4.33 5.66 4.66 6.32 5 7 C5.99 7 6.98 7 8 7 C8.99 7 9.98 7 11 7 C10.50130596 12.36891879 9.97772468 17.69235173 9 23 C9.57492188 23.25007813 10.14984375 23.50015625 10.7421875 23.7578125 C13.31142528 25.17133778 15.02894814 26.82402452 17.125 28.875 C21.82220049 33.18775699 26.82042677 36.77937819 32.125 40.3125 C32.87668457 40.81571777 33.62836914 41.31893555 34.40283203 41.83740234 C39.12318458 44.9350368 43.90461613 47.56784965 49 50 C49 50.99 49 51.98 49 53 C45.53058454 52.54177532 42.32604951 52.10868317 39 51 C39 50.34 39 49.68 39 49 C38.195625 48.79375 37.39125 48.5875 36.5625 48.375 C31.88373651 46.56916146 28.06438254 43.90418607 24 41 C23.24976562 40.48308594 22.49953125 39.96617187 21.7265625 39.43359375 C21.15679687 38.96050781 20.58703125 38.48742187 20 38 C20 37.34 20 36.68 20 36 C18.515 35.505 18.515 35.505 17 35 C17 34.34 17 33.68 17 33 C11.65582769 30.77326154 7.57026585 29.87423624 1.75 29.9375 C0.67234375 29.94652344 -0.4053125 29.95554688 -1.515625 29.96484375 C-2.74539062 29.98224609 -2.74539062 29.98224609 -4 30 C-4.042721 28.33388095 -4.04063832 26.66617115 -4 25 C-3.67 24.67 -3.34 24.34 -3 24 C-3.01686969 22.09372459 -3.03476624 20.18745114 -3.05859375 18.28125 C-2.9641738 14.60516669 -2.23859619 11.09317065 -1.5 7.5 C-1.35691406 6.77296875 -1.21382813 6.0459375 -1.06640625 5.296875 C-0.71766302 3.52990929 -0.35980277 1.76474691 0 0 Z " fill="#1199BF" transform="translate(73,112)"/>
<path d="M0 0 C0.33 0.66 0.66 1.32 1 2 C1.99 1.67 2.98 1.34 4 1 C4.66 1.66 5.32 2.32 6 3 C8.10820797 2.6814823 8.10820797 2.6814823 10 2 C17.04385409 14.51480873 22.29539874 25.10088217 22.4375 39.75 C22.4478125 40.63768066 22.458125 41.52536133 22.46875 42.43994141 C22.39011998 48.27057602 21.3418893 52.65775915 19 58 C18.67 58 18.34 58 18 58 C17.97421875 56.98421875 17.9484375 55.9684375 17.921875 54.921875 C17.25803865 36.54975558 10.13759771 21.27793405 -1.19921875 6.89453125 C-2 5 -2 5 -1.14453125 2.26171875 C-0.76683594 1.51535156 -0.38914063 0.76898438 0 0 Z " fill="#098DBB" transform="translate(166,94)"/>
<path d="M0 0 C2.31 0 4.62 0 7 0 C5.44552284 12.46088946 3.76624939 24.8979226 1.875 37.3125 C1.70452148 38.44478027 1.53404297 39.57706055 1.35839844 40.74365234 C1.19629883 41.79375488 1.03419922 42.84385742 0.8671875 43.92578125 C0.72394043 44.85817627 0.58069336 45.79057129 0.43310547 46.7512207 C0 49 0 49 -1 51 C2.96 51 6.92 51 11 51 C11.33 50.01 11.66 49.02 12 48 C12 49.32 12 50.64 12 52 C3.65080904 52.62340626 -4.62239447 53.17740812 -13 53 C-13 53.99 -13 54.98 -13 56 C-15 57.6875 -15 57.6875 -17 59 C-18.98 57.35 -20.96 55.7 -23 54 C-21.02 53.505 -21.02 53.505 -19 53 C-19 53.66 -19 54.32 -19 55 C-18.34 55 -17.68 55 -17 55 C-16.67 53.35 -16.34 51.7 -16 50 C-11.71 50 -7.42 50 -3 50 C-3.33 49.34 -3.66 48.68 -4 48 C-4.06012282 46.59761277 -4.06051443 45.19234594 -4.02734375 43.7890625 C-4.00897461 42.53996094 -4.00897461 42.53996094 -3.99023438 41.265625 C-3.95523243 39.51293504 -3.91620566 37.76032058 -3.87304688 36.0078125 C-3.86208984 35.1725 -3.85113281 34.3371875 -3.83984375 33.4765625 C-3.82300537 32.71424316 -3.80616699 31.95192383 -3.78881836 31.16650391 C-4.03175608 28.67421571 -4.67807751 27.1172605 -6 25 C-8.0335948 23.73195434 -8.0335948 23.73195434 -10 23 C-10 22.34 -10 21.68 -10 21 C-8 19.66666667 -6 18.33333333 -4 17 C-0.41520247 13.04436134 0.13937416 9.47744267 0.0625 4.25 C0.05347656 3.45078125 0.04445313 2.6515625 0.03515625 1.828125 C0.02355469 1.22484375 0.01195313 0.6215625 0 0 Z " fill="#F9FBFA" transform="translate(117,91)"/>
<path d="M0 0 C1.15242188 0.53496094 2.30484375 1.06992187 3.4921875 1.62109375 C6.125 3.5625 6.125 3.5625 7.0078125 6.78515625 C7.04648438 7.70167969 7.08515625 8.61820313 7.125 9.5625 C5.475 9.5625 3.825 9.5625 2.125 9.5625 C1.63 8.5725 1.63 8.5725 1.125 7.5625 C0.135 7.5625 -0.855 7.5625 -1.875 7.5625 C-6.33893821 6.29156107 -10.22224314 4.4227984 -14.3125 2.25 C-30.75833439 -6.22485433 -50.0374358 -11.16035901 -68.1875 -5.5 C-70.08660018 -4.82157625 -71.98298624 -4.13544285 -73.875 -3.4375 C-75.20285319 -3.0829654 -76.53434045 -2.74002413 -77.875 -2.4375 C-75.15114225 -6.02042058 -71.25319957 -6.84211984 -67.125 -8.0625 C-66.4340625 -8.2790625 -65.743125 -8.495625 -65.03125 -8.71875 C-43.08502177 -15.40162401 -20.21205513 -9.39587428 0 0 Z " fill="#0E5A82" transform="translate(128.875,53.4375)"/>
<path d="M0 0 C11.6992506 -0.77081446 11.6992506 -0.77081446 16.375 2 C18.25794758 5.47621092 18.46467099 7.31467842 17.72265625 11.1328125 C16.3095406 14.78399781 13.34894256 16.32552872 10 18 C7.95944995 18.07065617 5.91665743 18.08421976 3.875 18.0625 C2.77929688 18.05347656 1.68359375 18.04445313 0.5546875 18.03515625 C-0.70988281 18.01775391 -0.70988281 18.01775391 -2 18 C-1.85805236 15.93722893 -1.71127784 13.87478969 -1.5625 11.8125 C-1.48128906 10.66394531 -1.40007812 9.51539062 -1.31640625 8.33203125 C-1.04596188 5.48401829 -0.62478253 2.78789518 0 0 Z " fill="#F2FAFB" transform="translate(88,91)"/>
<path d="M0 0 C-0.66 0.99 -1.32 1.98 -2 3 C-1.505 3.99 -1.505 3.99 -1 5 C-1.886875 4.690625 -2.77375 4.38125 -3.6875 4.0625 C-9.80055629 2.05894433 -9.80055629 2.05894433 -16 3 C-15.67 1.35 -15.34 -0.3 -15 -2 C-32.60300988 -9.064065 -52.26810564 -15.76141983 -70.80078125 -8.16796875 C-73.06861943 -7.03770963 -73.06861943 -7.03770963 -75.16796875 -5.36328125 C-77 -4 -77 -4 -79 -4 C-79 -4.99 -79 -5.98 -79 -7 C-78.34 -7 -77.68 -7 -77 -7 C-77 -7.66 -77 -8.32 -77 -9 C-74.01250163 -10.04009202 -71.00838198 -11.02216574 -68 -12 C-67.19175781 -12.28617188 -66.38351563 -12.57234375 -65.55078125 -12.8671875 C-43.40568528 -19.98888758 -19.05178298 -11.77845273 0 0 Z " fill="#EEF8FA" transform="translate(125,60)"/>
<path d="M0 0 C3 1.8125 3 1.8125 6 4 C6 11.66666667 6 19.33333333 6 27 C4.35 27 2.7 27 1 27 C0.67 29.64 0.34 32.28 0 35 C-0.66 35 -1.32 35 -2 35 C-2 33.68 -2 32.36 -2 31 C-2.66 31 -3.32 31 -4 31 C-6.51956925 21.39414223 -7.88010742 11.1376497 -3 2 C-2.01 1.34 -1.02 0.68 0 0 Z " fill="#05BDF0" transform="translate(44,61)"/>
<path d="M0 0 C5.80253092 0.12147005 9.31994423 2.28446936 13.75 6 C14.8125 7.375 14.8125 7.375 14.8125 9.375 C15.6478125 9.74625 15.6478125 9.74625 16.5 10.125 C19.215352 11.59275784 21.40971259 13.44104916 23.8125 15.375 C24.72 15.890625 25.6275 16.40625 26.5625 16.9375 C28.8125 18.375 28.8125 18.375 29.8125 21.375 C30.4725 21.705 31.1325 22.035 31.8125 22.375 C31.8125 23.035 31.8125 23.695 31.8125 24.375 C32.4725 24.705 33.1325 25.035 33.8125 25.375 C33.3175 26.86 33.3175 26.86 32.8125 28.375 C32.8125 27.715 32.8125 27.055 32.8125 26.375 C31.4925 26.045 30.1725 25.715 28.8125 25.375 C28.8125 24.385 28.8125 23.395 28.8125 22.375 C27.6678125 22.64957031 26.523125 22.92414063 25.34375 23.20703125 C19.78040398 23.89999653 16.60672044 21.29509372 12.3125 18.0625 C11.22195312 17.29389648 11.22195312 17.29389648 10.109375 16.50976562 C6.30004494 13.7637542 6.30004494 13.7637542 4.8125 12.375 C4.8125 11.715 4.8125 11.055 4.8125 10.375 C4.22984375 10.10945312 3.6471875 9.84390625 3.046875 9.5703125 C0.75075772 8.34197004 -0.99106018 6.97185061 -2.9375 5.25 C-3.55109375 4.71117187 -4.1646875 4.17234375 -4.796875 3.6171875 C-5.25578125 3.20726562 -5.7146875 2.79734375 -6.1875 2.375 C-3.82657851 0.01407851 -3.22499516 0.05550766 0 0 Z " fill="#0EAAD5" transform="translate(78.1875,140.625)"/>
<path d="M0 0 C4.8546792 0.51101886 8.89562252 2.06430687 13.33984375 3.96484375 C19.99999503 6.55653258 25.80481174 7.33915984 32.875 7.3125 C33.72191406 7.32861328 34.56882813 7.34472656 35.44140625 7.36132812 C41.47734121 7.36594982 46.40711896 6.22686797 52 4 C53.010625 3.608125 54.02125 3.21625 55.0625 2.8125 C55.701875 2.544375 56.34125 2.27625 57 2 C57 2.66 57 3.32 57 4 C54.03 5.65 51.06 7.3 48 9 C48 9.99 48 10.98 48 12 C48.66 12 49.32 12 50 12 C50.33 10.68 50.66 9.36 51 8 C51.99 8 52.98 8 54 8 C54 7.34 54 6.68 54 6 C54.66 6 55.32 6 56 6 C56 6.99 56 7.98 56 9 C55.360625 9.103125 54.72125 9.20625 54.0625 9.3125 C53.381875 9.539375 52.70125 9.76625 52 10 C51.67 10.99 51.34 11.98 51 13 C52.98 12.67 54.96 12.34 57 12 C53.38990933 16.75875588 48.67017356 18.02981821 43 19 C37.98247871 19.23097307 33.02106181 19.18075823 28 19 C28 18.67 28 18.34 28 18 C30.64 18 33.28 18 36 18 C36 17.34 36 16.68 36 16 C38.31 16 40.62 16 43 16 C43 15.34 43 14.68 43 14 C42.01 13.67 41.02 13.34 40 13 C39.505 12.01 39.505 12.01 39 11 C37.45892578 11.05220703 37.45892578 11.05220703 35.88671875 11.10546875 C22.47529634 11.42532955 12.29815337 8.4300747 0 3 C0 2.01 0 1.02 0 0 Z " fill="#1A86AB" transform="translate(120,163)"/>
<path d="M0 0 C0.33 0 0.66 0 1 0 C1 2.31 1 4.62 1 7 C1.99 6.67 2.98 6.34 4 6 C6.12037175 9.18055762 6.63596549 11.36875248 7.5 15.0625 C10.10643752 24.58296072 14.92916645 35.92916645 22 43 C21.625 46.625 21.625 46.625 21 50 C20.01 50 19.02 50 18 50 C17.67 49.01 17.34 48.02 17 47 C16.24074219 46.27683594 15.48148438 45.55367187 14.69921875 44.80859375 C11.50824466 41.48831825 9.77508956 38.18279036 7.8125 34.0625 C7.29913086 33.02706055 7.29913086 33.02706055 6.77539062 31.97070312 C3.43798778 25.13388758 1.73709084 19.62436561 2 12 C1.34 12 0.68 12 0 12 C0 8.04 0 4.08 0 0 Z " fill="#71CCF4" transform="translate(50,76)"/>
<path d="M0 0 C0.66 0.33 1.32 0.66 2 1 C1.68385434 15.96949679 0.95161629 30.72311433 -9.25 42.625 C-17.86690575 50.06687315 -25.9546907 52.34908166 -37.25 52.25 C-38.1471875 52.25773437 -39.044375 52.26546875 -39.96875 52.2734375 C-41.26039063 52.26957031 -41.26039063 52.26957031 -42.578125 52.265625 C-43.35575195 52.26336914 -44.13337891 52.26111328 -44.93457031 52.25878906 C-47 52 -47 52 -50 50 C-46.42355152 48.7619986 -43.66305234 49.25073929 -40 50 C-40 49.34 -40 48.68 -40 48 C-38.92685547 48.08701172 -38.92685547 48.08701172 -37.83203125 48.17578125 C-28.42994898 48.60149002 -20.12861341 46.56382479 -12.32421875 41.140625 C-9.90315597 38.91080583 -8.39542269 36.84051918 -6.75 34 C-6.24984375 33.154375 -5.7496875 32.30875 -5.234375 31.4375 C-3.16663683 27.35437146 -2.87810877 23.91555087 -2.90234375 19.359375 C-2.90556641 18.28945312 -2.90878906 17.21953125 -2.91210938 16.1171875 C-2.92048828 15.00601563 -2.92886719 13.89484375 -2.9375 12.75 C-2.94201172 11.62335938 -2.94652344 10.49671875 -2.95117188 9.3359375 C-2.96294603 6.55723783 -2.9793916 3.77864591 -3 1 C-2.01 0.67 -1.02 0.34 0 0 Z " fill="#F1F9F9" transform="translate(190,119)"/>
<path d="M0 0 C2.51953125 2.59375 2.51953125 2.59375 4.8125 5.5 C5.58207031 6.4590625 6.35164063 7.418125 7.14453125 8.40625 C9 11 9 11 10 14 C8.02 14.99 8.02 14.99 6 16 C5.34 15.34 4.68 14.68 4 14 C1.91666667 14.16666667 1.91666667 14.16666667 0 15 C-0.33 15.66 -0.66 16.32 -1 17 C-1.66 17 -2.32 17 -3 17 C-4.4375 15.13671875 -4.4375 15.13671875 -6 12.6875 C-6.515625 11.88699219 -7.03125 11.08648437 -7.5625 10.26171875 C-8.036875 9.51535156 -8.51125 8.76898438 -9 8 C-9.66 7.01 -10.32 6.02 -11 5 C-11.07905064 2.66800612 -11.08798769 0.33167378 -11 -2 C-6.32400548 -3.51282176 -4.14042008 -2.47181524 0 0 Z " fill="#0878A5" transform="translate(165,82)"/>
<path d="M0 0 C0.66 0.99 1.32 1.98 2 3 C4.70479801 3.33258126 7.22677728 3.51243388 9.9375 3.5625 C17.61881018 3.74587345 17.61881018 3.74587345 21 6 C17.37 6 13.74 6 10 6 C9.87625 7.03125 9.7525 8.0625 9.625 9.125 C9.06051147 12.62482888 8.16311332 15.66574183 7 19 C7 19.66 7 20.32 7 21 C6.34 21 5.68 21 5 21 C4.87625 22.134375 4.7525 23.26875 4.625 24.4375 C4.41875 25.613125 4.2125 26.78875 4 28 C3.34 28.33 2.68 28.66 2 29 C2.09765625 25.97265625 2.09765625 25.97265625 2.1953125 22.9453125 C2.18331689 20.76136355 2.18331689 20.76136355 0 19 C-0.33 22.3 -0.66 25.6 -1 29 C-3.47088784 25.29366824 -3.09180048 23.79712561 -2.6875 19.4375 C-2.58824219 18.28121094 -2.48898438 17.12492187 -2.38671875 15.93359375 C-2 13 -2 13 -1 11 C-1 9.88625 -1 8.7725 -1 7.625 C-1 4.75065724 -0.8611949 2.69123407 0 0 Z " fill="#07AEDD" transform="translate(78,85)"/>
<path d="M0 0 C3.53765889 1.98182985 6.29520072 4.10842037 9.1875 6.9375 C13.86326209 11.22654493 18.84771591 14.7959309 24.125 18.3125 C24.87676514 18.81579834 25.62853027 19.31909668 26.40307617 19.83764648 C31.12340789 22.9350896 35.90472136 25.56789988 41 28 C41 28.99 41 29.98 41 31 C37.53058454 30.54177532 34.32604951 30.10868317 31 29 C31 28.34 31 27.68 31 27 C30.195625 26.79375 29.39125 26.5875 28.5625 26.375 C23.88373651 24.56916146 20.06438254 21.90418607 16 19 C15.24976562 18.48308594 14.49953125 17.96617187 13.7265625 17.43359375 C13.15679687 16.96050781 12.58703125 16.48742187 12 16 C12 15.34 12 14.68 12 14 C11.01 13.67 10.02 13.34 9 13 C9 12.34 9 11.68 9 11 C8.2575 10.71125 7.515 10.4225 6.75 10.125 C4.43260203 9.17697356 2.22082885 8.15154089 0 7 C0 4.69 0 2.38 0 0 Z " fill="#41A0C7" transform="translate(81,134)"/>
<path d="M0 0 C0.99 0.33 1.98 0.66 3 1 C3 1.99 3 2.98 3 4 C3.99 3.67 4.98 3.34 6 3 C6.99 3.33 7.98 3.66 9 4 C9 5.32 9 6.64 9 8 C9.99 7.67 10.98 7.34 12 7 C12 7.66 12 8.32 12 9 C12.66 9 13.32 9 14 9 C15.45681542 13.37044627 15.22489391 17.60877682 15.25 22.1875 C15.270625 23.10853516 15.29125 24.02957031 15.3125 24.97851562 C15.34688993 31.03544199 14.47251335 35.46287141 12 41 C11.67 41 11.34 41 11 41 C10.97421875 39.98421875 10.9484375 38.9684375 10.921875 37.921875 C10.4579775 25.2042569 7.66202421 15.26434828 1.171875 4.1796875 C0 2 0 2 0 0 Z " fill="#16ABD8" transform="translate(173,111)"/>
<path d="M0 0 C5.75 -0.125 5.75 -0.125 8 1 C8 1.66 8 2.32 8 3 C8.639375 3.0825 9.27875 3.165 9.9375 3.25 C14.20541517 4.29520372 18.03107667 6.14091826 22 8 C22 8.66 22 9.32 22 10 C22.66 10 23.32 10 24 10 C23.125 14.75 23.125 14.75 22 17 C13.40679017 14.52399039 3.01962731 10.90362852 -3 4 C-2.67 3.34 -2.34 2.68 -2 2 C-0.35 2.33 1.3 2.66 3 3 C3.33 3.99 3.66 4.98 4 6 C4.33 6 4.66 6 5 6 C5.33 5.01 5.66 4.02 6 3 C4.02 2.34 2.04 1.68 0 1 C0 0.67 0 0.34 0 0 Z " fill="#13A2CA" transform="translate(104,160)"/>
<path d="M0 0 C0.92340211 3.00550035 1.0106848 5.16847121 0.4765625 8.2578125 C0.3425 9.04800781 0.2084375 9.83820313 0.0703125 10.65234375 C-0.15011719 11.87630859 -0.15011719 11.87630859 -0.375 13.125 C-0.51421875 13.94871094 -0.6534375 14.77242187 -0.796875 15.62109375 C-1.85226739 21.70453477 -1.85226739 21.70453477 -3 24 C0.96 24 4.92 24 9 24 C9.495 22.515 9.495 22.515 10 21 C10 22.32 10 23.64 10 25 C1.65080904 25.62340626 -6.62239447 26.17740812 -15 26 C-15 26.99 -15 27.98 -15 29 C-17 30.6875 -17 30.6875 -19 32 C-20.98 30.35 -22.96 28.7 -25 27 C-23.68 26.67 -22.36 26.34 -21 26 C-21 26.66 -21 27.32 -21 28 C-20.34 28 -19.68 28 -19 28 C-18.67 26.35 -18.34 24.7 -18 23 C-13.71 23 -9.42 23 -5 23 C-5.33 22.34 -5.66 21.68 -6 21 C-6.16796875 18.9765625 -6.16796875 18.9765625 -6.1875 16.625 C-6.20167969 15.85414063 -6.21585938 15.08328125 -6.23046875 14.2890625 C-5.97404645 11.7422241 -5.35625154 10.16048491 -4 8 C-3.34 7.67 -2.68 7.34 -2 7 C-1.26924352 4.6859378 -0.59861742 2.35171131 0 0 Z " fill="#ECF7F9" transform="translate(119,118)"/>
<path d="M0 0 C0.33 0 0.66 0 1 0 C1 2.31 1 4.62 1 7 C1.99 6.67 2.98 6.34 4 6 C6.19709177 9.29563765 7.00391882 12.06732777 8.0625 15.875 C8.57490234 17.69644531 8.57490234 17.69644531 9.09765625 19.5546875 C9.83334063 22.36366423 10.47368552 25.1459648 11 28 C10.01 28 9.02 28 8 28 C8 28.66 8 29.32 8 30 C8.66 30 9.32 30 10 30 C9.34 31.32 8.68 32.64 8 34 C4.07082525 26.48497645 1.70448243 20.57000965 2 12 C1.34 12 0.68 12 0 12 C0 8.04 0 4.08 0 0 Z " fill="#61C9EF" transform="translate(50,76)"/>
<path d="M0 0 C0.33 0 0.66 0 1 0 C1 5.61 1 11.22 1 17 C0.67 17 0.34 17 0 17 C0 17.99 0 18.98 0 20 C0.66 20.66 1.32 21.32 2 22 C2.4140625 24.6015625 2.4140625 24.6015625 2.625 27.625 C2.69976562 28.62789062 2.77453125 29.63078125 2.8515625 30.6640625 C2.92503906 31.82035156 2.92503906 31.82035156 3 33 C6.71429898 34.1161656 10.39161508 34.3124195 14.25 34.5625 C15.51328125 34.64628906 16.7765625 34.73007813 18.078125 34.81640625 C19.52445313 34.90728516 19.52445313 34.90728516 21 35 C21 35.33 21 35.66 21 36 C12.585 36.495 12.585 36.495 4 37 C3.67 38.32 3.34 39.64 3 41 C2.67 39.68 2.34 38.36 2 37 C-0.475 37.495 -0.475 37.495 -3 38 C-4.45192194 29.53066132 -3.40346888 21.80270732 -2.0625 13.375 C-1.86720703 12.08464844 -1.67191406 10.79429688 -1.47070312 9.46484375 C-0.99133931 6.30805768 -0.50088401 3.15343036 0 0 Z " fill="#13A2C9" transform="translate(77,82)"/>
<path d="M0 0 C0.99 0.99 1.98 1.98 3 3 C2.67 3.99 2.34 4.98 2 6 C3.37168238 8.19038423 3.37168238 8.19038423 5 10 C-3.26984479 14.32382748 -9.59523044 16.33455702 -19 16 C-16.66161642 14.44107761 -14.7801505 13.45790441 -12.25 12.375 C-6.92899851 9.77842996 -2.65282466 5.30564931 0 0 Z " fill="#13587F" transform="translate(171,152)"/>
<path d="M0 0 C2.31 0 4.62 0 7 0 C8.60725635 3.21451269 8.05748185 6.43612536 8 10 C7.34 10 6.68 10 6 10 C6 10.99 6 11.98 6 13 C2.625 13.125 2.625 13.125 -1 13 C-1.66 12.34 -2.32 11.68 -3 11 C-2.69690596 6.90823045 -2.12300942 3.53834904 0 0 Z " fill="#06B7E9" transform="translate(109,92)"/>
<path d="M0 0 C3.23501466 3.72026686 5.57417568 8.29146387 7 13 C6.609375 15.28125 6.609375 15.28125 6 17 C5.01 16.67 4.02 16.34 3 16 C3 14.68 3 13.36 3 12 C1.02 12 -0.96 12 -3 12 C-3.33 11.01 -3.66 10.02 -4 9 C-6.00016466 7.79117904 -6.00016466 7.79117904 -8 7 C-7.6875 5.125 -7.6875 5.125 -7 3 C-4.38058783 1.25372522 -2.96175123 0.61277612 0 0 Z " fill="#0795C5" transform="translate(179,103)"/>
<path d="M0 0 C0.66 0.33 1.32 0.66 2 1 C1.70404548 15.01344629 0.87544588 27.90556526 -7 40 C-7.66 40 -8.32 40 -9 40 C-8.42992956 36.43705973 -6.8036828 33.80007512 -4.9375 30.78125 C-2.97532301 27.05311371 -2.88020869 23.52076604 -2.90234375 19.359375 C-2.90556641 18.28945312 -2.90878906 17.21953125 -2.91210938 16.1171875 C-2.92048828 15.00601563 -2.92886719 13.89484375 -2.9375 12.75 C-2.94201172 11.62335938 -2.94652344 10.49671875 -2.95117188 9.3359375 C-2.96294603 6.55723783 -2.9793916 3.77864591 -3 1 C-2.01 0.67 -1.02 0.34 0 0 Z " fill="#D8E8EC" transform="translate(190,119)"/>
<path d="M0 0 C3.82796675 0.40294387 6.99813225 1.36099117 10.5 2.875 C19.85051005 6.7475757 29.94256548 8.32795944 40 9 C39.67 9.66 39.34 10.32 39 11 C24.3538486 11.49616824 13.50296399 8.96204169 0 3 C0 2.01 0 1.02 0 0 Z " fill="#18789D" transform="translate(120,163)"/>
<path d="M0 0 C-1.4375 2.0625 -1.4375 2.0625 -4 4 C-7.6875 3.75 -7.6875 3.75 -10.05859375 3.37890625 C-21.79618124 1.86689299 -31.88652017 2.90036078 -43 7 C-44.32785319 7.3545346 -45.65934045 7.69747587 -47 8 C-44.27614225 4.41707942 -40.37819957 3.59538016 -36.25 2.375 C-35.5590625 2.1584375 -34.868125 1.941875 -34.15625 1.71875 C-22.98470522 -1.68311138 -11.48927609 -1.80223939 0 0 Z " fill="#1B5B7E" transform="translate(98,43)"/>
<path d="M0 0 C3.4296875 1.53125 3.4296875 1.53125 6.875 3.5 C7.46796875 3.83386719 8.0609375 4.16773438 8.671875 4.51171875 C10.12104717 5.32979982 11.56146981 6.16334743 13 7 C12.01 8.485 12.01 8.485 11 10 C11.33 10.66 11.66 11.32 12 12 C11.113125 11.690625 10.22625 11.38125 9.3125 11.0625 C3.19944371 9.05894433 3.19944371 9.05894433 -3 10 C-2.67 8.35 -2.34 6.7 -2 5 C-4.31 4.01 -6.62 3.02 -9 2 C-5.44962587 -0.36691609 -4.18651289 -0.44387125 0 0 Z " fill="#E7F4F5" transform="translate(112,53)"/>
<path d="M0 0 C3.83533021 1.39403503 7.03488745 3.19322364 10.4375 5.4375 C14.2135553 7.88683317 17.91275332 10.12207585 22 12 C22 12.99 22 13.98 22 15 C18.53058454 14.54177532 15.32604951 14.10868317 12 13 C12 12.34 12 11.68 12 11 C11.113125 10.731875 10.22625 10.46375 9.3125 10.1875 C5.30839508 8.75206616 2.03754145 7.55631218 -0.375 3.9375 C-1 2 -1 2 0 0 Z " fill="#2B8EB9" transform="translate(100,150)"/>
<path d="M0 0 C0.66 0.33 1.32 0.66 2 1 C1.60167969 1.4846875 1.20335938 1.969375 0.79296875 2.46875 C-5.42386854 10.33433489 -7.40824393 17.04217368 -8 27 C-9.32 26.67 -10.64 26.34 -12 26 C-12.66806702 18.05742539 -11.99801223 12.38359977 -7 6 C-4.79876098 3.79876098 -2.50742818 1.84263454 0 0 Z " fill="#2186B0" transform="translate(63,57)"/>
<path d="M0 0 C11.9381035 -0.41271293 23.27915274 4.12870255 34 9 C30.01675559 10.57312944 26.62801534 9.35069203 22.6875 8.25 C14.84342166 6.16527974 6.97381966 4.51227614 -1 3 C-0.67 2.01 -0.34 1.02 0 0 Z " fill="#04ADDC" transform="translate(78,49)"/>
<path d="M0 0 C2.475 0.99 2.475 0.99 5 2 C5 2.66 5 3.32 5 4 C5.99 4 6.98 4 8 4 C8 3.34 8 2.68 8 2 C9.32 1.67 10.64 1.34 12 1 C12 1.99 12 2.98 12 4 C13.32 4 14.64 4 16 4 C18.25 6.5 18.25 6.5 20 9 C18.02 9.99 18.02 9.99 16 11 C15.34 10.34 14.68 9.68 14 9 C11.91666667 9.16666667 11.91666667 9.16666667 10 10 C9.67 10.66 9.34 11.32 9 12 C8.34 12 7.68 12 7 12 C5.52734375 10.13671875 5.52734375 10.13671875 3.9375 7.6875 C3.41027344 6.88699219 2.88304687 6.08648437 2.33984375 5.26171875 C1 3 1 3 0 0 Z " fill="#0281B1" transform="translate(155,87)"/>
<path d="M0 0 C0 0.99 0 1.98 0 3 C2.64 3.33 5.28 3.66 8 4 C8 4.33 8 4.66 8 5 C6.90300781 5.04898438 5.80601563 5.09796875 4.67578125 5.1484375 C3.22133075 5.22350591 1.76690484 5.29905197 0.3125 5.375 C-0.7693457 5.42140625 -0.7693457 5.42140625 -1.87304688 5.46875 C-5.98486221 5.69405495 -9.22591059 6.203813 -13 8 C-16.07368356 9.02456119 -17.90989354 8.99324851 -21 8 C-21 7.34 -21 6.68 -21 6 C-19.68 5.67 -18.36 5.34 -17 5 C-17.33 4.34 -17.66 3.68 -18 3 C-16.02 2.67 -14.04 2.34 -12 2 C-12 1.67 -12 1.34 -12 1 C-10.56496445 0.63597631 -9.12683494 0.28413409 -7.6875 -0.0625 C-6.88699219 -0.25972656 -6.08648437 -0.45695312 -5.26171875 -0.66015625 C-3 -1 -3 -1 0 0 Z " fill="#1CBBE9" transform="translate(80,49)"/>
<path d="M0 0 C1.65 0 3.3 0 5 0 C5.33 1.65 5.66 3.3 6 5 C6.99 4.34 7.98 3.68 9 3 C10.32 4.32 11.64 5.64 13 7 C12.67 7.99 12.34 8.98 12 10 C11.34 10 10.68 10 10 10 C9.01 10.66 8.02 11.32 7 12 C-0.10526316 7.42105263 -0.10526316 7.42105263 -2 5 C-2 4.01 -2 3.02 -2 2 C-1.34 2 -0.68 2 0 2 C0 1.34 0 0.68 0 0 Z " fill="#056C96" transform="translate(144,69)"/>
<path d="M0 0 C-2.43414237 1.62276158 -4.31319446 2.61744792 -7 3.625 C-7.680625 3.88539062 -8.36125 4.14578125 -9.0625 4.4140625 C-11 5 -11 5 -14 5 C-13.34 5.66 -12.68 6.32 -12 7 C-16.92127034 7.16682272 -20.50343896 7.24828052 -25 5 C-17.80203507 -1.33420914 -9.01934285 -0.22517083 0 0 Z " fill="#08B6E5" transform="translate(77,48)"/>
<path d="M0 0 C8.60333515 -0.87392795 15.17995992 1.56800749 23 5 C19.44991683 7.36672211 18.18610811 7.4025104 14 7 C11.5599881 6.15236534 9.33625067 5.12140032 7 4 C7 3.34 7 2.68 7 2 C4.69 2 2.38 2 0 2 C0 1.34 0 0.68 0 0 Z " fill="#EEF5F7" transform="translate(86,47)"/>
<path d="M0 0 C0.33 0 0.66 0 1 0 C1 2.64 1 5.28 1 8 C-2.96 8 -6.92 8 -11 8 C-11 6.35 -11 4.7 -11 3 C-10.34 3 -9.68 3 -9 3 C-8.67 2.34 -8.34 1.68 -8 1 C-5.36 1.66 -2.72 2.32 0 3 C0 2.01 0 1.02 0 0 Z " fill="#158CAF" transform="translate(80,134)"/>
<path d="M0 0 C0.33 0 0.66 0 1 0 C1 5.61 1 11.22 1 17 C4.3 16.67 7.6 16.34 11 16 C11.66 17.32 12.32 18.64 13 20 C10.85423363 20.02685938 8.70837355 20.04633088 6.5625 20.0625 C5.36753906 20.07410156 4.17257813 20.08570313 2.94140625 20.09765625 C0 20 0 20 -1 19 C-1.20356195 12.5877985 -0.74428438 6.3662896 0 0 Z " fill="#1499B7" transform="translate(102,122)"/>
<path d="M0 0 C4.06805518 0.92984118 5.65456692 2.59663126 7.8125 6 C10 9.66153846 10 9.66153846 10 12 C10.99 12 11.98 12 13 12 C12.67 13.32 12.34 14.64 12 16 C11.01 16 10.02 16 9 16 C8.67 15.01 8.34 14.02 8 13 C7.21625 12.236875 6.4325 11.47375 5.625 10.6875 C2.67403521 7.66627415 0 4.39814743 0 0 Z " fill="#53B6DE" transform="translate(59,110)"/>
<path d="M0 0 C4.14235206 5.01379788 7.19932214 11.89782186 6.87890625 18.4921875 C6.13470009 21.64208333 5.301486 23.698514 3 26 C2.95101562 24.96101563 2.90203125 23.92203125 2.8515625 22.8515625 C2.44790554 15.08046683 1.87783799 7.58427772 0 0 Z " fill="#51BEE6" transform="translate(181,126)"/>
<path d="M0 0 C0.66 0.33 1.32 0.66 2 1 C2.625 4.0625 2.625 4.0625 3 7 C1.35 7 -0.3 7 -2 7 C-2.33 6.34 -2.66 5.68 -3 5 C-3.99 5 -4.98 5 -6 5 C-7.68236471 4.37400383 -9.3523962 3.71247732 -11 3 C-7.35313111 -0.64686889 -5.00779446 -1.44962471 0 0 Z " fill="#065981" transform="translate(133,56)"/>
<path d="M0 0 C6.93 2.97 6.93 2.97 14 6 C13.67 6.66 13.34 7.32 13 8 C10.03 7.67 7.06 7.34 4 7 C4 6.67 4 6.34 4 6 C1.03 5.505 1.03 5.505 -2 5 C-1.125 1.125 -1.125 1.125 0 0 Z " fill="#EFFAF9" transform="translate(106,168)"/>
<path d="M0 0 C4.50961573 0.6620334 8.66760093 1.49775517 12.94921875 3.14453125 C12.94921875 3.80453125 12.94921875 4.46453125 12.94921875 5.14453125 C10.63921875 4.81453125 8.32921875 4.48453125 5.94921875 4.14453125 C5.61921875 4.80453125 5.28921875 5.46453125 4.94921875 6.14453125 C1.64921875 5.15453125 -1.65078125 4.16453125 -5.05078125 3.14453125 C-2.05078125 0.14453125 -2.05078125 0.14453125 0 0 Z " fill="#14567A" transform="translate(99.05078125,43.85546875)"/>
<path d="M0 0 C0.33 0 0.66 0 1 0 C2.53963295 12.01218579 1.95907545 20.56138683 -5 31 C-5.66 31 -6.32 31 -7 31 C-6.42992956 27.43705973 -4.8036828 24.80007512 -2.9375 21.78125 C-0.63771011 17.41164921 -0.69812707 12.58655481 -0.4375 7.75 C-0.37272461 6.63238281 -0.37272461 6.63238281 -0.30664062 5.4921875 C-0.20103275 3.661651 -0.10005799 1.83084824 0 0 Z " fill="#C7EAF2" transform="translate(188,128)"/>
<path d="M0 0 C2.31 0 4.62 0 7 0 C6.67 2.97 6.34 5.94 6 9 C5.01 9 4.02 9 3 9 C2.01 10.32 1.02 11.64 0 13 C0 8.71 0 4.42 0 0 Z " fill="#E7F6F8" transform="translate(117,91)"/>
<path d="M0 0 C1.24112549 0.14139404 1.24112549 0.14139404 2.50732422 0.28564453 C3.85117188 0.43066406 3.85117188 0.43066406 5.22216797 0.57861328 C6.15931641 0.69076172 7.09646484 0.80291016 8.06201172 0.91845703 C9.00689453 1.02287109 9.95177734 1.12728516 10.92529297 1.23486328 C13.26380302 1.49469773 15.60070415 1.76461762 17.93701172 2.04345703 C17.60701172 2.70345703 17.27701172 3.36345703 16.93701172 4.04345703 C14.37422473 4.09766404 11.81259689 4.1372271 9.24951172 4.16845703 C8.52828125 4.18521484 7.80705078 4.20197266 7.06396484 4.21923828 C2.88824391 4.25737272 -0.31240208 3.92244894 -4.06298828 2.04345703 C-2.06298828 0.04345703 -2.06298828 0.04345703 0 0 Z " fill="#096797" transform="translate(142.06298828125,169.95654296875)"/>
<path d="M0 0 C1.26823485 3.65393537 0.75715321 6.49070026 0.0625 10.25 C-0.13214844 11.32765625 -0.32679687 12.4053125 -0.52734375 13.515625 C-0.76130859 14.74539062 -0.76130859 14.74539062 -1 16 C-1.99 16 -2.98 16 -4 16 C-4.33 17.65 -4.66 19.3 -5 21 C-5.33 21 -5.66 21 -6 21 C-6.05447047 19.58376784 -6.09300508 18.16691809 -6.125 16.75 C-6.14820312 15.96109375 -6.17140625 15.1721875 -6.1953125 14.359375 C-5.97962391 11.75385683 -5.3921178 10.20013023 -4 8 C-3.34 7.67 -2.68 7.34 -2 7 C-1.26924352 4.6859378 -0.59861742 2.35171131 0 0 Z " fill="#D5E6EB" transform="translate(119,118)"/>
<path d="M0 0 C0.33 0 0.66 0 1 0 C1 2.31 1 4.62 1 7 C1.99 6.67 2.98 6.34 4 6 C6.4294516 9.6441774 6.16179575 11.71241272 6 16 C4.68 15.67 3.36 15.34 2 15 C2 14.01 2 13.02 2 12 C1.34 12 0.68 12 0 12 C0 8.04 0 4.08 0 0 Z " fill="#35A5D7" transform="translate(50,76)"/>
<path d="M0 0 C1.32 1.32 2.64 2.64 4 4 C-9.86 4 -23.72 4 -38 4 C-38 3.67 -38 3.34 -38 3 C-25.79 3 -13.58 3 -1 3 C-0.67 2.01 -0.34 1.02 0 0 Z " fill="#C7E0EF" transform="translate(146,78)"/>
<path d="M0 0 C0.66 0.66 1.32 1.32 2 2 C-1.84919283 6.33034194 -5.72289646 8.6560756 -11 11 C-11 10.34 -11 9.68 -11 9 C-12.32 8.67 -13.64 8.34 -15 8 C-14.33613281 7.75765625 -13.67226562 7.5153125 -12.98828125 7.265625 C-8.04268244 5.38846341 -3.92869187 3.66677907 0 0 Z " fill="#E0EEF4" transform="translate(180,158)"/>
<path d="M0 0 C4.49797113 1.68673918 8.72886302 3.81673892 13 6 C13 6.99 13 7.98 13 9 C9.53058454 8.54177532 6.32604951 8.10868317 3 7 C1.9375 5.0625 1.9375 5.0625 1 3 C0.34 2.34 -0.32 1.68 -1 1 C-0.67 0.67 -0.34 0.34 0 0 Z " fill="#2C87AD" transform="translate(109,156)"/>
<path d="M0 0 C2 2 2 2 2.1953125 5.9140625 C2.18200376 7.48449351 2.15813602 9.05486221 2.125 10.625 C2.11597656 11.42679688 2.10695312 12.22859375 2.09765625 13.0546875 C2.07406223 15.03658523 2.03819065 17.01832981 2 19 C0.68 19.33 -0.64 19.66 -2 20 C-1.34 13.4 -0.68 6.8 0 0 Z " fill="#0F7CA3" transform="translate(191,128)"/>
<path d="M0 0 C0.66 0 1.32 0 2 0 C4.8047734 5.6095468 2.88996774 13.99271777 2 20 C1.67 20 1.34 20 1 20 C-0.33583899 15.15758367 -1.25328119 11.06562383 -1 6 C-0.34 6 0.32 6 1 6 C0.67 4.02 0.34 2.04 0 0 Z " fill="#EDF9FB" transform="translate(99,120)"/>
<path d="M0 0 C2.68756955 -0.02720824 5.37485798 -0.0469388 8.0625 -0.0625 C8.81466797 -0.07087891 9.56683594 -0.07925781 10.34179688 -0.08789062 C15.00633118 -0.10808341 19.39923173 0.22404041 24 1 C24 1.33 24 1.66 24 2 C22.02 2 20.04 2 18 2 C18 2.66 18 3.32 18 4 C20.31 4 22.62 4 25 4 C25 4.66 25 5.32 25 6 C20.71 5.34 16.42 4.68 12 4 C12 3.34 12 2.68 12 2 C8.04 1.67 4.08 1.34 0 1 C0 0.67 0 0.34 0 0 Z " fill="#C5E3EE" transform="translate(68,45)"/>
<path d="M0 0 C3.90047216 0.57784773 6.23265649 2.23265649 9 5 C9.8125 8.25 9.8125 8.25 10 11 C7.05043472 9.63055898 4.47531189 8.12169591 2 6 C2 5.34 2 4.68 2 4 C1.34 4 0.68 4 0 4 C0 2.68 0 1.36 0 0 Z " fill="#3B9AC1" transform="translate(91,144)"/>
<path d="M0 0 C2 3 2 3 1.6328125 5.359375 C1.31957031 6.66648437 1.31957031 6.66648437 1 8 C0.65291461 14.73753995 1.12418814 21.32193459 2 28 C1.34 27.67 0.68 27.34 0 27 C-0.39477539 25.18994141 -0.39477539 25.18994141 -0.59765625 22.8515625 C-0.67693359 22.01109375 -0.75621094 21.170625 -0.83789062 20.3046875 C-0.91201172 19.42039062 -0.98613281 18.53609375 -1.0625 17.625 C-1.21706394 15.88775239 -1.37449871 14.15075719 -1.53515625 12.4140625 C-1.63389038 11.25318115 -1.63389038 11.25318115 -1.73461914 10.06884766 C-1.95712601 7.80703084 -1.95712601 7.80703084 -3 5 C-2.67 4.01 -2.34 3.02 -2 2 C-1.34 2 -0.68 2 0 2 C0 1.34 0 0.68 0 0 Z " fill="#DDF6FA" transform="translate(38,64)"/>
<path d="M0 0 C-6.20486947 4.13657964 -11.77107145 4.25715556 -19 4 C-12.02400423 -0.65066385 -8.20737477 -1.23884902 0 0 Z " fill="#1B597E" transform="translate(171,164)"/>
<path d="M0 0 C1.17219543 0.78345715 2.33763668 1.57702836 3.5 2.375 C4.1496875 2.81585938 4.799375 3.25671875 5.46875 3.7109375 C6.22671875 4.34902344 6.22671875 4.34902344 7 5 C7 5.66 7 6.32 7 7 C7.66 7.33 8.32 7.66 9 8 C8.34 8 7.68 8 7 8 C7.33 8.99 7.66 9.98 8 11 C7.34 11 6.68 11 6 11 C6 10.34 6 9.68 6 9 C5.34 8.67 4.68 8.34 4 8 C4.33 7.67 4.66 7.34 5 7 C2.36 6.67 -0.28 6.34 -3 6 C-3 4.68 -3 3.36 -3 2 C-2.01 1.34 -1.02 0.68 0 0 Z " fill="#E6F8F7" transform="translate(76,146)"/>
<path d="M0 0 C0.66 0.33 1.32 0.66 2 1 C1.59007813 1.53109375 1.18015625 2.0621875 0.7578125 2.609375 C-0.05042969 3.66898438 -0.05042969 3.66898438 -0.875 4.75 C-1.40867187 5.44609375 -1.94234375 6.1421875 -2.4921875 6.859375 C-3.89238914 8.84722603 -4.97855265 10.79843386 -6 13 C-6.99 13 -7.98 13 -9 13 C-9 9.5601241 -8.53558242 7.56728708 -6.15234375 5.04296875 C-4.14191738 3.30201752 -2.10706247 1.62229411 0 0 Z " fill="#136C8F" transform="translate(63,57)"/>
<path d="M0 0 C4.48993869 0.58652352 8.22543184 1.7643538 12.375 3.5625 C13.43460938 4.01753906 14.49421875 4.47257812 15.5859375 4.94140625 C16.38257812 5.29074219 17.17921875 5.64007813 18 6 C13.60155678 7.37344385 10.07495445 6.24307502 5.75 5.0625 C5.00492187 4.86720703 4.25984375 4.67191406 3.4921875 4.47070312 C1.65920614 3.98895802 -0.17071818 3.49560775 -2 3 C-1.34 2.67 -0.68 2.34 0 2 C0 1.34 0 0.68 0 0 Z " fill="#27AFCF" transform="translate(94,52)"/>
<path d="M0 0 C3.63 1.98 7.26 3.96 11 6 C11 6.33 11 6.66 11 7 C9.02 7 7.04 7 5 7 C5 6.34 5 5.68 5 5 C4.34 5 3.68 5 3 5 C3 5.66 3 6.32 3 7 C1.35 6.67 -0.3 6.34 -2 6 C-1.34 4.02 -0.68 2.04 0 0 Z " fill="#E8F8F9" transform="translate(93,160)"/>
<path d="M0 0 C2.31 0.66 4.62 1.32 7 2 C6.67 2.99 6.34 3.98 6 5 C4.67696283 5.3721042 3.34262065 5.70630173 2 6 C1.67 6.66 1.34 7.32 1 8 C-0.65 7.67 -2.3 7.34 -4 7 C-3.67 6.34 -3.34 5.68 -3 5 C-2.34 5 -1.68 5 -1 5 C-0.67 3.35 -0.34 1.7 0 0 Z " fill="#0E9DC2" transform="translate(118,165)"/>
<path d="M0 0 C1.17369141 -0.02513672 1.17369141 -0.02513672 2.37109375 -0.05078125 C5.02377163 0.38896749 5.885467 1.26878454 7.5625 3.3125 C5.5825 3.6425 3.6025 3.9725 1.5625 4.3125 C1.2325 5.6325 0.9025 6.9525 0.5625 8.3125 C-1.7475 6.3325 -4.0575 4.3525 -6.4375 2.3125 C-4.02263057 -0.10236943 -3.31042211 0.0163075 0 0 Z " fill="#12ACD2" transform="translate(78.4375,140.6875)"/>
<path d="M0 0 C0 3 0 3 -2.125 5.625 C-5.32598905 8.2692953 -6.90257274 8.82927386 -11 9 C-13.875 8.5625 -13.875 8.5625 -16 8 C-16 7.67 -16 7.34 -16 7 C-15.02160156 6.74476563 -15.02160156 6.74476563 -14.0234375 6.484375 C-8.63277496 4.98961902 -4.45246128 3.39793098 0 0 Z " fill="#EEF3F6" transform="translate(179,174)"/>
<path d="M0 0 C0.99 0.33 1.98 0.66 3 1 C3.125 6.75 3.125 6.75 2 9 C5.96 9 9.92 9 14 9 C14.33 8.01 14.66 7.02 15 6 C15 7.32 15 8.64 15 10 C10.05 10.33 5.1 10.66 0 11 C0 7.37 0 3.74 0 0 Z " fill="#E3F0F3" transform="translate(114,133)"/>
<path d="M0 0 C0.99 0.33 1.98 0.66 3 1 C3 1.99 3 2.98 3 4 C3.99 3.67 4.98 3.34 6 3 C8 5 8 5 8.1953125 7.3828125 C8.16050781 8.74019531 8.16050781 8.74019531 8.125 10.125 C8.10695312 11.03507812 8.08890625 11.94515625 8.0703125 12.8828125 C8.04710937 13.58148438 8.02390625 14.28015625 8 15 C5.84821844 12.23612808 4.01629579 9.43466931 2.3125 6.375 C1.87550781 5.59898438 1.43851563 4.82296875 0.98828125 4.0234375 C0 2 0 2 0 0 Z " fill="#25A7D7" transform="translate(173,111)"/>
<path d="M0 0 C0.103125 0.639375 0.20625 1.27875 0.3125 1.9375 C0.539375 2.618125 0.76625 3.29875 1 4 C1.99 4.33 2.98 4.66 4 5 C4.33 7.31 4.66 9.62 5 12 C4.01 12 3.02 12 2 12 C1.67 12.66 1.34 13.32 1 14 C-1.02907167 10.6853333 -1.12742133 8.5684021 -0.625 4.75 C-0.51414062 3.85796875 -0.40328125 2.9659375 -0.2890625 2.046875 C-0.19367188 1.37140625 -0.09828125 0.6959375 0 0 Z " fill="#10587F" transform="translate(122,100)"/>
<path d="M0 0 C2.475 0.99 2.475 0.99 5 2 C5 2.66 5 3.32 5 4 C6.32 4.66 7.64 5.32 9 6 C9 7.98 9 9.96 9 12 C8.34 12 7.68 12 7 12 C5.52734375 10.13671875 5.52734375 10.13671875 3.9375 7.6875 C3.41027344 6.88699219 2.88304687 6.08648437 2.33984375 5.26171875 C1 3 1 3 0 0 Z " fill="#1988AF" transform="translate(155,87)"/>
<path d="M0 0 C1.65 1.32 3.3 2.64 5 4 C4.67 4.99 4.34 5.98 4 7 C3.34 7 2.68 7 2 7 C1.01 7.66 0.02 8.32 -1 9 C-1.99 8.01 -2.98 7.02 -4 6 C-2.68 4.02 -1.36 2.04 0 0 Z " fill="#0473A1" transform="translate(152,72)"/>
<path d="M0 0 C1.65 0.33 3.3 0.66 5 1 C5.33 1.99 5.66 2.98 6 4 C6.99 4.33 7.98 4.66 9 5 C10.6875 6.5625 10.6875 6.5625 12 8 C11.67 8.66 11.34 9.32 11 10 C9.55901389 9.23570339 8.12233946 8.46327445 6.6875 7.6875 C5.48673828 7.04361328 5.48673828 7.04361328 4.26171875 6.38671875 C2.16212728 5.09940446 0.64552279 3.81593292 -1 2 C-0.67 1.34 -0.34 0.68 0 0 Z " fill="#18A4C6" transform="translate(102,162)"/>
<path d="M0 0 C0.66 0.66 1.32 1.32 2 2 C0.43181728 7.452999 -1.03810217 11.76486783 -5 16 C-3.25740319 4.29384966 -3.25740319 4.29384966 0 0 Z " fill="#129FC9" transform="translate(190,152)"/>
<path d="M0 0 C2.81296623 1.40648311 4.5330209 2.98807877 6.625 5.3125 C1 6.4375 1 6.4375 -2.375 5.3125 C-3.5625 2.75 -3.5625 2.75 -4.375 0.3125 C-2.375 -0.6875 -2.375 -0.6875 0 0 Z " fill="#E9F5F8" transform="translate(126.375,61.6875)"/>
<path d="M0 0 C1.65 0 3.3 0 5 0 C4.8125 2.875 4.8125 2.875 4 6 C1.4375 7.375 1.4375 7.375 -1 8 C-2.2077558 4.37673261 -1.54311128 3.35853631 0 0 Z " fill="#1994BE" transform="translate(188,147)"/>
<path d="M0 0 C2.12508244 3.18762365 2.5020163 5.26512223 3 9 C2.34 9 1.68 9 1 9 C0.67 8.34 0.34 7.68 0 7 C-2.02463255 6.34786708 -2.02463255 6.34786708 -4 6 C-4 4.35 -4 2.7 -4 1 C-2.68 1.33 -1.36 1.66 0 2 C0 1.34 0 0.68 0 0 Z " fill="#5FBEDF" transform="translate(56,90)"/>
<path d="M0 0 C3.16115776 1.36983503 3.9927092 1.9890638 6 5 C5.01 5.495 5.01 5.495 4 6 C3.34 5.34 2.68 4.68 2 4 C-0.58354218 3.83312552 -0.58354218 3.83312552 -3 4 C-3.33 4.99 -3.66 5.98 -4 7 C-5.65 6.01 -7.3 5.02 -9 4 C-8.01 4 -7.02 4 -6 4 C-3.82967524 2.56009377 -3.82967524 2.56009377 -2 1 C-1.67 1.33 -1.34 1.66 -1 2 C-0.67 1.34 -0.34 0.68 0 0 Z " fill="#076C95" transform="translate(157,76)"/>
<path d="M0 0 C-3.49119779 2.32746519 -6.90592349 4.01972816 -11 5 C-13.5 4.1875 -13.5 4.1875 -15 3 C-10.27805833 -0.77755334 -5.74071928 -0.30096975 0 0 Z " fill="#04B2E1" transform="translate(77,48)"/>
<path d="M0 0 C0.33 1.32 0.66 2.64 1 4 C1.99 3.67 2.98 3.34 4 3 C3.67 4.98 3.34 6.96 3 9 C2.01 9.33 1.02 9.66 0 10 C-1.49106457 7.01787087 -1.11941467 4.28390342 -1 1 C-0.67 0.67 -0.34 0.34 0 0 Z " fill="#02A4D2" transform="translate(181,115)"/>
<path d="M0 0 C2.10353495 -0.0810206 4.20795952 -0.13919907 6.3125 -0.1875 C7.48425781 -0.22230469 8.65601562 -0.25710937 9.86328125 -0.29296875 C13 0 13 0 14.91796875 1.51171875 C15.27503906 2.00285156 15.63210937 2.49398437 16 3 C15 4 15 4 11.4375 4.0625 C10.303125 4.041875 9.16875 4.02125 8 4 C8 3.34 8 2.68 8 2 C5.36 1.67 2.72 1.34 0 1 C0 0.67 0 0.34 0 0 Z " fill="#DAF7FA" transform="translate(88,91)"/>
<path d="M0 0 C2 1.3125 2 1.3125 4 3 C4 3.99 4 4.98 4 6 C4.66 6 5.32 6 6 6 C6.33 8.31 6.66 10.62 7 13 C4.88132232 10.95609917 3.00991116 8.86035143 1.25 6.5 C0.80140625 5.9121875 0.3528125 5.324375 -0.109375 4.71875 C-0.40328125 4.1515625 -0.6971875 3.584375 -1 3 C-0.67 2.01 -0.34 1.02 0 0 Z " fill="#16B9E0" transform="translate(51,113)"/>
<path d="M0 0 C2.32240046 2.85021875 3.93906527 5.46355091 5 9 C4.625 11.3125 4.625 11.3125 4 13 C3.01 12.67 2.02 12.34 1 12 C0.15545644 8.62182575 -0.10844919 6.32534757 1 3 C0.34 3 -0.32 3 -1 3 C-0.67 2.01 -0.34 1.02 0 0 Z " fill="#199CC4" transform="translate(181,107)"/>
<path d="M0 0 C2.75 0.8125 2.75 0.8125 5 2 C4.01 2.495 4.01 2.495 3 3 C2.34786708 5.02463255 2.34786708 5.02463255 2 7 C0.02 5.68 -1.96 4.36 -4 3 C-2.3125 1.375 -2.3125 1.375 0 0 Z " fill="#EBF3F4" transform="translate(153,65)"/>
<path d="M0 0 C0.66 0.33 1.32 0.66 2 1 C2 5.95 2 10.9 2 16 C-0.16066331 12.75900504 -0.37886905 11.23720241 -0.6875 7.4375 C-0.77386719 6.46683594 -0.86023438 5.49617187 -0.94921875 4.49609375 C-1 2 -1 2 0 0 Z " fill="#04ADE3" transform="translate(186,126)"/>
<path d="M0 0 C4.29 0 8.58 0 13 0 C12.67 1.32 12.34 2.64 12 4 C6.06 2.515 6.06 2.515 0 1 C0 0.67 0 0.34 0 0 Z " fill="#1F9FBF" transform="translate(128,177)"/>
<path d="M0 0 C1.2380014 3.57644848 0.74926071 6.33694766 0 10 C-1.65 10 -3.3 10 -5 10 C-3.84414715 6.08788267 -2.64465038 3.1254959 0 0 Z " fill="#EAFAFA" transform="translate(186,166)"/>
<path d="M0 0 C0.66 0.66 1.32 1.32 2 2 C0.3970947 2.81498562 -1.20737278 3.62689927 -2.8125 4.4375 C-3.70582031 4.88996094 -4.59914063 5.34242187 -5.51953125 5.80859375 C-8 7 -8 7 -11 8 C-11 7.01 -11 6.02 -11 5 C-10.34 5 -9.68 5 -9 5 C-9 4.34 -9 3.68 -9 3 C-6.03 2.01 -3.06 1.02 0 0 Z " fill="#D3EEF1" transform="translate(57,48)"/>
<path d="M0 0 C0 3.38023517 -0.87455622 5.83468937 -2 9 C-4.475 8.01 -4.475 8.01 -7 7 C-7 6.34 -7 5.68 -7 5 C-5.03277992 3.61876037 -3.03131672 2.28511874 -1 1 C-0.67 0.67 -0.34 0.34 0 0 Z " fill="#D8F3F8" transform="translate(114,107)"/>
<path d="M0 0 C0.33 0.66 0.66 1.32 1 2 C3.02463255 2.65213292 3.02463255 2.65213292 5 3 C5 5.31 5 7.62 5 10 C4.01 10 3.02 10 2 10 C1.67 9.01 1.34 8.02 1 7 C1.33 6.67 1.66 6.34 2 6 C1.01 5.01 0.02 4.02 -1 3 C-0.67 2.01 -0.34 1.02 0 0 Z " fill="#E6F4F9" transform="translate(116,104)"/>
<path d="M0 0 C4.455 0.99 4.455 0.99 9 2 C8.01 3.485 8.01 3.485 7 5 C3.875 5.1875 3.875 5.1875 1 5 C1 4.34 1 3.68 1 3 C0.01 3.33 -0.98 3.66 -2 4 C-2 3.34 -2 2.68 -2 2 C-1.34 2 -0.68 2 0 2 C0 1.34 0 0.68 0 0 Z " fill="#EDF8FB" transform="translate(129,178)"/>
<path d="M0 0 C0.33 0.99 0.66 1.98 1 3 C1.66 3 2.32 3 3 3 C3 2.01 3 1.02 3 0 C3.66 0 4.32 0 5 0 C3.5682479 5.01113235 1.01554307 6.94469549 -3 10 C-3.66 9.67 -4.32 9.34 -5 9 C-4.0409375 8.443125 -4.0409375 8.443125 -3.0625 7.875 C-0.36141928 5.41947207 -0.31592995 3.55421195 0 0 Z " fill="#16B0D4" transform="translate(112,102)"/>
<path d="M0 0 C1.98 0.66 3.96 1.32 6 2 C6 2.99 6 3.98 6 5 C2.37471432 5.20140476 0.13498292 4.85776765 -3 3 C-2.01 2.67 -1.02 2.34 0 2 C0 1.34 0 0.68 0 0 Z " fill="#EFF8F9" transform="translate(104,57)"/>
<path d="M0 0 C2.64 0.33 5.28 0.66 8 1 C7.67 2.65 7.34 4.3 7 6 C4.0280615 4.87548273 1.66559313 3.77706209 -1 2 C-0.67 1.34 -0.34 0.68 0 0 Z " fill="#ECF3F1" transform="translate(126,50)"/>
<path d="M0 0 C0.33 0 0.66 0 1 0 C1 2.64 1 5.28 1 8 C0.67 7.34 0.34 6.68 0 6 C-0.66 6 -1.32 6 -2 6 C-2 5.34 -2 4.68 -2 4 C-4.31 4 -6.62 4 -9 4 C-8.67 3.01 -8.34 2.02 -8 1 C-5.36 1.66 -2.72 2.32 0 3 C0 2.01 0 1.02 0 0 Z " fill="#0D93B2" transform="translate(80,134)"/>
<path d="M0 0 C-0.598125 0.28875 -1.19625 0.5775 -1.8125 0.875 C-4.19327792 2.04742026 -4.19327792 2.04742026 -7 4 C-10.1875 3.625 -10.1875 3.625 -13 3 C-13 2.34 -13 1.68 -13 1 C-8.61414671 0.29826347 -4.44209357 -0.10834375 0 0 Z " fill="#20B5E2" transform="translate(72,54)"/>
<path d="M0 0 C0.33 0 0.66 0 1 0 C0.67 3.63 0.34 7.26 0 11 C-1.32 11 -2.64 11 -4 11 C-4 9.35 -4 7.7 -4 6 C-3.67 6.66 -3.34 7.32 -3 8 C-2.34 8 -1.68 8 -1 8 C-1.33 7.01 -1.66 6.02 -2 5 C-1.0625 2.3125 -1.0625 2.3125 0 0 Z " fill="#16A7CD" transform="translate(86,98)"/>
<path d="M0 0 C4.95 0.99 4.95 0.99 10 2 C10 2.99 10 3.98 10 5 C8.02 5 6.04 5 4 5 C4 4.01 4 3.02 4 2 C2.68 2 1.36 2 0 2 C0 1.34 0 0.68 0 0 Z " fill="#0CADD3" transform="translate(84,49)"/>
<path d="M0 0 C1.67542976 0.28604898 3.34385343 0.61781233 5 1 C5 1.66 5 2.32 5 3 C5.66 3.33 6.32 3.66 7 4 C4.98177083 3.96744792 2.96354167 3.93489583 0.9453125 3.90234375 C-1.08185404 3.87350758 -1.08185404 3.87350758 -3 5 C-1.125 1.125 -1.125 1.125 0 0 Z " fill="#044B72" transform="translate(165,160)"/>
<path d="M0 0 C0.66 0.33 1.32 0.66 2 1 C1.34 4.3 0.68 7.6 0 11 C-0.99 11.33 -1.98 11.66 -3 12 C-2.68950274 10.56206608 -2.3765224 9.1246682 -2.0625 7.6875 C-1.88847656 6.88699219 -1.71445313 6.08648437 -1.53515625 5.26171875 C-1 3 -1 3 0 0 Z " fill="#0F89A6" transform="translate(186,154)"/>
<path d="M0 0 C0.33 0 0.66 0 1 0 C1 5.61 1 11.22 1 17 C0.01 17.33 -0.98 17.66 -2 18 C-1.34 12.06 -0.68 6.12 0 0 Z " fill="#2FB5D1" transform="translate(77,82)"/>
<path d="M0 0 C2.375 0.6875 2.375 0.6875 5 2 C6.3125 4.625 6.3125 4.625 7 7 C6.01 7 5.02 7 4 7 C0 2.65714286 0 2.65714286 0 0 Z " fill="#62C0E9" transform="translate(59,110)"/>
<path d="M0 0 C1.32 0.33 2.64 0.66 4 1 C4 2.98 4 4.96 4 7 C2.68 6.67 1.36 6.34 0 6 C0 4.02 0 2.04 0 0 Z " fill="#3496BA" transform="translate(51,77)"/>
<path d="M0 0 C2.475 0.99 2.475 0.99 5 2 C4.01 3.485 4.01 3.485 3 5 C3.33 5.66 3.66 6.32 4 7 C-1.75 5.25 -1.75 5.25 -4 3 C-1.525 3.495 -1.525 3.495 1 4 C0.67 2.68 0.34 1.36 0 0 Z " fill="#BEE2E7" transform="translate(120,58)"/>
<path d="M0 0 C0.66 0.33 1.32 0.66 2 1 C2 1.66 2 2.32 2 3 C0.56465159 3.2226746 -0.87345525 3.42761906 -2.3125 3.625 C-3.11300781 3.74101562 -3.91351563 3.85703125 -4.73828125 3.9765625 C-7 4 -7 4 -10 2 C-6.42355152 0.7619986 -3.66305234 1.25073929 0 2 C0 1.34 0 0.68 0 0 Z " fill="#E1EBEA" transform="translate(150,167)"/>
<path d="M0 0 C0.99 0 1.98 0 3 0 C1.4169423 4.2742558 -1.50568404 6.26531794 -5 9 C-5.33 8.34 -5.66 7.68 -6 7 C-4.625 5.5 -4.625 5.5 -3 4 C-2.34 4 -1.68 4 -1 4 C-0.67 2.68 -0.34 1.36 0 0 Z " fill="#DEEFF5" transform="translate(166,155)"/>
<path d="M0 0 C0.99 0 1.98 0 3 0 C2.67 3.96 2.34 7.92 2 12 C1.67 12 1.34 12 1 12 C0.67 8.04 0.34 4.08 0 0 Z " fill="#D4F2F3" transform="translate(99,128)"/>
<path d="M0 0 C0.66 0.33 1.32 0.66 2 1 C2 3.31 2 5.62 2 8 C0.68 7.67 -0.64 7.34 -2 7 C-2 6.01 -2 5.02 -2 4 C-1.34 4 -0.68 4 0 4 C0 2.68 0 1.36 0 0 Z " fill="#4FAED2" transform="translate(54,84)"/>
<path d="M0 0 C2.31 0 4.62 0 7 0 C7.33 0.66 7.66 1.32 8 2 C6.68 2 5.36 2 4 2 C4 2.66 4 3.32 4 4 C2.68 3.67 1.36 3.34 0 3 C0 2.01 0 1.02 0 0 Z " fill="#099BBC" transform="translate(136,173)"/>
<path d="M0 0 C0.33 2.31 0.66 4.62 1 7 C0.34 7 -0.32 7 -1 7 C-1 6.34 -1 5.68 -1 5 C-2.32 4.34 -3.64 3.68 -5 3 C-2.25 0 -2.25 0 0 0 Z " fill="#0D5278" transform="translate(171,156)"/>
<path d="M0 0 C2.875 -0.1875 2.875 -0.1875 6 0 C6.66 0.99 7.32 1.98 8 3 C7.67 3.99 7.34 4.98 7 6 C5.83054208 5.19152271 4.66449539 4.37810888 3.5 3.5625 C2.8503125 3.11003906 2.200625 2.65757812 1.53125 2.19140625 C1.0259375 1.79824219 0.520625 1.40507812 0 1 C0 0.67 0 0.34 0 0 Z " fill="#20AFD1" transform="translate(83,152)"/>
<path d="M0 0 C1.485 0.99 1.485 0.99 3 2 C3 3.32 3 4.64 3 6 C3.99 6.33 4.98 6.66 6 7 C4.35 7.33 2.7 7.66 1 8 C0.34 6.68 -0.32 5.36 -1 4 C-0.34 4 0.32 4 1 4 C0.67 2.68 0.34 1.36 0 0 Z " fill="#D6F4F6" transform="translate(66,136)"/>
<path d="M0 0 C3.0916909 2.52956528 3.90931332 5.22454612 5 9 C4.34 9.66 3.68 10.32 3 11 C2.67 8.69 2.34 6.38 2 4 C1.34 4 0.68 4 0 4 C0 2.68 0 1.36 0 0 Z " fill="#81D3EE" transform="translate(61,103)"/>
<path d="M0 0 C2.31 0 4.62 0 7 0 C6.0409375 0.86625 6.0409375 0.86625 5.0625 1.75 C3.01776132 3.98062401 2.41794801 5.07436391 2 8 C1.34 7.67 0.68 7.34 0 7 C0.2784375 6.1028125 0.2784375 6.1028125 0.5625 5.1875 C1.22093687 2.83591238 1.22093687 2.83591238 0 0 Z " fill="#0EB6E3" transform="translate(105,107)"/>
<path d="M0 0 C2.31 0 4.62 0 7 0 C7 0.99 7 1.98 7 3 C5.35 3.33 3.7 3.66 2 4 C2 3.34 2 2.68 2 2 C1.34 2 0.68 2 0 2 C0 1.34 0 0.68 0 0 Z " fill="#D8ECF2" transform="translate(117,91)"/>
<path d="M0 0 C0.98120464 3.05263664 0.98120464 4.94736336 0 8 C-0.99 8 -1.98 8 -3 8 C-2.25 2.25 -2.25 2.25 0 0 Z " fill="#1475A1" transform="translate(57,62)"/>
<path d="M0 0 C1.42944945 2.35438733 2.08661261 3.48032433 1.625 6.25 C1.41875 6.8275 1.2125 7.405 1 8 C-0.32 8 -1.64 8 -3 8 C-2.690625 7.236875 -2.38125 6.47375 -2.0625 5.6875 C-1.32106407 3.81210323 -0.63771783 1.91315348 0 0 Z " fill="#E3F5F7" transform="translate(190,158)"/>
<path d="M0 0 C2.31 0.33 4.62 0.66 7 1 C7.33 2.32 7.66 3.64 8 5 C4.62496331 3.8141763 2.35277269 2.72426311 0 0 Z " fill="#E7F5F6" transform="translate(108,154)"/>
<path d="M0 0 C2 3 2 3 1.625 5.1875 C1.41875 5.785625 1.2125 6.38375 1 7 C-0.65 5.02 -2.3 3.04 -4 1 C-2 0 -2 0 0 0 Z " fill="#DCEFF4" transform="translate(164,76)"/>
<path d="M0 0 C0.66 0.33 1.32 0.66 2 1 C0.68 3.64 -0.64 6.28 -2 9 C-3 5 -3 5 -1.5625 2.25 C-1.046875 1.5075 -0.53125 0.765 0 0 Z " fill="#DEEDEF" transform="translate(172,146)"/>
<path d="M0 0 C1.32 0.33 2.64 0.66 4 1 C4.33 2.98 4.66 4.96 5 7 C3.29115995 5.37660195 1.62553283 3.70680947 0 2 C0 1.34 0 0.68 0 0 Z " fill="#E4F8F8" transform="translate(67,112)"/>
<path d="M0 0 C0.66 0 1.32 0 2 0 C2.66 1.65 3.32 3.3 4 5 C2.02 5 0.04 5 -2 5 C-1.125 1.125 -1.125 1.125 0 0 Z " fill="#EFF5F8" transform="translate(163,102)"/>
<path d="M0 0 C0.66 0.33 1.32 0.66 2 1 C2.73075648 3.3140622 3.40138258 5.64828869 4 8 C4.66 8 5.32 8 6 8 C5.67 8.99 5.34 9.98 5 11 C2.47650757 7.87567603 0.72743854 4.61939504 -1 1 C-0.67 0.67 -0.34 0.34 0 0 Z " fill="#DEF5F3" transform="translate(177,96)"/>
<path d="M0 0 C0.33 0.99 0.66 1.98 1 3 C0.01 4.485 0.01 4.485 -1 6 C-2.32 4.35 -3.64 2.7 -5 1 C-3 0 -3 0 0 0 Z " fill="#E0F2F7" transform="translate(160,71)"/>
<path d="M0 0 C-2.40820361 2.40820361 -3.65022937 2.68097423 -7 3 C-9.3125 2.0625 -9.3125 2.0625 -11 1 C-3.57142857 -1.42857143 -3.57142857 -1.42857143 0 0 Z " fill="#27C1E5" transform="translate(67,49)"/>
<path d="M0 0 C3.875 1.75 3.875 1.75 5 4 C4.67 4.66 4.34 5.32 4 6 C3.34 6 2.68 6 2 6 C2 5.34 2 4.68 2 4 C1.34 4 0.68 4 0 4 C0 2.68 0 1.36 0 0 Z " fill="#4AA9CF" transform="translate(82,135)"/>
<path d="M0 0 C2.88575819 0.39803561 3.82189513 0.79009069 5.75 3.0625 C6.1625 3.701875 6.575 4.34125 7 5 C6.67 5.66 6.34 6.32 6 7 C5.34 5.68 4.68 4.36 4 3 C2.68 3 1.36 3 0 3 C0 2.01 0 1.02 0 0 Z " fill="#1C86A7" transform="translate(167,88)"/>
<path d="M0 0 C0 0.99 0 1.98 0 3 C-2.375 3.625 -2.375 3.625 -5 4 C-5.66 3.34 -6.32 2.68 -7 2 C-4 0 -4 0 0 0 Z " fill="#064E76" transform="translate(101,44)"/>
<path d="M0 0 C0.66 0.33 1.32 0.66 2 1 C1.67 2.65 1.34 4.3 1 6 C-0.65 6 -2.3 6 -4 6 C-2.68 4.02 -1.36 2.04 0 0 Z " fill="#2E95B1" transform="translate(184,156)"/>
<path d="M0 0 C2.64 1.65 5.28 3.3 8 5 C5 6 5 6 2.875 5.3125 C1 4 1 4 0 0 Z " fill="#4697B3" transform="translate(101,150)"/>
<path d="M0 0 C0.99 0 1.98 0 3 0 C2.67 3.3 2.34 6.6 2 10 C1.67 10 1.34 10 1 10 C0.67 6.7 0.34 3.4 0 0 Z " fill="#1FA0B8" transform="translate(81,119)"/>
<path d="M0 0 C0.33 0 0.66 0 1 0 C0.67 3.63 0.34 7.26 0 11 C-0.33 11 -0.66 11 -1 11 C-1.66 8.03 -2.32 5.06 -3 2 C-2.34 2 -1.68 2 -1 2 C-0.67 1.34 -0.34 0.68 0 0 Z " fill="#E9F6FC" transform="translate(115,115)"/>
<path d="M0 0 C1.98 0 3.96 0 6 0 C6 0.66 6 1.32 6 2 C3.69 2.66 1.38 3.32 -1 4 C-0.67 2.68 -0.34 1.36 0 0 Z " fill="#B1E1E3" transform="translate(110,59)"/>
</svg>
