<?xml version="1.0" encoding="UTF-8"?>
<svg version="1.1" xmlns="http://www.w3.org/2000/svg" width="225" height="225">
<path d="M0 0 C0.64807617 0.22300781 1.29615234 0.44601563 1.96386719 0.67578125 C2.65061523 0.90652344 3.33736328 1.13726562 4.04492188 1.375 C20.1081377 6.94299228 37.56107185 16.8476365 48.96386719 29.67578125 C48.96386719 30.33578125 48.96386719 30.99578125 48.96386719 31.67578125 C50.44886719 32.17078125 50.44886719 32.17078125 51.96386719 32.67578125 C60.92544786 40.94086601 68.01439577 52.6510763 72.96386719 63.67578125 C73.28226563 64.34609375 73.60066406 65.01640625 73.92871094 65.70703125 C75.44866117 69.01309812 75.96386719 70.95187168 75.96386719 74.67578125 C76.95386719 74.67578125 77.94386719 74.67578125 78.96386719 74.67578125 C85.04477142 83.7971376 84.46390167 93.2376859 82.96386719 103.67578125 C80.48582002 115.80567749 75.66417824 124.99458723 65.27636719 132.05078125 C53.9973254 139.22288952 39.78608901 139.40362025 26.89550781 136.54882812 C3.15669139 130.61993666 -16.40847712 118.29088881 -34.67358398 102.30517578 C-36.78013595 100.47832508 -38.67661186 98.84077569 -41.22363281 97.671875 C-43.82064791 96.2446361 -44.59890327 94.23375196 -46.03613281 91.67578125 C-47.38575741 90.00907617 -48.76295841 88.36447334 -50.16113281 86.73828125 C-63.36468592 70.72682967 -74.97211916 51.21050313 -74.38378906 29.8515625 C-73.52701185 22.0250471 -70.84221802 15.71991817 -65.30566406 10.11328125 C-63.78832923 8.58397604 -63.78832923 8.58397604 -63.03613281 5.67578125 C-60.30566406 3.88671875 -60.30566406 3.88671875 -56.84863281 2.05078125 C-55.72070312 1.43976562 -54.59277344 0.82875 -53.43066406 0.19921875 C-50.19535363 -1.25276177 -47.52737267 -1.86949865 -44.03613281 -2.32421875 C-32.9590695 -7.86275041 -11.58023879 -3.81136582 0 0 Z M-48.03613281 2.67578125 C-47.12734375 2.64097656 -46.21855469 2.60617188 -45.28222656 2.5703125 C-28.82343264 2.2158154 -12.75579164 5.78024471 2.15917969 12.84375 C4.1282825 13.79170978 4.1282825 13.79170978 6.96386719 14.67578125 C7.45886719 15.66578125 7.45886719 15.66578125 7.96386719 16.67578125 C9.98056546 17.80928659 9.98056546 17.80928659 11.96386719 18.67578125 C9.98386719 18.67578125 8.00386719 18.67578125 5.96386719 18.67578125 C5.96386719 18.01578125 5.96386719 17.35578125 5.96386719 16.67578125 C-18.24016929 7.7715399 -18.24016929 7.7715399 -43.03613281 10.67578125 C-49.02941329 14.48140041 -52.33653207 18.80595773 -54.40722656 25.59375 C-57.34200199 39.97597243 -52.77562475 51.0519646 -45.91113281 63.42578125 C-45.5746875 64.03486328 -45.23824219 64.64394531 -44.89160156 65.27148438 C-42.80790254 68.92760919 -42.80790254 68.92760919 -39.03613281 70.67578125 C-38.38528938 66.71825514 -37.74138941 62.75962814 -37.09863281 58.80078125 C-36.91623047 57.6921875 -36.73382813 56.58359375 -36.54589844 55.44140625 C-35.48205382 48.86491224 -34.59860393 42.31463064 -34.03613281 35.67578125 C-33.30128662 35.71131104 -32.56644043 35.74684082 -31.80932617 35.78344727 C-9.17228237 36.82337281 13.32267667 36.46515314 35.96386719 35.67578125 C26.27064354 18.75854409 1.52991697 7.33595121 -16.47363281 1.86328125 C-22.30914253 0.49570507 -28.07110588 0.39426708 -34.03613281 0.36328125 C-34.9570874 0.35772217 -35.87804199 0.35216309 -36.8269043 0.34643555 C-41.18144306 0.39343131 -44.18797927 0.47394055 -48.03613281 2.67578125 Z M-21.03613281 46.67578125 C-23.06832769 50.07929463 -23.40504321 52.99907395 -23.66113281 56.92578125 C-23.73589844 58.0034375 -23.81066406 59.08109375 -23.88769531 60.19140625 C-23.93667969 61.01125 -23.98566406 61.83109375 -24.03613281 62.67578125 C-15.59907023 63.13308751 -15.59907023 63.13308751 -8.03613281 59.67578125 C-5.81625095 56.97331638 -6.03968849 55.60703821 -6.22363281 52.05078125 C-6.69538184 48.41248077 -6.69538184 48.41248077 -10.03613281 46.67578125 C-12.78131602 46.43390474 -12.78131602 46.43390474 -15.72363281 46.55078125 C-16.7175 46.56882813 -17.71136719 46.586875 -18.73535156 46.60546875 C-19.49460937 46.62867188 -20.25386719 46.651875 -21.03613281 46.67578125 Z M6.96386719 46.67578125 C6.92648438 47.495625 6.88910156 48.31546875 6.85058594 49.16015625 C6.78484375 50.2378125 6.71910156 51.31546875 6.65136719 52.42578125 C6.59335938 53.493125 6.53535156 54.56046875 6.47558594 55.66015625 C5.92725813 58.8915232 5.0326145 60.21325094 2.96386719 62.67578125 C2.96386719 63.33578125 2.96386719 63.99578125 2.96386719 64.67578125 C1.31386719 65.33578125 -0.33613281 65.99578125 -2.03613281 66.67578125 C-1.37613281 67.99578125 -0.71613281 69.31578125 -0.03613281 70.67578125 C0.62386719 70.67578125 1.28386719 70.67578125 1.96386719 70.67578125 C3.19789581 75.44671081 3.07651831 80.10047571 3.02636719 84.98828125 C3.02185547 85.82423828 3.01734375 86.66019531 3.01269531 87.52148438 C3.00097266 89.57294774 2.98303922 91.62437398 2.96386719 93.67578125 C3.62386719 94.00578125 4.28386719 94.33578125 4.96386719 94.67578125 C8.9856798 70.7490351 8.9856798 70.7490351 11.96386719 46.67578125 C10.31386719 46.67578125 8.66386719 46.67578125 6.96386719 46.67578125 Z M43.96386719 44.67578125 C43.30386719 45.00578125 42.64386719 45.33578125 41.96386719 45.67578125 C39.08476131 45.90852334 36.22240223 46.09550882 33.33886719 46.23828125 C32.13617188 46.30305664 32.13617188 46.30305664 30.90917969 46.36914062 C28.92761608 46.47529582 26.94576448 46.5760498 24.96386719 46.67578125 C22.85518408 60.46049133 20.76817446 74.22567984 19.35839844 88.1015625 C19.00298743 91.3213751 18.53231328 94.4875401 17.96386719 97.67578125 C16.76890625 97.60359375 15.57394531 97.53140625 14.34277344 97.45703125 C12.73731267 97.36314466 11.13184346 97.2694024 9.52636719 97.17578125 C8.74326172 97.12808594 7.96015625 97.08039063 7.15332031 97.03125 C3.0687071 96.79592249 -0.97935388 96.66162836 -5.07128906 96.70703125 C-9.03613281 96.67578125 -9.03613281 96.67578125 -10.03613281 95.67578125 C-10.08645824 94.29388236 -10.07189963 92.90947183 -10.02832031 91.52734375 C-10.0115625 90.686875 -9.99480469 89.84640625 -9.97753906 88.98046875 C-9.93345647 87.20160664 -9.88144053 85.42292251 -9.82128906 83.64453125 C-9.80710937 82.80148438 -9.79292969 81.9584375 -9.77832031 81.08984375 C-9.75624512 80.31592285 -9.73416992 79.54200195 -9.71142578 78.74462891 C-10.12565563 76.10539298 -10.91086779 75.25241121 -13.03613281 73.67578125 C-16.2021354 73.27433681 -16.2021354 73.27433681 -19.66113281 73.42578125 C-20.82902344 73.44125 -21.99691406 73.45671875 -23.20019531 73.47265625 C-25.93615815 73.35754572 -25.93615815 73.35754572 -27.03613281 74.67578125 C-28.53188585 79.20639552 -28.89381776 82.97076667 -28.03613281 87.67578125 C-16.82872528 106.44354213 11.39651862 119.09985513 31.57324219 124.35546875 C42.26820039 126.78010213 51.80864029 126.13417355 61.96386719 121.67578125 C64.3018601 119.66349679 64.3018601 119.66349679 65.96386719 117.67578125 C62.86974793 118.15923738 60.3241796 118.9339008 57.40136719 120.11328125 C52.10483792 122.18716219 46.56960137 122.88163557 40.96386719 123.67578125 C40.96386719 122.68578125 40.96386719 121.69578125 40.96386719 120.67578125 C41.53363281 120.55332031 42.10339844 120.43085938 42.69042969 120.3046875 C50.50786858 118.14213138 55.99123519 113.66608563 59.96386719 106.67578125 C64.88575128 97.18623956 64.02334014 85.67171197 61.40136719 75.61328125 C59.05528791 68.21216067 55.63390553 61.49569503 51.96386719 54.67578125 C51.46886719 53.68578125 51.46886719 53.68578125 50.96386719 52.67578125 C50.30386719 52.67578125 49.64386719 52.67578125 48.96386719 52.67578125 C48.56167969 51.25265625 48.56167969 51.25265625 48.15136719 49.80078125 C47.21400131 46.42310852 47.21400131 46.42310852 43.96386719 44.67578125 Z M76.96386719 76.67578125 C77.96386719 79.67578125 77.96386719 79.67578125 77.96386719 79.67578125 Z M77.96386719 82.67578125 C77.96386719 84.65578125 77.96386719 86.63578125 77.96386719 88.67578125 C78.29386719 88.67578125 78.62386719 88.67578125 78.96386719 88.67578125 C78.96386719 86.69578125 78.96386719 84.71578125 78.96386719 82.67578125 C78.63386719 82.67578125 78.30386719 82.67578125 77.96386719 82.67578125 Z M77.96386719 90.67578125 C77.96386719 92.32578125 77.96386719 93.97578125 77.96386719 95.67578125 C78.29386719 95.67578125 78.62386719 95.67578125 78.96386719 95.67578125 C78.96386719 94.02578125 78.96386719 92.37578125 78.96386719 90.67578125 C78.63386719 90.67578125 78.30386719 90.67578125 77.96386719 90.67578125 Z M72.96386719 107.67578125 C73.96386719 109.67578125 73.96386719 109.67578125 73.96386719 109.67578125 Z M71.96386719 109.67578125 C70.97386719 111.16078125 70.97386719 111.16078125 69.96386719 112.67578125 C70.95386719 112.34578125 71.94386719 112.01578125 72.96386719 111.67578125 C72.63386719 111.01578125 72.30386719 110.35578125 71.96386719 109.67578125 Z M68.96386719 112.67578125 C69.96386719 114.67578125 69.96386719 114.67578125 69.96386719 114.67578125 Z M66.96386719 114.67578125 C66.63386719 115.66578125 66.30386719 116.65578125 65.96386719 117.67578125 C66.95386719 117.34578125 67.94386719 117.01578125 68.96386719 116.67578125 C68.96386719 116.01578125 68.96386719 115.35578125 68.96386719 114.67578125 C68.30386719 114.67578125 67.64386719 114.67578125 66.96386719 114.67578125 Z " fill="#1293B9" transform="translate(111.0361328125,45.32421875)"/>
<path d="M0 0 C0.64807617 0.22300781 1.29615234 0.44601563 1.96386719 0.67578125 C2.65061523 0.90652344 3.33736328 1.13726562 4.04492188 1.375 C20.1081377 6.94299228 37.56107185 16.8476365 48.96386719 29.67578125 C48.96386719 30.33578125 48.96386719 30.99578125 48.96386719 31.67578125 C50.44886719 32.17078125 50.44886719 32.17078125 51.96386719 32.67578125 C56.79216697 37.36379145 61.33160221 43.00785128 64.96386719 48.67578125 C64.96386719 49.33578125 64.96386719 49.99578125 64.96386719 50.67578125 C63.31386719 51.33578125 61.66386719 51.99578125 59.96386719 52.67578125 C59.96386719 51.68578125 59.96386719 50.69578125 59.96386719 49.67578125 C58.99449219 49.86140625 58.02511719 50.04703125 57.02636719 50.23828125 C56.01574219 50.38265625 55.00511719 50.52703125 53.96386719 50.67578125 C53.63386719 50.34578125 53.30386719 50.01578125 52.96386719 49.67578125 C53.49082133 54.2510815 55.29315225 56.83618101 58.02636719 60.48828125 C61.62524726 65.46553312 64.65938272 70.55462001 67.40136719 76.05078125 C67.73080322 76.70409424 68.06023926 77.35740723 68.3996582 78.03051758 C72.88058171 87.22278536 74.84292204 97.44220588 73.96386719 107.67578125 C72.71352369 111.0546857 71.67952211 112.21274539 68.96386719 114.67578125 C68.30386719 114.67578125 67.64386719 114.67578125 66.96386719 114.67578125 C66.46886719 116.16078125 66.46886719 116.16078125 65.96386719 117.67578125 C58.02319075 121.93543094 49.88874892 123.4988917 40.96386719 123.67578125 C40.96386719 122.68578125 40.96386719 121.69578125 40.96386719 120.67578125 C42.56677248 119.86079563 44.17123996 119.04888198 45.77636719 118.23828125 C46.6696875 117.78582031 47.56300781 117.33335937 48.48339844 116.8671875 C50.96386719 115.67578125 50.96386719 115.67578125 53.96386719 114.67578125 C54.45886719 113.19078125 54.45886719 113.19078125 54.96386719 111.67578125 C55.62386719 111.67578125 56.28386719 111.67578125 56.96386719 111.67578125 C57.65806282 110.02039167 58.31490483 108.34942102 58.96386719 106.67578125 C59.228125 106.07894531 59.49238281 105.48210937 59.76464844 104.8671875 C64.48426843 93.03458572 62.3844095 80.26296033 57.96386719 68.67578125 C56.44863543 65.39031531 54.85494077 62.18697689 53.13574219 59.00390625 C51.96386719 56.67578125 51.96386719 56.67578125 51.96386719 54.67578125 C51.30386719 54.34578125 50.64386719 54.01578125 49.96386719 53.67578125 C49.0413599 52.35352081 48.17159008 50.99384814 47.33886719 49.61328125 C46.89285156 48.87980469 46.44683594 48.14632812 45.98730469 47.390625 C45.64957031 46.82472656 45.31183594 46.25882813 44.96386719 45.67578125 C43.47886719 46.17078125 43.47886719 46.17078125 41.96386719 46.67578125 C40.62861002 46.75551601 39.28974636 46.78349463 37.95214844 46.7734375 C36.81616211 46.76860352 36.81616211 46.76860352 35.65722656 46.76367188 C34.47870117 46.75110352 34.47870117 46.75110352 33.27636719 46.73828125 C32.08043945 46.73151367 32.08043945 46.73151367 30.86035156 46.72460938 C28.89482462 46.71283975 26.92933634 46.69490473 24.96386719 46.67578125 C24.91415771 47.42351807 24.86444824 48.17125488 24.81323242 48.94165039 C24.21631472 57.32722694 23.33234223 65.65934594 22.28930664 73.9987793 C22.02372986 76.13449004 21.76809683 78.2712545 21.51269531 80.40820312 C21.3420723 81.78783487 21.17086961 83.16739508 20.99902344 84.546875 C20.84828369 85.7733374 20.69754395 86.9997998 20.54223633 88.26342773 C19.96386719 91.67578125 19.96386719 91.67578125 17.96386719 97.67578125 C13.67386719 97.67578125 9.38386719 97.67578125 4.96386719 97.67578125 C3.74725375 94.02594093 4.22393207 91.98621529 4.85449219 88.19921875 C4.95891129 87.5604631 5.06333038 86.92170746 5.1709137 86.26359558 C5.51154508 84.19142526 5.86251124 82.1211576 6.21386719 80.05078125 C6.44837943 78.63802967 6.68234721 77.22518761 6.91577148 75.81225586 C8.52896177 66.08780573 10.20866526 56.37558137 11.96386719 46.67578125 C6.68386719 46.34578125 1.40386719 46.01578125 -4.03613281 45.67578125 C-3.54113281 40.72578125 -3.54113281 40.72578125 -3.03613281 35.67578125 C9.50386719 35.34578125 22.04386719 35.01578125 34.96386719 34.67578125 C32.82902679 30.40610045 32.81407481 30.46883823 28.96386719 28.67578125 C26.56689203 26.6387614 24.28644016 24.50183775 21.98730469 22.35546875 C20.14568175 20.46287385 20.14568175 20.46287385 17.96386719 20.67578125 C16.61784303 19.3552607 15.28631671 18.01991027 13.96386719 16.67578125 C6.3862159 11.16213784 -2.27915666 7.80723158 -11.03613281 4.67578125 C-11.99003906 4.33160156 -12.94394531 3.98742188 -13.92675781 3.6328125 C-25.76018077 0.03207094 -39.90343229 0.66261192 -52.03613281 2.67578125 C-53.7094732 3.6645733 -55.37765104 4.66226461 -57.03613281 5.67578125 C-59.17675781 5.26171875 -59.17675781 5.26171875 -61.03613281 4.67578125 C-59.33420897 3.68551595 -57.6242527 2.70904919 -55.91113281 1.73828125 C-54.95980469 1.19300781 -54.00847656 0.64773437 -53.02832031 0.0859375 C-49.9640194 -1.35820431 -47.37393218 -1.87508144 -44.03613281 -2.32421875 C-32.9590695 -7.86275041 -11.58023879 -3.81136582 0 0 Z " fill="#085C83" transform="translate(111.0361328125,45.32421875)"/>
<path d="M0 0 C0.84965332 0.00418945 1.69930664 0.00837891 2.57470703 0.01269531 C19.70614051 0.3145425 36.05062855 5.66203686 51.25 13.3125 C51.25 13.9725 51.25 14.6325 51.25 15.3125 C51.889375 15.43625 52.52875 15.56 53.1875 15.6875 C53.868125 15.89375 54.54875 16.1 55.25 16.3125 C55.745 17.3025 55.745 17.3025 56.25 18.3125 C53.94 17.9825 51.63 17.6525 49.25 17.3125 C49.25 16.6525 49.25 15.9925 49.25 15.3125 C48.2909375 15.43625 48.2909375 15.43625 47.3125 15.5625 C44.31137322 15.31751006 43.00274929 14.80642356 40.375 13.5 C28.99859945 8.18975323 15.6897752 6.95124594 3.375 8.9375 C-2.83198963 11.66857544 -6.54083834 14.98474202 -9.1875 21.3125 C-13.1090292 33.8954937 -10.72612733 44.78003704 -4.76025391 56.20849609 C-0.90845868 63.73158328 -0.90845868 63.73158328 4.25 70.3125 C4.26171875 72.59765625 4.26171875 72.59765625 3.9375 75.375 C3.82921875 76.35210937 3.7209375 77.32921875 3.609375 78.3359375 C3.49078125 79.31820312 3.3721875 80.30046875 3.25 81.3125 C3.06173305 83.04158333 2.87415014 84.77074139 2.6875 86.5 C2.543125 87.758125 2.39875 89.01625 2.25 90.3125 C-4.97425827 88.30445427 -8.01630988 85.43483543 -12.1875 79.3125 C-12.74099121 78.52085449 -13.29448242 77.72920898 -13.86474609 76.91357422 C-24.1896156 61.70285565 -32.81038114 44.13373448 -30.75 25.3125 C-29.2347133 18.694892 -26.79969283 13.59066995 -22.01953125 8.75 C-20.50219641 7.22069479 -20.50219641 7.22069479 -19.75 4.3125 C-18.0078125 3.65234375 -18.0078125 3.65234375 -15.875 3.25 C-10.10554939 2.132302 -6.18337189 -0.0411821 0 0 Z " fill="#0BB6E5" transform="translate(67.75,46.6875)"/>
<path d="M0 0 C3.93268867 -0.02473868 7.86534713 -0.04287835 11.7980957 -0.05493164 C13.79314768 -0.06242729 15.78817786 -0.07513345 17.78320312 -0.08789062 C19.03681641 -0.09111328 20.29042969 -0.09433594 21.58203125 -0.09765625 C22.73936768 -0.10289307 23.8967041 -0.10812988 25.08911133 -0.11352539 C28 0 28 0 31 1 C30.67 3.97 30.34 6.94 30 10 C33.63 10 37.26 10 41 10 C42.36821591 15.33604206 41.92914783 19.89011088 40 25 C37.4001194 28.19985305 35.90350005 29.69883332 32 31 C32.83015625 31.80179688 33.6603125 32.60359375 34.515625 33.4296875 C36.75674659 36.12886011 37.36036038 37.87751277 37.296875 41.3828125 C37.14402453 42.96665962 36.96097373 44.54784274 36.75 46.125 C36.66105469 47.32189453 36.66105469 47.32189453 36.5703125 48.54296875 C35.90721747 54.21716766 35.90721747 54.21716766 33.32617188 56.44433594 C31.390625 57.5546875 31.390625 57.5546875 28 59 C27.67 58.01 27.34 57.02 27 56 C26.34 55.01 25.68 54.02 25 53 C24.86439393 50.49976305 25.00268749 48.0700745 25.125 45.5703125 C24.98439767 42.67917711 24.20009397 40.61582983 23 38 C19.68794116 37.80407539 16.37534146 37.61967254 13.0625 37.4375 C12.11697266 37.38142578 11.17144531 37.32535156 10.19726562 37.26757812 C9.29814453 37.21923828 8.39902344 37.17089844 7.47265625 37.12109375 C6.64000244 37.0739624 5.80734863 37.02683105 4.94946289 36.97827148 C2.99407305 36.77286628 2.99407305 36.77286628 2 38 C0.515 38.495 0.515 38.495 -1 39 C-1.79869111 32.65519779 -2.18255604 26.45504354 -2.1875 20.0625 C-2.19974609 19.23298828 -2.21199219 18.40347656 -2.22460938 17.54882812 C-2.23873114 11.49058992 -1.38463374 5.89234223 0 0 Z M13 11 C10.96780512 14.40351338 10.63108961 17.3232927 10.375 21.25 C10.30023438 22.32765625 10.22546875 23.4053125 10.1484375 24.515625 C10.09945312 25.33546875 10.05046875 26.1553125 10 27 C18.43706258 27.45730626 18.43706258 27.45730626 26 24 C28.21988186 21.29753513 27.99644433 19.93125696 27.8125 16.375 C27.34075097 12.73669952 27.34075097 12.73669952 24 11 C21.25481679 10.75812349 21.25481679 10.75812349 18.3125 10.875 C17.31863281 10.89304687 16.32476562 10.91109375 15.30078125 10.9296875 C14.54152344 10.95289062 13.78226563 10.97609375 13 11 Z " fill="#09AEDD" transform="translate(77,81)"/>
<path d="M0 0 C0.78375 0.185625 1.5675 0.37125 2.375 0.5625 C4.97089775 1.25962266 4.97089775 1.25962266 7 0 C6.67 1.32 6.34 2.64 6 4 C6.99 4.33 7.98 4.66 9 5 C9 5.66 9 6.32 9 7 C9.99 7.33 10.98 7.66 12 8 C12 9.65 12 11.3 12 13 C13.98 13 15.96 13 18 13 C18 14.98 18 16.96 18 19 C18.99 19 19.98 19 21 19 C21.495 20.98 21.495 20.98 22 23 C21.01 22.67 20.02 22.34 19 22 C18.01 22.495 18.01 22.495 17 23 C14.11629667 23.07194869 11.25760336 23.09291708 8.375 23.0625 C7.57320312 23.05798828 6.77140625 23.05347656 5.9453125 23.04882812 C3.96350994 23.03703168 1.98174567 23.01909605 0 23 C-0.07456421 24.12160522 -0.07456421 24.12160522 -0.15063477 25.26586914 C-0.74755247 33.65144569 -1.63152496 41.98356469 -2.67456055 50.32299805 C-2.94013732 52.45870879 -3.19577036 54.59547325 -3.45117188 56.73242188 C-3.62179488 58.11205362 -3.79299758 59.49161383 -3.96484375 60.87109375 C-4.1155835 62.09755615 -4.26632324 63.32401855 -4.42163086 64.58764648 C-5 68 -5 68 -7 74 C-11.29 74 -15.58 74 -20 74 C-21.21661344 70.35015968 -20.73993512 68.31043404 -20.109375 64.5234375 C-20.0049559 63.88468185 -19.9005368 63.24592621 -19.79295349 62.58781433 C-19.45232211 60.51564401 -19.10135595 58.44537635 -18.75 56.375 C-18.51548776 54.96224842 -18.28151998 53.54940636 -18.0480957 52.13647461 C-16.43490542 42.41202448 -14.75520193 32.69980012 -13 23 C-18.28 22.67 -23.56 22.34 -29 22 C-28.67 18.7 -28.34 15.4 -28 12 C-15.46 11.67 -2.92 11.34 10 11 C8.51041667 7.02083333 8.51041667 7.02083333 6.125 6.0625 C3.26202511 4.63101256 1.87569549 2.54558673 0 0 Z " fill="#054F77" transform="translate(136,69)"/>
<path d="M0 0 C0.99 0 1.98 0 3 0 C3.495 0.99 3.495 0.99 4 2 C5.32 1.67 6.64 1.34 8 1 C8.495 1.99 8.495 1.99 9 3 C11.475 2.505 11.475 2.505 14 2 C24 19.83333333 24 19.83333333 24 26 C24.99 26 25.98 26 27 26 C33.08090423 35.12135635 32.50003448 44.56190465 31 55 C28.52195283 67.12989624 23.70031105 76.31880598 13.3125 83.375 C5.18188228 88.54509084 -1.65696396 89.07965762 -11.1875 89.125 C-11.87682617 89.12967285 -12.56615234 89.1343457 -13.27636719 89.13916016 C-16.97653943 89.12751312 -20.402683 88.88012027 -24 88 C-24 87.67 -24 87.34 -24 87 C-23.27409668 86.97494385 -22.54819336 86.9498877 -21.80029297 86.92407227 C-18.49170554 86.80758759 -15.18336624 86.68509986 -11.875 86.5625 C-10.73289063 86.52318359 -9.59078125 86.48386719 -8.4140625 86.44335938 C-7.30546875 86.40146484 -6.196875 86.35957031 -5.0546875 86.31640625 C-4.03874512 86.27974854 -3.02280273 86.24309082 -1.97607422 86.20532227 C1.06733757 85.99535432 4.00085508 85.54938704 7 85 C7 84.34 7 83.68 7 83 C7.66 83 8.32 83 9 83 C9 82.01 9 81.02 9 80 C3.8885209 79.20683945 0.10797715 79.08056411 -5 80 C-20.01337332 80.9416053 -34.3494565 75.79300717 -48 70 C-48 69.34 -48 68.68 -48 68 C-49.32 67.67 -50.64 67.34 -52 67 C-52 66.34 -52 65.68 -52 65 C-52.99 64.67 -53.98 64.34 -55 64 C-55 63.34 -55 62.68 -55 62 C-55.99 61.67 -56.98 61.34 -58 61 C-58.495 59.515 -58.495 59.515 -59 58 C-54.91484084 59.46900673 -51.21457967 61.45950929 -47.41381836 63.52929688 C-39.48452048 67.83830702 -31.7931444 71.75271792 -23 74 C-22.14277344 74.22171875 -21.28554687 74.4434375 -20.40234375 74.671875 C-8.6663176 77.35646831 3.19097305 76.46729778 13.6875 70 C15.97301349 68.02333969 16.85356041 66.73381748 18 64 C18.53625 63.484375 19.0725 62.96875 19.625 62.4375 C21.34561132 60.97021721 21.34561132 60.97021721 21 58 C20.54792911 38.49314094 14.4171667 21.59371621 1.21484375 6.89453125 C-0.3351318 4.47736681 -0.22859145 2.81605214 0 0 Z M25 28 C26 31 26 31 26 31 Z M26 34 C26 35.98 26 37.96 26 40 C26.33 40 26.66 40 27 40 C27 38.02 27 36.04 27 34 C26.67 34 26.34 34 26 34 Z M26 42 C26 43.65 26 45.3 26 47 C26.33 47 26.66 47 27 47 C27 45.35 27 43.7 27 42 C26.67 42 26.34 42 26 42 Z " fill="#168BB3" transform="translate(163,94)"/>
<path d="M0 0 C0.33 0 0.66 0 1 0 C1.66 6.93 2.32 13.86 3 21 C3.66 21 4.32 21 5 21 C5.33 19.68 5.66 18.36 6 17 C6.66 17.66 7.32 18.32 8 19 C9.90100201 19.33584186 9.90100201 19.33584186 12.0625 19.34375 C13.25746094 19.38822266 13.25746094 19.38822266 14.4765625 19.43359375 C15.72566406 19.46646484 15.72566406 19.46646484 17 19.5 C18.64608735 19.54331809 20.29198197 19.59500904 21.9375 19.65625 C22.66839844 19.67494141 23.39929688 19.69363281 24.15234375 19.71289062 C26 20 26 20 28 22 C29.34347072 25.84796553 28.9501023 29.55096731 28.7421875 33.5625 C29.05397195 36.51028021 30.06303787 37.8095088 32 40 C32.928125 39.505 32.928125 39.505 33.875 39 C36 38 36 38 38 38 C37.97679687 37.41992188 37.95359375 36.83984375 37.9296875 36.2421875 C37.81749577 31.38588834 38.12485085 27.57067605 40 23 C40.33 23 40.66 23 41 23 C40.98839844 24.26457031 40.97679687 25.52914062 40.96484375 26.83203125 C40.95546434 28.49218602 40.9463643 30.15234239 40.9375 31.8125 C40.92493164 33.06256836 40.92493164 33.06256836 40.91210938 34.33789062 C40.90888672 35.14033203 40.90566406 35.94277344 40.90234375 36.76953125 C40.89710693 37.50792236 40.89187012 38.24631348 40.88647461 39.00708008 C40.92476787 41.21057409 40.92476787 41.21057409 42 44 C37.45352102 45.1732849 32.66972706 45.54128467 28 45 C26 43 26 43 25.8046875 41.06054688 C25.82789063 40.28775391 25.85109375 39.51496094 25.875 38.71875 C25.89046875 37.87699219 25.9059375 37.03523438 25.921875 36.16796875 C25.97395833 34.38932292 26.02604167 32.61067708 26.078125 30.83203125 C26.09359375 29.99027344 26.1090625 29.14851563 26.125 28.28125 C26.14820313 27.50845703 26.17140625 26.73566406 26.1953125 25.93945312 C26.18248897 23.76069064 26.18248897 23.76069064 24 22 C20.87185486 21.75639927 20.87185486 21.75639927 17.375 21.875 C15.59222656 21.90207031 15.59222656 21.90207031 13.7734375 21.9296875 C12.40058594 21.96449219 12.40058594 21.96449219 11 22 C9.7182261 26.52695867 9.2346755 30.3349328 10 35 C13.99286513 41.48119771 20.63673896 46.44064495 26.875 50.625 C30.07657697 53.05819849 30.39925685 53.34933012 31 57 C32.32 57.33 33.64 57.66 35 58 C35 58.66 35 59.32 35 60 C35.99 60.495 35.99 60.495 37 61 C36.505 61.99 36.505 61.99 36 63 C32.62322616 62.41779761 31.36002282 61.39472904 29 59 C27.1706627 57.67990006 25.30446015 56.43215674 23.42578125 55.18359375 C22.95527344 54.79300781 22.48476562 54.40242188 22 54 C22 53.34 22 52.68 22 52 C20.02 51.67 18.04 51.34 16 51 C16 50.34 16 49.68 16 49 C15.360625 48.7525 14.72125 48.505 14.0625 48.25 C12 47 12 47 11.25 44.875 C11.1675 44.25625 11.085 43.6375 11 43 C9.741875 43.144375 8.48375 43.28875 7.1875 43.4375 C6.47980469 43.51871094 5.77210937 43.59992188 5.04296875 43.68359375 C2.80603607 43.97170735 2.80603607 43.97170735 0 45 C0.99 46.32 1.98 47.64 3 49 C1.65686601 48.35330586 0.32608822 47.68096422 -1 47 C-1.845625 46.566875 -2.69125 46.13375 -3.5625 45.6875 C-6.91557021 43.3661437 -8.21498809 40.57002382 -10 37 C-8.35 37.33 -6.7 37.66 -5 38 C-4.89042969 37.01644531 -4.78085938 36.03289062 -4.66796875 35.01953125 C-3.33906261 23.31229686 -1.71305994 11.65670346 0 0 Z " fill="#1598BE" transform="translate(74,98)"/>
<path d="M0 0 C8.91 0 17.82 0 27 0 C27 0.33 27 0.66 27 1 C26.32420898 1.02505615 25.64841797 1.0501123 24.95214844 1.07592773 C21.8845832 1.19210742 18.81730842 1.31473437 15.75 1.4375 C14.68652344 1.47681641 13.62304688 1.51613281 12.52734375 1.55664062 C10.99013672 1.61948242 10.99013672 1.61948242 9.421875 1.68359375 C8.47924805 1.72025146 7.53662109 1.75690918 6.56542969 1.79467773 C4.25748623 1.97939228 2.21859476 2.35861612 0 3 C0.08378906 4.04800781 0.16757813 5.09601563 0.25390625 6.17578125 C0.35708794 7.55466381 0.45993506 8.93357143 0.5625 10.3125 C0.61857422 11.00279297 0.67464844 11.69308594 0.73242188 12.40429688 C0.96581505 15.62512274 1.03224218 17.90327345 0 21 C1.37485532 22.54166642 1.37485532 22.54166642 3 24 C3.66 24 4.32 24 5 24 C5.33 22.68 5.66 21.36 6 20 C6.99 20.33 7.98 20.66 9 21 C9 18.03 9 15.06 9 12 C10.32 11.67 11.64 11.34 13 11 C12.01 16.28 11.02 21.56 10 27 C12.083125 26.71125 14.16625 26.4225 16.3125 26.125 C17.48425781 25.96257812 18.65601563 25.80015625 19.86328125 25.6328125 C24.10435688 24.77720322 25.60227294 23.59659059 28 20 C28.3125 22.25 28.3125 22.25 28 25 C25.5 27.3125 25.5 27.3125 23 29 C23.45375 29.391875 23.9075 29.78375 24.375 30.1875 C26.27642919 32.30832487 27.06204028 34.33042235 28 37 C28.99 36.505 28.99 36.505 30 36 C29.505 33.525 29.505 33.525 29 31 C29.99 30.67 30.98 30.34 32 30 C32.33 29.34 32.66 28.68 33 28 C33.66 28.66 34.32 29.32 35 30 C34.01 30.33 33.02 30.66 32 31 C32.83015625 31.80179688 33.6603125 32.60359375 34.515625 33.4296875 C36.75674659 36.12886011 37.36036038 37.87751277 37.296875 41.3828125 C37.14402453 42.96665962 36.96097373 44.54784274 36.75 46.125 C36.66105469 47.32189453 36.66105469 47.32189453 36.5703125 48.54296875 C35.90721747 54.21716766 35.90721747 54.21716766 33.32617188 56.44433594 C31.390625 57.5546875 31.390625 57.5546875 28 59 C27.67 58.01 27.34 57.02 27 56 C26.34 55.01 25.68 54.02 25 53 C24.86439393 50.49976305 25.00268749 48.0700745 25.125 45.5703125 C24.98439767 42.67917711 24.20009397 40.61582983 23 38 C19.68794116 37.80407539 16.37534146 37.61967254 13.0625 37.4375 C12.11697266 37.38142578 11.17144531 37.32535156 10.19726562 37.26757812 C9.29814453 37.21923828 8.39902344 37.17089844 7.47265625 37.12109375 C6.64000244 37.0739624 5.80734863 37.02683105 4.94946289 36.97827148 C2.99407305 36.77286628 2.99407305 36.77286628 2 38 C0.515 38.495 0.515 38.495 -1 39 C-1.79869111 32.65519779 -2.18255604 26.45504354 -2.1875 20.0625 C-2.19974609 19.23298828 -2.21199219 18.40347656 -2.22460938 17.54882812 C-2.23931229 11.24127843 -1.28187356 6.40936778 0 0 Z " fill="#0CA3CC" transform="translate(77,81)"/>
<path d="M0 0 C1.72283203 0.06574219 1.72283203 0.06574219 3.48046875 0.1328125 C5.28837891 0.21015625 5.28837891 0.21015625 7.1328125 0.2890625 C8.92912109 0.35480469 8.92912109 0.35480469 10.76171875 0.421875 C20.52428742 0.8154388 20.52428742 0.8154388 24.2578125 1.9140625 C24.2578125 2.5740625 24.2578125 3.2340625 24.2578125 3.9140625 C25.2478125 4.2440625 26.2378125 4.5740625 27.2578125 4.9140625 C26.13503906 4.95144531 25.01226562 4.98882812 23.85546875 5.02734375 C11.87141878 5.51323788 2.45047799 6.44887413 -6.7421875 14.9140625 C-7.7321875 16.3990625 -7.7321875 16.3990625 -8.7421875 17.9140625 C-9.4021875 17.9140625 -10.0621875 17.9140625 -10.7421875 17.9140625 C-10.7421875 18.5740625 -10.7421875 19.2340625 -10.7421875 19.9140625 C-11.4021875 19.9140625 -12.0621875 19.9140625 -12.7421875 19.9140625 C-13.58183567 25.22713035 -14.02401359 30.4819486 -14.3046875 35.8515625 C-14.34787109 36.63080078 -14.39105469 37.41003906 -14.43554688 38.21289062 C-14.54046827 40.11313367 -14.641712 42.01357919 -14.7421875 43.9140625 C-16.2271875 44.4090625 -16.2271875 44.4090625 -17.7421875 44.9140625 C-18.0721875 45.9040625 -18.4021875 46.8940625 -18.7421875 47.9140625 C-19.7321875 47.9140625 -20.7221875 47.9140625 -21.7421875 47.9140625 C-22.0721875 45.2740625 -22.4021875 42.6340625 -22.7421875 39.9140625 C-23.4021875 39.9140625 -24.0621875 39.9140625 -24.7421875 39.9140625 C-24.82375187 37.05930944 -24.88295122 34.20692685 -24.9296875 31.3515625 C-24.95482422 30.55169922 -24.97996094 29.75183594 -25.00585938 28.92773438 C-25.0732252 23.4261917 -24.19397264 19.83616013 -21.7421875 14.9140625 C-21.4121875 13.8415625 -21.0821875 12.7690625 -20.7421875 11.6640625 C-19.73484312 8.89386546 -18.86322928 7.85066587 -16.7421875 5.9140625 C-16.4121875 4.9240625 -16.0821875 3.9340625 -15.7421875 2.9140625 C-13.96484375 2.21875 -13.96484375 2.21875 -11.8046875 1.7890625 C-2.65996924 -0.10294817 -2.65996924 -0.10294817 0 0 Z " fill="#0AB9E9" transform="translate(63.7421875,48.0859375)"/>
<path d="M0 0 C3.77148351 3.54572569 6.73344784 7.23770078 9.5 11.625 C9.88873291 12.23674072 10.27746582 12.84848145 10.67797852 13.47875977 C18.35497102 25.79623866 23.26273243 39.29981671 22 54 C20.7496565 57.37890445 19.71565493 58.53696414 17 61 C16.34 61 15.68 61 15 61 C14.67 61.99 14.34 62.98 14 64 C6.05932356 68.25964969 -2.07511827 69.82311045 -11 70 C-11 69.01 -11 68.02 -11 67 C-9.3970947 66.18501438 -7.79262722 65.37310073 -6.1875 64.5625 C-5.29417969 64.11003906 -4.40085938 63.65757812 -3.48046875 63.19140625 C-1 62 -1 62 2 61 C2.33 60.01 2.66 59.02 3 58 C3.66 58 4.32 58 5 58 C5.69419563 56.34461042 6.35103764 54.67363977 7 53 C7.26425781 52.40316406 7.52851563 51.80632812 7.80078125 51.19140625 C12.5192496 39.36169177 10.42439055 26.5838589 6 15 C4.48419833 11.74657202 2.89340295 8.57481381 1.171875 5.42578125 C0 3 0 3 0 0 Z " fill="#035179" transform="translate(163,99)"/>
<path d="M0 0 C0.99 0 1.98 0 3 0 C3.33 0.66 3.66 1.32 4 2 C5.32 1.67 6.64 1.34 8 1 C8.33 1.66 8.66 2.32 9 3 C10.32 2.67 11.64 2.34 13 2 C13.15855469 2.556875 13.31710938 3.11375 13.48046875 3.6875 C14.73497726 7.79064386 16.03871583 11.28044568 18.5 14.8125 C21.37236234 19.06944419 22.25313969 23.46740491 23.2265625 28.4609375 C23.80702884 31.32946108 23.80702884 31.32946108 27 33 C27.24905022 35.75141192 27.32673572 38.25669812 27.25 41 C27.24484375 41.73734375 27.2396875 42.4746875 27.234375 43.234375 C27.15472274 48.69055451 27.15472274 48.69055451 26 51 C25.34 51 24.68 51 24 51 C23.67 51.99 23.34 52.98 23 54 C21.18027191 50.82483659 20.62976796 48.11590509 20.1875 44.5 C17.94391288 30.37053916 10.24245746 17.56032256 1.03125 6.78125 C-0.32478257 4.43901192 -0.18210954 2.65879929 0 0 Z " fill="#0599CA" transform="translate(163,94)"/>
<path d="M0 0 C0.33 0.99 0.66 1.98 1 3 C1.99 3 2.98 3 4 3 C5.04892238 4.63631892 6.04906703 6.30485863 7 8 C7.66 8.33 8.32 8.66 9 9 C9 9.66 9 10.32 9 11 C11.97 11.495 11.97 11.495 15 12 C15 12.66 15 13.32 15 14 C15.53625 14.2475 16.0725 14.495 16.625 14.75 C19.5823982 16.30652537 22.29724051 18.03435673 25 20 C25 20.66 25 21.32 25 22 C26.11375 22.144375 27.2275 22.28875 28.375 22.4375 C32 23 32 23 34 24 C34 24.66 34 25.32 34 26 C34.71027344 26.17015625 35.42054687 26.3403125 36.15234375 26.515625 C37.07144531 26.75796875 37.99054688 27.0003125 38.9375 27.25 C39.85402344 27.48203125 40.77054688 27.7140625 41.71484375 27.953125 C44 29 44 29 44.81640625 31.109375 C44.87699219 31.73328125 44.93757813 32.3571875 45 33 C41.55330113 35.29779925 39.9878034 35.09567341 35.9921875 34.48828125 C33.30439398 33.82950833 31.28890972 32.52593981 29 31 C26.80869466 30.30420546 26.80869466 30.30420546 25 30 C25 29.01 25 28.02 25 27 C24.33484375 26.93554688 23.6696875 26.87109375 22.984375 26.8046875 C18.84771526 25.68930542 15.76749868 23.5174413 12.25 21.125 C11.56550781 20.67769531 10.88101563 20.23039062 10.17578125 19.76953125 C9.52480469 19.33253906 8.87382813 18.89554688 8.203125 18.4453125 C7.61176758 18.04844238 7.02041016 17.65157227 6.41113281 17.24267578 C5 16 5 16 4 13 C3.29875 12.731875 2.5975 12.46375 1.875 12.1875 C-2.09261642 10.54870191 -4.86086493 7.87678661 -8 5 C-7.67 4.34 -7.34 3.68 -7 3 C-4.69 3.33 -2.38 3.66 0 4 C0 2.68 0 1.36 0 0 Z " fill="#0EA6D1" transform="translate(81,138)"/>
<path d="M0 0 C11.52009343 4.0056313 21.83275324 8.89375363 31.98144531 15.68896484 C31.32144531 16.34896484 30.66144531 17.00896484 29.98144531 17.68896484 C28.2561849 16.67985026 26.53092448 15.67073568 24.80566406 14.66162109 C22.84324976 13.54995237 22.84324976 13.54995237 19.98144531 12.68896484 C19.98144531 12.02896484 19.98144531 11.36896484 19.98144531 10.68896484 C19.17707031 10.42083984 18.37269531 10.15271484 17.54394531 9.87646484 C15.58367557 9.2230416 13.62627796 8.55970325 11.68457031 7.85302734 C10.50121094 7.43150391 10.50121094 7.43150391 9.29394531 7.00146484 C8.17439453 6.59347656 8.17439453 6.59347656 7.03222656 6.17724609 C4.80205267 5.45578302 4.80205267 5.45578302 1.98144531 6.68896484 C2.62082031 6.95708984 3.26019531 7.22521484 3.91894531 7.50146484 C5.98144531 8.68896484 5.98144531 8.68896484 6.98144531 11.68896484 C2.99223279 10.41218148 -0.81436699 8.94453544 -4.64355469 7.25146484 C-19.9010974 0.95470119 -35.7413646 -0.01189634 -52.01855469 2.68896484 C-53.69189508 3.67775689 -55.36007291 4.6754482 -57.01855469 5.68896484 C-59.15917969 5.27490234 -59.15917969 5.27490234 -61.01855469 4.68896484 C-59.31663084 3.69869955 -57.60667458 2.72223278 -55.89355469 1.75146484 C-54.94222656 1.20619141 -53.99089844 0.66091797 -53.01074219 0.09912109 C-49.94644128 -1.34502072 -47.35635406 -1.86189785 -44.01855469 -2.31103516 C-32.95271399 -7.8439555 -11.57356932 -3.80424802 0 0 Z " fill="#0B4A67" transform="translate(111.0185546875,45.31103515625)"/>
<path d="M0 0 C21.52856479 -0.62569564 40.64043923 3.25554402 60 13 C60 13.66 60 14.32 60 15 C60.639375 15.12375 61.27875 15.2475 61.9375 15.375 C62.618125 15.58125 63.29875 15.7875 64 16 C64.495 16.99 64.495 16.99 65 18 C62.69 17.67 60.38 17.34 58 17 C58 16.34 58 15.68 58 15 C57.0409375 15.12375 57.0409375 15.12375 56.0625 15.25 C53.06137322 15.00501006 51.75274929 14.49392356 49.125 13.1875 C37.74859945 7.87725323 24.4397752 6.63874594 12.125 8.625 C5.91490718 11.35744084 2.21835899 14.64299366 -0.375 21 C-2.4850409 27.53751989 -2.80064486 34.17208646 -3 41 C-3.33 41 -3.66 41 -4 41 C-5.31626692 37.38026598 -6 34.90432869 -6 31 C-6.66 31 -7.32 31 -8 31 C-7.85831863 29.56208484 -7.71148957 28.1246763 -7.5625 26.6875 C-7.48128906 25.88699219 -7.40007813 25.08648437 -7.31640625 24.26171875 C-7 22 -7 22 -6 19 C-5.34 19 -4.68 19 -4 19 C-3.74347656 18.40316406 -3.48695312 17.80632812 -3.22265625 17.19140625 C-0.09039618 11.57735545 6.36038827 8.31225219 12.34765625 6.5234375 C17.83579373 5.44035882 23.42104403 5.23014185 29 5 C29 4.34 29 3.68 29 3 C19.43 2.67 9.86 2.34 0 2 C0 1.34 0 0.68 0 0 Z " fill="#1A99B8" transform="translate(59,47)"/>
<path d="M0 0 C0.33 0.66 0.66 1.32 1 2 C1.66 2 2.32 2 3 2 C4.60355101 5.50776784 5.22036864 8.14354879 5 12 C5.66 12 6.32 12 7 12 C7.268125 12.77601562 7.53625 13.55203125 7.8125 14.3515625 C10.15126068 20.79854094 12.77120487 26.74943146 16.1875 32.6875 C16.53232422 33.2870752 16.87714844 33.88665039 17.23242188 34.50439453 C18.66457414 36.93639087 19.99599425 38.99599425 22 41 C21.9765625 43.1640625 21.9765625 43.1640625 21.625 45.625 C21.51414062 46.44226563 21.40328125 47.25953125 21.2890625 48.1015625 C21.19367188 48.72804687 21.09828125 49.35453125 21 50 C19 50 19 50 17.125 48.4375 C14.57492624 45.5124154 12.81767514 42.40005253 11 39 C10.42636719 37.96617188 9.85273437 36.93234375 9.26171875 35.8671875 C5.02587906 28.16725532 2.20006342 21.74331922 1 13 C0.67 12.67 0.34 12.34 0 12 C-0.07244053 9.98035801 -0.08377188 7.95832876 -0.0625 5.9375 C-0.05347656 4.83277344 -0.04445312 3.72804688 -0.03515625 2.58984375 C-0.02355469 1.73519531 -0.01195312 0.88054687 0 0 Z " fill="#5DCBF2" transform="translate(50,76)"/>
<path d="M0 0 C2.37913051 1.50209869 3.77914973 2.4623645 4.86328125 5.1015625 C6.41648936 13.82654024 5.76094694 22.228544 5 31 C4.01 31.33 3.02 31.66 2 32 C1.67 32.99 1.34 33.98 1 35 C0.01 35 -0.98 35 -2 35 C-2.33 32.36 -2.66 29.72 -3 27 C-3.66 27 -4.32 27 -5 27 C-5.08156437 24.14524694 -5.14076372 21.29286435 -5.1875 18.4375 C-5.21263672 17.63763672 -5.23777344 16.83777344 -5.26367188 16.01367188 C-5.33054885 10.55205195 -4.4909519 6.87075897 -2 2 C-1.34 2 -0.68 2 0 2 C0 1.34 0 0.68 0 0 Z " fill="#04BDF1" transform="translate(44,61)"/>
<path d="M0 0 C4.08515916 1.46900673 7.78542033 3.45950929 11.58618164 5.52929688 C19.51547952 9.83830702 27.2068556 13.75271792 36 16 C36.85722656 16.22171875 37.71445313 16.4434375 38.59765625 16.671875 C50.3336824 19.35646831 62.19097305 18.46729778 72.6875 12 C74.95539335 10.03857872 75.79974273 8.67749698 77 6 C77.99 5.67 78.98 5.34 80 5 C79.77469677 8.64347504 79.19628224 9.81680324 76.48046875 12.3515625 C75.39761546 13.13038069 74.29880681 13.88735089 73.1875 14.625 C72.31387817 15.21365845 72.31387817 15.21365845 71.42260742 15.81420898 C61.56454232 22.13963413 50.56203426 23.28312931 39.1875 21.25 C29.49102732 19.08846292 20.1353865 15.87686831 11 12 C11 11.34 11 10.68 11 10 C9.68 9.67 8.36 9.34 7 9 C7 8.34 7 7.68 7 7 C6.01 6.67 5.02 6.34 4 6 C4 5.34 4 4.68 4 4 C3.01 3.67 2.02 3.34 1 3 C0.67 2.01 0.34 1.02 0 0 Z " fill="#176B87" transform="translate(104,152)"/>
<path d="M0 0 C5.1991117 1.89967543 7.71767793 3.38043561 11 8 C11.66 8.33 12.32 8.66 13 9 C14.0703125 10.84765625 14.0703125 10.84765625 15.125 13.0625 C15.47820312 13.79597656 15.83140625 14.52945313 16.1953125 15.28515625 C16.46085937 15.85105469 16.72640625 16.41695312 17 17 C16.01 17.66 15.02 18.32 14 19 C14 18.01 14 17.02 14 16 C13.030625 16.185625 12.06125 16.37125 11.0625 16.5625 C10.051875 16.706875 9.04125 16.85125 8 17 C7.67 16.67 7.34 16.34 7 16 C6.67 17.65 6.34 19.3 6 21 C3.15203218 19.57601609 2.43845537 17.8143692 1 15 C0.3125 11.6875 0.3125 11.6875 0 9 C-0.99 9 -1.98 9 -3 9 C-2.67 7.68 -2.34 6.36 -2 5 C-1.34 5 -0.68 5 0 5 C0 4.34 0 3.68 0 3 C-0.66 2.67 -1.32 2.34 -2 2 C-1.34 2 -0.68 2 0 2 C0 1.34 0 0.68 0 0 Z " fill="#077BA9" transform="translate(157,79)"/>
<path d="M0 0 C0.33 0.66 0.66 1.32 1 2 C1.66 2.33 2.32 2.66 3 3 C2.67 3.66 2.34 4.32 2 5 C1.01 5 0.02 5 -1 5 C-1.33 5.99 -1.66 6.98 -2 8 C-3 9 -3 9 -6.59765625 9.09765625 C-8.08596867 9.0909822 -9.57426432 9.07902183 -11.0625 9.0625 C-12.20041992 9.05573242 -12.20041992 9.05573242 -13.36132812 9.04882812 C-15.24091871 9.0370068 -17.12046899 9.01907078 -19 9 C-19 8.34 -19 7.68 -19 7 C-19.99 6.67 -20.98 6.34 -22 6 C-23.66933058 5.3400321 -25.3364521 4.67441131 -27 4 C-23.84159106 1.20877235 -21.76241657 0.60451157 -17.578125 0.48828125 C-16.04091797 0.43510742 -16.04091797 0.43510742 -14.47265625 0.38085938 C-12.87744141 0.34702148 -12.87744141 0.34702148 -11.25 0.3125 C-10.17105469 0.27833984 -9.09210938 0.24417969 -7.98046875 0.20898438 C-5.32041623 0.12659337 -2.66068965 0.05741355 0 0 Z " fill="#08B5E4" transform="translate(104,81)"/>
<path d="M0 0 C4.31717926 0.44486156 6.50963678 3.24679299 9.3125 6.25 C12.39141401 9.46239889 15.38722239 12.48434161 19.125 14.9375 C22.1977419 17.14185832 22.40493826 17.52396859 23 21 C24.32 21.33 25.64 21.66 27 22 C27 22.66 27 23.32 27 24 C27.66 24.33 28.32 24.66 29 25 C28.67 25.66 28.34 26.32 28 27 C24.62322616 26.41779761 23.36002282 25.39472904 21 23 C19.1706627 21.67990006 17.30446015 20.43215674 15.42578125 19.18359375 C14.72001953 18.59771484 14.72001953 18.59771484 14 18 C14 17.34 14 16.68 14 16 C11.03 15.505 11.03 15.505 8 15 C8 14.34 8 13.68 8 13 C7.360625 12.7525 6.72125 12.505 6.0625 12.25 C4 11 4 11 3.25 8.875 C3.1675 8.25625 3.085 7.6375 3 7 C2.01 7 1.02 7 0 7 C0 4.69 0 2.38 0 0 Z " fill="#2A92BA" transform="translate(82,134)"/>
<path d="M0 0 C1.1127832 -0.01836914 1.1127832 -0.01836914 2.24804688 -0.03710938 C4.18763629 -0.04238478 6.1267371 0.06561098 8.0625 0.1875 C10.26841029 2.39341029 10.5599698 3.19370308 11.0625 6.1875 C11.05439506 8.71624281 10.93556355 11.22486219 10.8046875 13.75 C11.11647195 16.69778021 12.12553787 17.9970088 14.0625 20.1875 C14.68125 19.8575 15.3 19.5275 15.9375 19.1875 C18.0625 18.1875 18.0625 18.1875 20.0625 18.1875 C20.03929688 17.60742188 20.01609375 17.02734375 19.9921875 16.4296875 C19.87999577 11.57338834 20.18735085 7.75817605 22.0625 3.1875 C22.3925 3.1875 22.7225 3.1875 23.0625 3.1875 C23.05089844 4.45207031 23.03929688 5.71664062 23.02734375 7.01953125 C23.01796434 8.67968602 23.0088643 10.33984239 23 12 C22.99162109 12.83337891 22.98324219 13.66675781 22.97460938 14.52539062 C22.97138672 15.32783203 22.96816406 16.13027344 22.96484375 16.95703125 C22.95960693 17.69542236 22.95437012 18.43381348 22.94897461 19.19458008 C22.98726787 21.39807409 22.98726787 21.39807409 24.0625 24.1875 C19.51602102 25.3607849 14.73222706 25.72878467 10.0625 25.1875 C8.0625 23.1875 8.0625 23.1875 7.8671875 21.24804688 C7.89039062 20.47525391 7.91359375 19.70246094 7.9375 18.90625 C7.95296875 18.06449219 7.9684375 17.22273438 7.984375 16.35546875 C8.03645833 14.57682292 8.08854167 12.79817708 8.140625 11.01953125 C8.15609375 10.17777344 8.1715625 9.33601563 8.1875 8.46875 C8.21070312 7.69595703 8.23390625 6.92316406 8.2578125 6.12695312 C8.24498897 3.94819064 8.24498897 3.94819064 6.0625 2.1875 C2.93435486 1.94389927 2.93435486 1.94389927 -0.5625 2.0625 C-2.34527344 2.08957031 -2.34527344 2.08957031 -4.1640625 2.1171875 C-5.07929687 2.14039062 -5.99453125 2.16359375 -6.9375 2.1875 C-7.2675 4.4975 -7.5975 6.8075 -7.9375 9.1875 C-8.2675 9.1875 -8.5975 9.1875 -8.9375 9.1875 C-9.03515625 3.03515625 -9.03515625 3.03515625 -8.9375 1.1875 C-6.89483571 -0.85516429 -2.80058566 0.00242056 0 0 Z " fill="#0E9ABC" transform="translate(91.9375,117.8125)"/>
<path d="M0 0 C3.97831488 3.5619796 5.76521175 8.24113053 8 13 C8.32613281 13.68320313 8.65226563 14.36640625 8.98828125 15.0703125 C10.49287286 18.36472635 11 20.2923601 11 24 C11.99 24 12.98 24 14 24 C20.56322135 33.84483203 19.48543943 44.80886257 17.453125 56.015625 C17.30359375 56.67046875 17.1540625 57.3253125 17 58 C16.67 58 16.34 58 16 58 C15.67 55.69 15.34 53.38 15 51 C14.01 51.495 14.01 51.495 13 52 C11.88762531 48.66287593 12.17388615 48.22630951 13 45 C13.1424409 42.62781113 13.22023455 40.25127512 13.25 37.875 C13.27578125 36.63492188 13.3015625 35.39484375 13.328125 34.1171875 C13.21984375 33.08851563 13.1115625 32.05984375 13 31 C12.01 30.34 11.02 29.68 10 29 C9.0078125 26.0234375 9.0078125 26.0234375 8.125 22.375 C6.73211811 17.11001402 5.15215642 13.17526356 2.0390625 8.75390625 C0.35204208 5.90626651 0.20428939 3.26863021 0 0 Z M12 26 C13 29 13 29 13 29 Z " fill="#2174A5" transform="translate(176,96)"/>
<path d="M0 0 C3 1 3 1 4.16796875 3.06640625 C4.50441406 3.89011719 4.84085938 4.71382813 5.1875 5.5625 C5.53167969 6.38878906 5.87585938 7.21507813 6.23046875 8.06640625 C6.48441406 8.70449219 6.73835937 9.34257813 7 10 C7.99 9.01 8.98 8.02 10 7 C10.33 8.32 10.66 9.64 11 11 C11.66 10.34 12.32 9.68 13 9 C13.103125 9.78375 13.20625 10.5675 13.3125 11.375 C13.77595022 14.33045181 13.77595022 14.33045181 17 16 C17.24905022 18.75141192 17.32673572 21.25669812 17.25 24 C17.24484375 24.73734375 17.2396875 25.4746875 17.234375 26.234375 C17.15472274 31.69055451 17.15472274 31.69055451 16 34 C15.34 34 14.68 34 14 34 C13.67 34.99 13.34 35.98 13 37 C11.18027191 33.82483659 10.62976796 31.11590509 10.1875 27.5 C8.73246781 18.11676093 4.76082085 10.11102812 0 2 C0 1.34 0 0.68 0 0 Z " fill="#149ECB" transform="translate(173,111)"/>
<path d="M0 0 C3 1 3 1 4.53515625 3.58984375 C7.61454588 10.33929876 10.03406606 16.62226321 11 24 C10.34 24.33 9.68 24.66 9 25 C8.67 24.01 8.34 23.02 8 22 C7.96261719 22.68707031 7.92523438 23.37414062 7.88671875 24.08203125 C7.82097656 24.98308594 7.75523437 25.88414062 7.6875 26.8125 C7.62949219 27.70582031 7.57148438 28.59914062 7.51171875 29.51953125 C6.9290745 32.34379918 6.3289646 33.33487329 4 35 C3.01 35 2.02 35 1 35 C1.30694459 31.89525766 1.621514 28.79133414 1.9375 25.6875 C2.02451172 24.80642578 2.11152344 23.92535156 2.20117188 23.01757812 C2.28818359 22.17001953 2.37519531 21.32246094 2.46484375 20.44921875 C2.543396 19.66893311 2.62194824 18.88864746 2.70288086 18.0847168 C3 16 3 16 4 13 C3.01 12.67 2.02 12.34 1 12 C0.01751476 7.9472484 -0.08159574 4.16138263 0 0 Z " fill="#04517C" transform="translate(173,115)"/>
<path d="M0 0 C3.94687492 1.43522725 7.31100548 2.67830089 10 6 C10.66 5.67 11.32 5.34 12 5 C12 5.66 12 6.32 12 7 C12.99 7.33 13.98 7.66 15 8 C19.82829979 12.6880102 24.36773502 18.33207003 28 24 C28 24.66 28 25.32 28 26 C24.57701423 24.85900474 23.85241234 23.99914379 22 21 C22 20.01 22 19.02 22 18 C21.4225 17.7525 20.845 17.505 20.25 17.25 C17.6953267 15.83073705 16.05930146 14.05930146 14 12 C11.86690808 10.76487921 11.86690808 10.76487921 10 10 C8.75453595 12.49092811 9.2232422 13.41080733 10 16 C9.01 16.33 8.02 16.66 7 17 C6.67 15.35 6.34 13.7 6 12 C4.02 12 2.04 12 0 12 C-0.12375 11.195625 -0.2475 10.39125 -0.375 9.5625 C-0.684375 8.2940625 -0.684375 8.2940625 -1 7 C-1.66 6.67 -2.32 6.34 -3 6 C-2.625 3.5625 -2.625 3.5625 -2 1 C-1.34 0.67 -0.68 0.34 0 0 Z " fill="#06709C" transform="translate(148,70)"/>
<path d="M0 0 C4.77434676 4.35308087 10.39650112 9.77550782 11.34375 16.40625 C11.31425829 18.61812798 11.16665112 20.79507746 11 23 C11.26801857 25.86557953 11.26801857 25.86557953 12 28 C12.66 28.33 13.32 28.66 14 29 C13.52550099 38.14034937 12.7270386 46.99592496 11 56 C10.34 56 9.68 56 9 56 C8.67 56.99 8.34 57.98 8 59 C5.4375 60.1875 5.4375 60.1875 3 61 C3.33773437 60.35933594 3.67546875 59.71867187 4.0234375 59.05859375 C4.46945313 58.19363281 4.91546875 57.32867187 5.375 56.4375 C5.81585938 55.59058594 6.25671875 54.74367187 6.7109375 53.87109375 C11.90303777 42.30687042 11.03964566 30.24734957 7.2890625 18.375 C5.5703965 13.87521992 3.48100274 9.64965601 1.171875 5.42578125 C0 3 0 3 0 0 Z " fill="#0C4666" transform="translate(163,99)"/>
<path d="M0 0 C1.72283203 0.06574219 1.72283203 0.06574219 3.48046875 0.1328125 C5.28837891 0.21015625 5.28837891 0.21015625 7.1328125 0.2890625 C8.92912109 0.35480469 8.92912109 0.35480469 10.76171875 0.421875 C20.52428742 0.8154388 20.52428742 0.8154388 24.2578125 1.9140625 C24.2578125 2.5740625 24.2578125 3.2340625 24.2578125 3.9140625 C25.2478125 4.2440625 26.2378125 4.5740625 27.2578125 4.9140625 C26.10023437 4.97464844 24.94265625 5.03523438 23.75 5.09765625 C22.21092793 5.18211752 20.67186595 5.26676268 19.1328125 5.3515625 C18.37226562 5.39087891 17.61171875 5.43019531 16.828125 5.47070312 C12.57272047 5.70915252 8.45410424 6.11636487 4.2578125 6.9140625 C3.9278125 5.9240625 3.5978125 4.9340625 3.2578125 3.9140625 C1.38394034 3.11193622 1.38394034 3.11193622 -0.8046875 2.7265625 C-1.53816406 2.56800781 -2.27164063 2.40945312 -3.02734375 2.24609375 C-3.59324219 2.13652344 -4.15914062 2.02695312 -4.7421875 1.9140625 C-4.7421875 2.5740625 -4.7421875 3.2340625 -4.7421875 3.9140625 C-4.0821875 4.2440625 -3.4221875 4.5740625 -2.7421875 4.9140625 C-3.4021875 4.9140625 -4.0621875 4.9140625 -4.7421875 4.9140625 C-4.7421875 5.5740625 -4.7421875 6.2340625 -4.7421875 6.9140625 C-8.7421875 6.9140625 -12.7421875 6.9140625 -16.7421875 6.9140625 C-16.4121875 5.5940625 -16.0821875 4.2740625 -15.7421875 2.9140625 C-12.71484375 2.18164062 -12.71484375 2.18164062 -9.6875 1.44921875 C-3.87445541 -0.14995215 -3.87445541 -0.14995215 0 0 Z " fill="#08B5E2" transform="translate(63.7421875,48.0859375)"/>
<path d="M0 0 C0.33 0.99 0.66 1.98 1 3 C1.99 3 2.98 3 4 3 C5.5625 5.375 5.5625 5.375 7 8 C7.66 8.66 8.32 9.32 9 10 C8.67 10.66 8.34 11.32 8 12 C8.804375 12.268125 9.60875 12.53625 10.4375 12.8125 C11.283125 13.204375 12.12875 13.59625 13 14 C14 17 14 17 13 20 C9.56072421 18.7580393 6.74792181 17.44259716 4 15 C4 14.34 4 13.68 4 13 C3.319375 12.79375 2.63875 12.5875 1.9375 12.375 C-1.97009851 10.54591134 -4.83857939 7.89720966 -8 5 C-7.67 4.34 -7.34 3.68 -7 3 C-4.69 3.33 -2.38 3.66 0 4 C0 2.68 0 1.36 0 0 Z " fill="#0EACD7" transform="translate(81,138)"/>
<path d="M0 0 C0.804375 0.433125 1.60875 0.86625 2.4375 1.3125 C2.1075 1.9725 1.7775 2.6325 1.4375 3.3125 C-1.5625 2.3125 -1.5625 2.3125 -2.5625 1.3125 C-2.2325 1.9725 -1.9025 2.6325 -1.5625 3.3125 C1.46684491 3.97022428 1.46684491 3.97022428 4.4375 4.3125 C3.7775 5.6325 3.1175 6.9525 2.4375 8.3125 C3.675 9.240625 3.675 9.240625 4.9375 10.1875 C6.175 11.239375 6.175 11.239375 7.4375 12.3125 C7.4375 12.9725 7.4375 13.6325 7.4375 14.3125 C6.839375 14.003125 6.24125 13.69375 5.625 13.375 C3.34793228 12.21040296 3.34793228 12.21040296 0.4375 11.3125 C-0.14 10.714375 -0.7175 10.11625 -1.3125 9.5 C-3.33243258 7.53617665 -4.80085638 6.57964384 -7.25 5.3125 C-10.5625 3.3125 -10.5625 3.3125 -11.5 1.0625 C-11.520625 0.485 -11.54125 -0.0925 -11.5625 -0.6875 C-13.2125 -1.0175 -14.8625 -1.3475 -16.5625 -1.6875 C-13.49721958 -7.81806084 -4.41803789 -2.09275479 0 0 Z " fill="#055883" transform="translate(128.5625,54.6875)"/>
<path d="M0 0 C0.99 0.66 1.98 1.32 3 2 C-4.1052821 8.50057724 -11.03198446 13.79815545 -21 14 C-22.28132813 14.02707031 -23.56265625 14.05414063 -24.8828125 14.08203125 C-36.97370749 14.2297337 -36.97370749 14.2297337 -42 13 C-42 12.67 -42 12.34 -42 12 C-41.27409668 11.97494385 -40.54819336 11.9498877 -39.80029297 11.92407227 C-36.49170554 11.80758759 -33.18336624 11.68509986 -29.875 11.5625 C-28.73289063 11.52318359 -27.59078125 11.48386719 -26.4140625 11.44335938 C-24.75117188 11.38051758 -24.75117188 11.38051758 -23.0546875 11.31640625 C-22.03874512 11.27974854 -21.02280273 11.24309082 -19.97607422 11.20532227 C-16.93266243 10.99535432 -13.99914492 10.54938704 -11 10 C-11 9.34 -11 8.68 -11 8 C-10.34 8 -9.68 8 -9 8 C-9 7.01 -9 6.02 -9 5 C-10.32 4.34 -11.64 3.68 -13 3 C-8.23947038 1.02612187 -5.03511899 0.9929762 0 2 C0 1.34 0 0.68 0 0 Z " fill="#148BAA" transform="translate(181,169)"/>
<path d="M0 0 C0 0.66 0 1.32 0 2 C-1.36125 2.9590625 -1.36125 2.9590625 -2.75 3.9375 C-8.23396074 8.39726949 -9.64389912 15.06740452 -10.46484375 21.828125 C-10.715504 25.22062257 -10.9007297 28.59999232 -11 32 C-11.33 32 -11.66 32 -12 32 C-13.31626692 28.38026598 -14 25.90432869 -14 22 C-14.66 22 -15.32 22 -16 22 C-15.85831863 20.56208484 -15.71148957 19.1246763 -15.5625 17.6875 C-15.48128906 16.88699219 -15.40007813 16.08648437 -15.31640625 15.26171875 C-15 13 -15 13 -14 10 C-13.34 10 -12.68 10 -12 10 C-11.7525 9.40703125 -11.505 8.8140625 -11.25 8.203125 C-9.81031137 5.6656738 -8.34848507 4.45955898 -6 2.75 C-5.29875 2.22921875 -4.5975 1.7084375 -3.875 1.171875 C-2 0 -2 0 0 0 Z " fill="#308BB1" transform="translate(67,56)"/>
<path d="M0 0 C0.66 0.33 1.32 0.66 2 1 C1.39203512 10.14509247 0.46259011 19.23108186 -0.67456055 28.32299805 C-0.94013732 30.45870879 -1.19577036 32.59547325 -1.45117188 34.73242188 C-1.62179488 36.11205362 -1.79299758 37.49161383 -1.96484375 38.87109375 C-2.1155835 40.09755615 -2.26632324 41.32401855 -2.42163086 42.58764648 C-2.9816639 45.89181778 -3.84951564 48.85786536 -5 52 C-6.62463842 52.05395478 -8.24978541 52.09277195 -9.875 52.125 C-10.77992187 52.14820313 -11.68484375 52.17140625 -12.6171875 52.1953125 C-15 52 -15 52 -17 50 C-13.37 50 -9.74 50 -6 50 C-5.95101562 48.94941406 -5.90203125 47.89882812 -5.8515625 46.81640625 C-5.50648117 40.11527827 -5.15879856 33.66818778 -3.47265625 27.1484375 C-2.69982069 23.6355486 -2.49827125 20.0801369 -2.21484375 16.5 C-1.96829653 13.63108688 -1.50385389 10.83417811 -1 8 C-0.64443334 5.33568543 -0.32207961 2.66865965 0 0 Z " fill="#0D3F5A" transform="translate(134,91)"/>
<path d="M0 0 C0.99 0 1.98 0 3 0 C2.67 2.97 2.34 5.94 2 9 C5.63 9 9.26 9 13 9 C14.0161692 13.62921525 13.83796731 17.34462607 13 22 C12.67 22 12.34 22 12 22 C12 20.02 12 18.04 12 16 C11.34 15.67 10.68 15.34 10 15 C10.33 13.68 10.66 12.36 11 11 C5.555 10.505 5.555 10.505 0 10 C0 10.66 0 11.32 0 12 C0.66 12 1.32 12 2 12 C2.33 13.98 2.66 15.96 3 18 C2.01 18.33 1.02 18.66 0 19 C-0.33 16.69 -0.66 14.38 -1 12 C-4.00778521 10.99740493 -6.53820647 10.69685358 -9.6875 10.4375 C-10.68136719 10.35371094 -11.67523438 10.26992187 -12.69921875 10.18359375 C-13.45847656 10.12300781 -14.21773438 10.06242187 -15 10 C-15 9.67 -15 9.34 -15 9 C-13.96939453 8.96132812 -13.96939453 8.96132812 -12.91796875 8.921875 C-12.01691406 8.86515625 -11.11585937 8.8084375 -10.1875 8.75 C-9.29417969 8.70359375 -8.40085937 8.6571875 -7.48046875 8.609375 C-4.3433519 7.83868173 -3.79887731 6.57718813 -2 4 C-1.01 4 -0.02 4 1 4 C0.67 2.68 0.34 1.36 0 0 Z " fill="#12B4E1" transform="translate(105,82)"/>
<path d="M0 0 C5.28 0 10.56 0 16 0 C15 4 15 4 13 7 C9.85069107 8.04976964 7.61185544 8.10131595 4.3125 8.0625 C3.31863281 8.05347656 2.32476562 8.04445313 1.30078125 8.03515625 C0.16189453 8.01775391 0.16189453 8.01775391 -1 8 C-0.67 5.36 -0.34 2.72 0 0 Z " fill="#04517E" transform="translate(108,83)"/>
<path d="M0 0 C3.96388638 -0.07622858 7.1273408 0.0318352 11 1 C11.33 4.63 11.66 8.26 12 12 C10.68 12.33 9.36 12.66 8 13 C7.67 13.66 7.34 14.32 7 15 C7 14.34 7 13.68 7 13 C5.68 12.67 4.36 12.34 3 12 C2.67 8.7 2.34 5.4 2 2 C1.34 2 0.68 2 0 2 C0 1.34 0 0.68 0 0 Z " fill="#08B5E6" transform="translate(105,92)"/>
<path d="M0 0 C0.495 0.99 0.495 0.99 1 2 C-0.89256799 7.67770397 -7.87422578 11.1930284 -13 14 C-23.71688945 18.22619351 -34.00345477 17.62045333 -45 15 C-45 14.67 -45 14.34 -45 14 C-33.73783664 12.91635542 -33.73783664 12.91635542 -28.0625 13.1875 C-19.71800628 13.28186423 -10.36608812 10.50580594 -4 5 C-2.7483533 2.91665365 -2.7483533 2.91665365 -2 1 C-1.34 0.67 -0.68 0.34 0 0 Z " fill="#0B5B86" transform="translate(183,157)"/>
<path d="M0 0 C0.99 0 1.98 0 3 0 C3.33 0.66 3.66 1.32 4 2 C5.32 1.67 6.64 1.34 8 1 C8.33 1.66 8.66 2.32 9 3 C10.32 2.67 11.64 2.34 13 2 C14.29243536 6.1196377 15.26252625 9.66831683 15 14 C14.01 14 13.02 14 12 14 C11.34 12.35 10.68 10.7 10 9 C9.01 9.99 8.02 10.98 7 12 C7 11.34 7 10.68 7 10 C6.401875 9.9175 5.80375 9.835 5.1875 9.75 C2.29917175 8.75971603 1.47257348 7.65063227 0 5 C-0.1875 2.25 -0.1875 2.25 0 0 Z " fill="#098AB8" transform="translate(163,94)"/>
<path d="M0 0 C5.75 0.875 5.75 0.875 8 2 C8 2.66 8 3.32 8 4 C8.71027344 4.17015625 9.42054687 4.3403125 10.15234375 4.515625 C11.07144531 4.75796875 11.99054688 5.0003125 12.9375 5.25 C14.31228516 5.59804687 14.31228516 5.59804687 15.71484375 5.953125 C18 7 18 7 18.81640625 9.109375 C18.87699219 9.73328125 18.93757813 10.3571875 19 11 C15.54814809 13.30123461 13.94792403 13.09722333 9.94140625 12.4921875 C7.45571365 11.86201191 5.84151209 10.76478242 4 9 C4.33 7.68 4.66 6.36 5 5 C4.360625 4.731875 3.72125 4.46375 3.0625 4.1875 C1 3 1 3 0 0 Z " fill="#0E9EC5" transform="translate(107,160)"/>
<path d="M0 0 C0.33 0 0.66 0 1 0 C1.22307542 2.2277397 1.42788178 4.45731364 1.625 6.6875 C1.74101562 7.92886719 1.85703125 9.17023438 1.9765625 10.44921875 C1.99953004 13.92880169 1.54051631 15.92484721 0 19 C-0.99 18.01 -1.98 17.02 -3 16 C-3.99 17.32 -4.98 18.64 -6 20 C-7.01873241 14.26963018 -7 8.80055179 -7 3 C-6.01 4.485 -6.01 4.485 -5 6 C-4.34 5.34 -3.68 4.68 -3 4 C-2.34 4.33 -1.68 4.66 -1 5 C-0.67 3.35 -0.34 1.7 0 0 Z " fill="#0D90B7" transform="translate(191,141)"/>
<path d="M0 0 C1.98 0.66 3.96 1.32 6 2 C6 2.66 6 3.32 6 4 C6.66 4 7.32 4 8 4 C8.55558594 4.56332031 9.11117187 5.12664062 9.68359375 5.70703125 C12.54728027 8.54174286 15.66622468 10.54675325 19.0625 12.6875 C19.68705078 13.09033203 20.31160156 13.49316406 20.95507812 13.90820312 C23.61412609 15.60238843 25.99693027 16.99897676 29 18 C29 18.99 29 19.98 29 21 C29.70125 21.103125 30.4025 21.20625 31.125 21.3125 C34.39137647 22.09359003 37.0471852 23.42058743 40 25 C40 25.66 40 26.32 40 27 C25.22815196 22.55952 10.85487239 11.72716801 0 1 C0 0.67 0 0.34 0 0 Z " fill="#1A92B0" transform="translate(77,147)"/>
<path d="M0 0 C1.65 0 3.3 0 5 0 C5 1.65 5 3.3 5 5 C5.66 4.34 6.32 3.68 7 3 C7.99 3 8.98 3 10 3 C10.33 2.34 10.66 1.68 11 1 C11 3.31 11 5.62 11 8 C8.69 8 6.38 8 4 8 C4.99 9.65 5.98 11.3 7 13 C5.65686601 12.35330586 4.32608822 11.68096422 3 11 C1.7315625 10.3503125 1.7315625 10.3503125 0.4375 9.6875 C-2.91557021 7.3661437 -4.21498809 4.57002382 -6 1 C-3.525 1.495 -3.525 1.495 -1 2 C-0.67 1.34 -0.34 0.68 0 0 Z " fill="#1C93B2" transform="translate(70,134)"/>
<path d="M0 0 C1.22317564 3.66952692 0.29579798 4.60423485 -1.25244141 7.95361328 C-2.61243663 11.67650026 -2.57672664 15.50979317 -2.6875 19.4375 C-2.72166016 20.26443359 -2.75582031 21.09136719 -2.79101562 21.94335938 C-2.87268621 23.96178944 -2.93803724 25.98086884 -3 28 C-2.34 28 -1.68 28 -1 28 C0.33583899 32.84241633 1.25328119 36.93437617 1 42 C-0.73497442 39.39753837 -1.61268134 37.53910332 -2.5625 34.625 C-2.81128906 33.87476563 -3.06007812 33.12453125 -3.31640625 32.3515625 C-6.46214216 21.53023096 -5.84440897 11.19465985 -1 1 C-0.67 0.67 -0.34 0.34 0 0 Z " fill="#26ACCA" transform="translate(42,60)"/>
<path d="M0 0 C0.33 0.66 0.66 1.32 1 2 C1.66 2 2.32 2 3 2 C4.60355101 5.50776784 5.22036864 8.14354879 5 12 C5.66 12 6.32 12 7 12 C7.7933855 14.04099935 8.5846303 16.0828309 9.375 18.125 C9.81585938 19.26195313 10.25671875 20.39890625 10.7109375 21.5703125 C11.88454703 24.69282513 12.96842774 27.82815631 14 31 C13.34 30.67 12.68 30.34 12 30 C12 29.01 12 28.02 12 27 C11.34 27 10.68 27 10 27 C8 22 6 17 4 12 C2.68 12 1.36 12 0 12 C0 8.04 0 4.08 0 0 Z " fill="#52A8C4" transform="translate(50,76)"/>
<path d="M0 0 C7.44968348 0.63401562 13.39631584 3.67579782 20 7 C20 7.66 20 8.32 20 9 C20.639375 9.12375 21.27875 9.2475 21.9375 9.375 C22.618125 9.58125 23.29875 9.7875 24 10 C24.33 10.66 24.66 11.32 25 12 C22.69 11.67 20.38 11.34 18 11 C18 10.34 18 9.68 18 9 C17.360625 9.0825 16.72125 9.165 16.0625 9.25 C12.27073183 8.9404679 9.57066539 7.56834024 6.16015625 5.95703125 C3.8001227 4.91144677 1.55951434 4.33025991 -1 4 C-0.34 3.34 0.32 2.68 1 2 C0.67 1.34 0.34 0.68 0 0 Z " fill="#218293" transform="translate(99,53)"/>
<path d="M0 0 C0.33 0.66 0.66 1.32 1 2 C1.66 2.33 2.32 2.66 3 3 C2.67 3.66 2.34 4.32 2 5 C1.01 5 0.02 5 -1 5 C-1.33 5.99 -1.66 6.98 -2 8 C-3 9 -3 9 -5.5625 9.0625 C-6.366875 9.041875 -7.17125 9.02125 -8 9 C-8 7.68 -8 6.36 -8 5 C-10.31 5 -12.62 5 -15 5 C-14.34 4.01 -13.68 3.02 -13 2 C-9.9609375 1.70703125 -9.9609375 1.70703125 -6.375 1.8125 C-5.18648437 1.83957031 -3.99796875 1.86664063 -2.7734375 1.89453125 C-1.85820313 1.92933594 -0.94296875 1.96414062 0 2 C0 1.34 0 0.68 0 0 Z " fill="#05BCED" transform="translate(104,81)"/>
<path d="M0 0 C12.59283378 0.37765479 24.65453611 1.45734617 37 4 C36.67 5.32 36.34 6.64 36 8 C35.07703125 7.74605469 34.1540625 7.49210937 33.203125 7.23046875 C22.2360298 4.30629004 11.2405351 2.5202363 0 1 C0 0.67 0 0.34 0 0 Z " fill="#095277" transform="translate(70,42)"/>
<path d="M0 0 C0.99 0.33 1.98 0.66 3 1 C3 1.66 3 2.32 3 3 C4.32 3 5.64 3 7 3 C7.66 3.66 8.32 4.32 9 5 C9.99 5 10.98 5 12 5 C12.99 5.33 13.98 5.66 15 6 C14.67 8.64 14.34 11.28 14 14 C13.01 13.67 12.02 13.34 11 13 C11 12.01 11 11.02 11 10 C10.01 10.495 10.01 10.495 9 11 C5.14188648 9.66961603 2.65147155 7.01973149 0 4 C0 2.66666667 0 1.33333333 0 0 Z " fill="#0C6793" transform="translate(131,60)"/>
<path d="M0 0 C1.32 0 2.64 0 4 0 C4 1.98 4 3.96 4 6 C4.99 6 5.98 6 7 6 C7.33 7.32 7.66 8.64 8 10 C7.236875 9.67 6.47375 9.34 5.6875 9 C0.74825349 7.66054332 -3.91463109 7.83712342 -9 8 C-9 7.34 -9 6.68 -9 6 C-7.88625 5.566875 -6.7725 5.13375 -5.625 4.6875 C-1.82487666 3.30088881 -1.82487666 3.30088881 0 0 Z " fill="#07547E" transform="translate(150,82)"/>
<path d="M0 0 C1.1127832 -0.01836914 1.1127832 -0.01836914 2.24804688 -0.03710938 C4.18763629 -0.04238478 6.1267371 0.06561098 8.0625 0.1875 C10.24912662 2.37412662 10.54896678 3.22709189 11.0625 6.1875 C10.97632359 8.95626481 10.83699327 11.67915074 10.625 14.4375 C10.57279297 15.18257812 10.52058594 15.92765625 10.46679688 16.6953125 C10.3376783 18.52644861 10.20084886 20.35703813 10.0625 22.1875 C9.4025 22.1875 8.7425 22.1875 8.0625 22.1875 C8.08570312 20.91132813 8.10890625 19.63515625 8.1328125 18.3203125 C8.15156829 16.6510475 8.16976869 14.9817762 8.1875 13.3125 C8.20425781 12.47074219 8.22101563 11.62898437 8.23828125 10.76171875 C8.24472656 9.95605469 8.25117187 9.15039062 8.2578125 8.3203125 C8.26828613 7.57668457 8.27875977 6.83305664 8.28955078 6.06689453 C8.2290597 3.94259765 8.2290597 3.94259765 6.0625 2.1875 C2.93435486 1.94389927 2.93435486 1.94389927 -0.5625 2.0625 C-2.34527344 2.08957031 -2.34527344 2.08957031 -4.1640625 2.1171875 C-5.07929687 2.14039062 -5.99453125 2.16359375 -6.9375 2.1875 C-7.2675 4.4975 -7.5975 6.8075 -7.9375 9.1875 C-8.2675 9.1875 -8.5975 9.1875 -8.9375 9.1875 C-9.03515625 3.03515625 -9.03515625 3.03515625 -8.9375 1.1875 C-6.89483571 -0.85516429 -2.80058566 0.00242056 0 0 Z " fill="#218EA4" transform="translate(91.9375,117.8125)"/>
<path d="M0 0 C6.86341045 6.20691032 11.6343209 18.60623321 12.25 27.6875 C12.12625 28.8321875 12.12625 28.8321875 12 30 C11.34 29.67 10.68 29.34 10 29 C9.32661192 26.83280778 8.7362617 24.63955227 8.1875 22.4375 C6.76569681 17.16720696 5.15971624 13.18600036 2.0390625 8.75390625 C0.35204208 5.90626651 0.20428939 3.26863021 0 0 Z " fill="#1984AA" transform="translate(176,96)"/>
<path d="M0 0 C-7.65690599 4.94508512 -14.24389921 5.06439966 -23.1875 5.125 C-23.87706787 5.12983398 -24.56663574 5.13466797 -25.27709961 5.13964844 C-28.97695876 5.12710199 -32.402939 4.88005764 -36 4 C-36 3.67 -36 3.34 -36 3 C-35.28980713 2.98541748 -34.57961426 2.97083496 -33.84790039 2.95581055 C-30.58559222 2.88068375 -27.32423602 2.78423867 -24.0625 2.6875 C-22.94552734 2.66494141 -21.82855469 2.64238281 -20.67773438 2.61914062 C-14.5648312 2.4219502 -9.39043 1.85893987 -3.70483398 -0.46557617 C-2 -1 -2 -1 0 0 Z " fill="#197B97" transform="translate(175,178)"/>
<path d="M0 0 C4.53639561 2.20689516 6.19442775 4.30551216 8 9 C8.6875 12.875 8.6875 12.875 9 16 C4.5055371 12.91808258 1.07845169 9.06746317 -1 4 C-0.6328125 1.75 -0.6328125 1.75 0 0 Z " fill="#6DC8EA" transform="translate(62,106)"/>
<path d="M0 0 C-1.485 1.485 -1.485 1.485 -3 3 C-1.35 2.67 0.3 2.34 2 2 C2.33 2.99 2.66 3.98 3 5 C-2.28 5.66 -7.56 6.32 -13 7 C-13 6.01 -13 5.02 -13 4 C-11.40233897 3.13372601 -9.79660056 2.28233535 -8.1875 1.4375 C-7.29417969 0.96183594 -6.40085938 0.48617187 -5.48046875 -0.00390625 C-3 -1 -3 -1 0 0 Z " fill="#154462" transform="translate(165,162)"/>
<path d="M0 0 C5.30721977 2.35876434 6.83639731 5.91130316 9 11 C8.01 11.66 7.02 12.32 6 13 C6 12.01 6 11.02 6 10 C4.68 10.33 3.36 10.66 2 11 C1.67 9.68 1.34 8.36 1 7 C-0.32 7 -1.64 7 -3 7 C-3 5 -3 5 -1 3 C-0.67 2.01 -0.34 1.02 0 0 Z " fill="#0580AE" transform="translate(165,85)"/>
<path d="M0 0 C8.91 0 17.82 0 27 0 C27 0.33 27 0.66 27 1 C26.32420898 1.02505615 25.64841797 1.0501123 24.95214844 1.07592773 C21.8845832 1.19210742 18.81730842 1.31473437 15.75 1.4375 C14.68652344 1.47681641 13.62304688 1.51613281 12.52734375 1.55664062 C10.99013672 1.61948242 10.99013672 1.61948242 9.421875 1.68359375 C8.47924805 1.72025146 7.53662109 1.75690918 6.56542969 1.79467773 C3.73113787 1.95079003 3.73113787 1.95079003 0 3 C0.33 7.95 0.66 12.9 1 18 C0.01 17.67 -0.98 17.34 -2 17 C-1.85941524 14.54126232 -1.71277001 12.08314825 -1.5625 9.625 C-1.52318359 8.92632812 -1.48386719 8.22765625 -1.44335938 7.5078125 C-1.11328125 2.2265625 -1.11328125 2.2265625 0 0 Z " fill="#2EA2BE" transform="translate(77,81)"/>
<path d="M0 0 C3.06998212 0.61006055 4.18172835 1.14455664 6.75 3.1875 C11.19725727 6.55722797 16.35291678 8.14920334 21.57714844 9.9440918 C26.90262299 11.80524597 26.90262299 11.80524597 28 14 C20.51747162 12.62820313 13.94395046 10.07836721 7 7 C7 6.34 7 5.68 7 5 C5.68 4.67 4.36 4.34 3 4 C3 3.34 3 2.68 3 2 C2.01 1.67 1.02 1.34 0 1 C0 0.67 0 0.34 0 0 Z " fill="#1F87AF" transform="translate(108,157)"/>
<path d="M0 0 C9.59453303 5.96583144 9.59453303 5.96583144 13 11 C12.67 11.66 12.34 12.32 12 13 C11.13375 12.195625 10.2675 11.39125 9.375 10.5625 C6.37123907 8.03075864 3.96796738 7.28342624 0 7 C0.33 7.99 0.66 8.98 1 10 C0.34 10 -0.32 10 -1 10 C-1.33 8.02 -1.66 6.04 -2 4 C-1.34 4 -0.68 4 0 4 C-0.33 3.01 -0.66 2.02 -1 1 C-0.67 0.67 -0.34 0.34 0 0 Z " fill="#0D5D7B" transform="translate(146,64)"/>
<path d="M0 0 C0 0.66 0 1.32 0 2 C-1.36125 2.9590625 -1.36125 2.9590625 -2.75 3.9375 C-7.26771794 7.4703126 -8.41857044 12.68825719 -10 18 C-10.33 16.68 -10.66 15.36 -11 14 C-11.66 14 -12.32 14 -13 14 C-13 13.01 -13 12.02 -13 11 C-12.01 11 -11.02 11 -10 11 C-10.07992187 10.24332031 -10.15984375 9.48664063 -10.2421875 8.70703125 C-10 6 -10 6 -8.3203125 4.19921875 C-7.59585938 3.70035156 -6.87140625 3.20148437 -6.125 2.6875 C-5.40570313 2.17574219 -4.68640625 1.66398437 -3.9453125 1.13671875 C-2 0 -2 0 0 0 Z " fill="#0E6A95" transform="translate(67,56)"/>
<path d="M0 0 C2 2 2 2 2.375 4.25 C1.87543369 7.91348624 0.18045292 10.07001639 -2 13 C-2.99 12.01 -3.98 11.02 -5 10 C-4.34 9.01 -3.68 8.02 -3 7 C-3.66 7 -4.32 7 -5 7 C-5 5.68 -5 4.36 -5 3 C-4.01 3 -3.02 3 -2 3 C-1.34 2.01 -0.68 1.02 0 0 Z " fill="#1891B6" transform="translate(188,156)"/>
<path d="M0 0 C0.33 0 0.66 0 1 0 C0.98839844 1.26457031 0.97679688 2.52914062 0.96484375 3.83203125 C0.95546434 5.49218602 0.9463643 7.15234239 0.9375 8.8125 C0.92493164 10.06256836 0.92493164 10.06256836 0.91210938 11.33789062 C0.90888672 12.14033203 0.90566406 12.94277344 0.90234375 13.76953125 C0.89710693 14.50792236 0.89187012 15.24631348 0.88647461 16.00708008 C0.92476787 18.21057409 0.92476787 18.21057409 2 21 C-2.67201205 22.20568053 -7.21496292 22.09382426 -12 22 C-12.33 21.34 -12.66 20.68 -13 20 C-9.37 20 -5.74 20 -2 20 C-1.34 13.4 -0.68 6.8 0 0 Z " fill="#227A9C" transform="translate(114,121)"/>
<path d="M0 0 C3.21844498 2.60805024 4.05552339 5.47958002 5.25 9.375 C5.60578125 10.49648437 5.9615625 11.61796875 6.328125 12.7734375 C7.0019874 16.00954414 7.06250767 17.89159991 6 21 C5.34 21.33 4.68 21.66 4 22 C3.52006844 19.45847565 3.04103273 16.91678778 2.5625 14.375 C2.42779297 13.66214844 2.29308594 12.94929687 2.15429688 12.21484375 C1.38981729 8.15004987 0.66330363 4.08285925 0 0 Z " fill="#51C3F0" transform="translate(181,126)"/>
<path d="M0 0 C0.12375 0.639375 0.2475 1.27875 0.375 1.9375 C0.58125 2.618125 0.7875 3.29875 1 4 C1.66 4.33 2.32 4.66 3 5 C2.34 5 1.68 5 1 5 C1 5.66 1 6.32 1 7 C-3 7 -7 7 -11 7 C-10.67 5.68 -10.34 4.36 -10 3 C-6.97265625 2.26757812 -6.97265625 2.26757812 -3.9453125 1.53515625 C-1.9414343 1.05153008 -1.9414343 1.05153008 0 0 Z " fill="#0FA8D0" transform="translate(58,48)"/>
<path d="M0 0 C0.969375 0.845625 1.93875 1.69125 2.9375 2.5625 C7.17152248 6.19785946 11.57169222 9.60596819 16 13 C15.01 13.495 15.01 13.495 14 14 C13.0925 13.360625 12.185 12.72125 11.25 12.0625 C8.60778619 10.38571047 7.0101501 9.46310002 4 9 C3.938125 8.38125 3.87625 7.7625 3.8125 7.125 C3.171081 4.72238859 3.171081 4.72238859 0.4375 3.75 C-0.366875 3.5025 -1.17125 3.255 -2 3 C-1 1 -1 1 0 0 Z " fill="#428CAA" transform="translate(88,138)"/>
<path d="M0 0 C0 0.33 0 0.66 0 1 C-1.31355469 1.10957031 -2.62710938 1.21914063 -3.98046875 1.33203125 C-5.71620624 1.49153145 -7.4518802 1.65172413 -9.1875 1.8125 C-10.05181641 1.88275391 -10.91613281 1.95300781 -11.80664062 2.02539062 C-16.74272604 2.49819574 -19.76594376 3.29856375 -24 6 C-26.3125 5.6875 -26.3125 5.6875 -28 5 C-18.67646527 -1.94734229 -10.95959381 -1.41331222 0 0 Z " fill="#135E74" transform="translate(78,45)"/>
<path d="M0 0 C0.66 0.33 1.32 0.66 2 1 C1 4 1 4 -2.3125 5.75 C-5.92170722 6.97346008 -6.64469155 7.15700291 -10 6 C-12.18703385 6.37907282 -12.18703385 6.37907282 -14 7 C-14.33 6.34 -14.66 5.68 -15 5 C-14.01 5 -13.02 5 -12 5 C-12 4.34 -12 3.68 -12 3 C-7.66726186 2.07155611 -4.33273814 2.07155611 0 3 C0 2.01 0 1.02 0 0 Z " fill="#0A517A" transform="translate(176,159)"/>
<path d="M0 0 C6.73149786 2.24383262 12.24178214 11.13552817 16 17 C16 17.66 16 18.32 16 19 C12.57701423 17.85900474 11.85241234 16.99914379 10 14 C10 13.01 10 12.02 10 11 C9.13375 10.62875 9.13375 10.62875 8.25 10.25 C5.68454238 8.82474577 4.00051002 7.13387735 2 5 C1.34 4.34 0.68 3.68 0 3 C0 2.01 0 1.02 0 0 Z " fill="#135F7E" transform="translate(160,77)"/>
<path d="M0 0 C2.86724686 0.57344937 3.8614515 0.8614515 6 3 C5.67 3.99 5.34 4.98 5 6 C5.33 6.33 5.66 6.66 6 7 C6 7.99 6 8.98 6 10 C5.01 9.67 4.02 9.34 3 9 C3 8.34 3 7.68 3 7 C2.01 7 1.02 7 0 7 C0 4.69 0 2.38 0 0 Z " fill="#49A8CB" transform="translate(82,134)"/>
<path d="M0 0 C0.33 0 0.66 0 1 0 C1 1.98 1 3.96 1 6 C-4.61 6 -10.22 6 -16 6 C-15.67 5.01 -15.34 4.02 -15 3 C-10.05 3.33 -5.1 3.66 0 4 C0 2.68 0 1.36 0 0 Z " fill="#0B3F65" transform="translate(152,86)"/>
<path d="M0 0 C3.70600523 1.42018449 7.23101665 3.0394222 10.75 4.875 C11.71421875 5.36742187 12.6784375 5.85984375 13.671875 6.3671875 C16 8 16 8 16.828125 10.1953125 C16.88484375 10.79085937 16.9415625 11.38640625 17 12 C12.08636493 11.57883128 10.3534173 9.43520797 7 6 C5.9275 5.46375 4.855 4.9275 3.75 4.375 C1 3 1 3 0 0 Z " fill="#387A95" transform="translate(104,152)"/>
<path d="M0 0 C0.99 0 1.98 0 3 0 C3.33 1.32 3.66 2.64 4 4 C4.99 3.67 5.98 3.34 7 3 C8.32 4.65 9.64 6.3 11 8 C10.01 8.33 9.02 8.66 8 9 C8 8.34 8 7.68 8 7 C5.03 6.505 5.03 6.505 2 6 C2 5.34 2 4.68 2 4 C0.68 3.34 -0.64 2.68 -2 2 C-1.34 1.34 -0.68 0.68 0 0 Z " fill="#2CA2C7" transform="translate(88,143)"/>
<path d="M0 0 C0.66 0 1.32 0 2 0 C4.34770643 3.52155964 4.37669614 5.50771843 4.625 9.6875 C4.69976562 10.86699219 4.77453125 12.04648438 4.8515625 13.26171875 C4.90054688 14.16535156 4.94953125 15.06898438 5 16 C4.34 16.33 3.68 16.66 3 17 C2.33333333 13.66666667 1.66666667 10.33333333 1 7 C0.81308594 6.10667969 0.62617188 5.21335937 0.43359375 4.29296875 C0 2 0 2 0 0 Z " fill="#0E678E" transform="translate(188,120)"/>
<path d="M0 0 C3.3 0.33 6.6 0.66 10 1 C10 1.66 10 2.32 10 3 C10.99 3.33 11.98 3.66 13 4 C8.71 4 4.42 4 0 4 C0 2.68 0 1.36 0 0 Z " fill="#09ADD9" transform="translate(78,49)"/>
<path d="M0 0 C1.98 0.66 3.96 1.32 6 2 C6 2.66 6 3.32 6 4 C6.66 4 7.32 4 8 4 C9.33333333 5.33333333 10.66666667 6.66666667 12 8 C13.97630407 9.36821051 15.97209016 10.70951192 18 12 C16.19995117 12.63989258 16.19995117 12.63989258 14 13 C11.57775687 11.30531708 9.49346745 9.65109528 7.3125 7.6875 C6.42208008 6.91889648 6.42208008 6.91889648 5.51367188 6.13476562 C1.16636588 2.33273176 1.16636588 2.33273176 0 0 Z " fill="#1F9AB5" transform="translate(77,147)"/>
<path d="M0 0 C2.89932357 2.39509338 3.50168276 4.31245243 4 8 C2.68 8.33 1.36 8.66 0 9 C-4 4.25 -4 4.25 -4 2 C-2.68 1.34 -1.36 0.68 0 0 Z " fill="#1294C4" transform="translate(172,102)"/>
<path d="M0 0 C4.22786917 0.57757776 7.10251786 2.02848 10.6875 4.3125 C12.11642578 5.20388672 12.11642578 5.20388672 13.57421875 6.11328125 C15.97772779 7.98267717 16.93991181 9.1916962 18 12 C17.401875 11.690625 16.80375 11.38125 16.1875 11.0625 C13.91043228 9.89790296 13.91043228 9.89790296 11 9 C10.4225 8.401875 9.845 7.80375 9.25 7.1875 C6.41123188 4.42758655 3.48194194 2.87489181 0 1 C0 0.67 0 0.34 0 0 Z " fill="#0C4F6A" transform="translate(118,57)"/>
<path d="M0 0 C3.61569144 1.20523048 3.94669545 2.07185564 5.75 5.3125 C6.19859375 6.09238281 6.6471875 6.87226562 7.109375 7.67578125 C8.11611108 10.30300917 7.97226335 11.40927388 7 14 C6.67 12.68 6.34 11.36 6 10 C5.34 10 4.68 10 4 10 C3.67 9.34 3.34 8.68 3 8 C2.01 8.495 2.01 8.495 1 9 C0.67 6.03 0.34 3.06 0 0 Z " fill="#50B9E2" transform="translate(51,87)"/>
<path d="M0 0 C0.78375 0.185625 1.5675 0.37125 2.375 0.5625 C4.97089775 1.25962266 4.97089775 1.25962266 7 0 C6.67 1.32 6.34 2.64 6 4 C6.99 4.33 7.98 4.66 9 5 C9 5.66 9 6.32 9 7 C9.99 7.33 10.98 7.66 12 8 C12 8.99 12 9.98 12 11 C10.68 10.34 9.36 9.68 8 9 C8 8.34 8 7.68 8 7 C7.4225 6.773125 6.845 6.54625 6.25 6.3125 C3.4336339 4.66961977 1.91922886 2.60466773 0 0 Z " fill="#105C7A" transform="translate(136,69)"/>
<path d="M0 0 C1.93742341 -0.02703381 3.87495479 -0.04641125 5.8125 -0.0625 C6.89144531 -0.07410156 7.97039062 -0.08570312 9.08203125 -0.09765625 C12 0 12 0 15 1 C15 1.66 15 2.32 15 3 C15.66 3 16.32 3 17 3 C17.33 4.98 17.66 6.96 18 9 C17.01 9.33 16.02 9.66 15 10 C14.67 7.69 14.34 5.38 14 3 C10.99221479 1.99740493 8.46179353 1.69685358 5.3125 1.4375 C4.31863281 1.35371094 3.32476562 1.26992187 2.30078125 1.18359375 C1.16189453 1.09271484 1.16189453 1.09271484 0 1 C0 0.67 0 0.34 0 0 Z " fill="#21A9CA" transform="translate(90,91)"/>
<path d="M0 0 C3.63 0 7.26 0 11 0 C12.0161692 4.62921525 11.83796731 8.34462607 11 13 C10.67 13 10.34 13 10 13 C10 11.02 10 9.04 10 7 C9.34 6.67 8.68 6.34 8 6 C8.33 4.68 8.66 3.36 9 2 C6.03 1.67 3.06 1.34 0 1 C0 0.67 0 0.34 0 0 Z " fill="#1BA1C4" transform="translate(107,91)"/>
<path d="M0 0 C2.00293347 3.00440021 2.49271626 4.70993945 3.125 8.1875 C3.29257813 9.08855469 3.46015625 9.98960937 3.6328125 10.91796875 C3.75398437 11.60503906 3.87515625 12.29210937 4 13 C3.01 13.495 3.01 13.495 2 14 C2 12.68 2 11.36 2 10 C1.34 10 0.68 10 0 10 C-1.125 6.6875 -1.125 6.6875 -2 3 C-1.34 2.01 -0.68 1.02 0 0 Z " fill="#085786" transform="translate(180,126)"/>
<path d="M0 0 C0.66 0.33 1.32 0.66 2 1 C1.67 3.97 1.34 6.94 1 10 C-1 10 -1 10 -3.125 8.3125 C-5 6 -5 6 -5.25 3.25 C-5.1675 2.5075 -5.085 1.765 -5 1 C-3.35 2.32 -1.7 3.64 0 5 C0 3.35 0 1.7 0 0 Z " fill="#52B9E0" transform="translate(70,116)"/>
<path d="M0 0 C0.33 1.32 0.66 2.64 1 4 C0.01 4 -0.98 4 -2 4 C-2 4.99 -2 5.98 -2 7 C-1.34 7 -0.68 7 0 7 C-0.33 9.64 -0.66 12.28 -1 15 C-1.33 14.34 -1.66 13.68 -2 13 C-2.66 13 -3.32 13 -4 13 C-4.125 6.375 -4.125 6.375 -3 3 C-2.34 3 -1.68 3 -1 3 C-0.67 2.01 -0.34 1.02 0 0 Z " fill="#1381AE" transform="translate(56,63)"/>
<path d="M0 0 C0.66 0 1.32 0 2 0 C1.67 5.94 1.34 11.88 1 18 C0.34 18.33 -0.32 18.66 -1 19 C-2.5013979 12.39384924 -1.30737687 6.58010343 0 0 Z " fill="#0B405D" transform="translate(121,102)"/>
<path d="M0 0 C5.44876003 1.72066106 10.71169451 3.84705349 16 6 C12.50967481 7.16344173 11.43292372 6.76539718 8 5.6875 C7.13375 5.42324219 6.2675 5.15898437 5.375 4.88671875 C3 4 3 4 0 2 C0 1.34 0 0.68 0 0 Z " fill="#22728A" transform="translate(120,161)"/>
<path d="M0 0 C2 2 2 2 2.16015625 3.875 C2.12792969 4.57625 2.09570312 5.2775 2.0625 6 C1.90401197 9.11841564 1.90401197 9.11841564 3 12 C1.02 12.99 1.02 12.99 -1 14 C-2.15837573 10.52487282 -1.77265943 8.86329714 -1.0625 5.3125 C-0.86785156 4.31863281 -0.67320313 3.32476562 -0.47265625 2.30078125 C-0.31667969 1.54152344 -0.16070312 0.78226563 0 0 Z " fill="#0D4771" transform="translate(117,129)"/>
<path d="M0 0 C0.66 0 1.32 0 2 0 C4 2 4 2 4.125 5.625 C4.08375 6.73875 4.0425 7.8525 4 9 C3.01 9.495 3.01 9.495 2 10 C1.34786708 12.02463255 1.34786708 12.02463255 1 14 C0.34 13.01 -0.32 12.02 -1 11 C-0.71202981 9.65613912 -0.36784131 8.3242287 0 7 C0.03888349 4.66699067 0.0448635 2.33290199 0 0 Z " fill="#0770A4" transform="translate(189,134)"/>
<path d="M0 0 C0.99 0.66 1.98 1.32 3 2 C2.01 2.33 1.02 2.66 0 3 C0.825 3.94875 1.65 4.8975 2.5 5.875 C5 8.75 5 8.75 5 11 C3 11 3 11 1.5625 9.625 C1.046875 9.08875 0.53125 8.5525 0 8 C-0.99 7.34 -1.98 6.68 -3 6 C-2.67 4.68 -2.34 3.36 -2 2 C-1.34 2 -0.68 2 0 2 C0 1.34 0 0.68 0 0 Z " fill="#199CB4" transform="translate(109,109)"/>
<path d="M0 0 C0.66 0.33 1.32 0.66 2 1 C1 3 0 5 -1 7 C-2.32 7 -3.64 7 -5 7 C-5 6.34 -5 5.68 -5 5 C-5.66 4.67 -6.32 4.34 -7 4 C-4.35261084 2.5393715 -3.10551666 2 0 2 C0 1.34 0 0.68 0 0 Z " fill="#11A8D0" transform="translate(115,103)"/>
<path d="M0 0 C0.33 0.66 0.66 1.32 1 2 C0.01 2 -0.98 2 -2 2 C-1.67 2.99 -1.34 3.98 -1 5 C-3.31 4.67 -5.62 4.34 -8 4 C-8 3.01 -8 2.02 -8 1 C-5.07175348 0.02391783 -3.04386724 -0.08226668 0 0 Z " fill="#129EC8" transform="translate(136,172)"/>
<path d="M0 0 C1.43088528 2.86177057 0.59991697 4.93375773 0 8 C-3.375 8.125 -3.375 8.125 -7 8 C-7.66 7.34 -8.32 6.68 -9 6 C-8.34 6 -7.68 6 -7 6 C-6.67 5.01 -6.34 4.02 -6 3 C-5.34 3.66 -4.68 4.32 -4 5 C-3.01 4.67 -2.02 4.34 -1 4 C-0.26676204 1.98491642 -0.26676204 1.98491642 0 0 Z " fill="#0C587E" transform="translate(172,154)"/>
<path d="M0 0 C1.45606519 4.52092968 0.27032841 7.51648796 -1 12 C-1.66 11.34 -2.32 10.68 -3 10 C-2.70131344 7.99453311 -2.36628677 5.99422795 -2 4 C-2.33 3.01 -2.66 2.02 -3 1 C-2.01 0.67 -1.02 0.34 0 0 Z " fill="#157CA2" transform="translate(187,149)"/>
<path d="M0 0 C4.875 4.625 4.875 4.625 6 8 C5.34 8.66 4.68 9.32 4 10 C3.13342884 8.90554162 2.28207276 7.79902219 1.4375 6.6875 C0.96183594 6.07261719 0.48617187 5.45773438 -0.00390625 4.82421875 C-0.33261719 4.22222656 -0.66132812 3.62023437 -1 3 C-0.67 2.01 -0.34 1.02 0 0 Z " fill="#5DC2EA" transform="translate(60,109)"/>
<path d="M0 0 C2.31 0 4.62 0 7 0 C8.31223496 3.93670488 7.24296256 6.12488144 6 10 C5.34 9.67 4.68 9.34 4 9 C4.33 6.69 4.66 4.38 5 2 C3.35 2 1.7 2 0 2 C0 1.34 0 0.68 0 0 Z " fill="#074161" transform="translate(118,90)"/>
<path d="M0 0 C0.66 0 1.32 0 2 0 C3.35278115 1.98689731 4.68568305 3.98745218 6 6 C6.66 6.33 7.32 6.66 8 7 C8.72159424 8.64363134 9.39351421 10.31050386 10 12 C9.01 12.495 9.01 12.495 8 13 C6.66094733 11.2126038 5.32890934 9.41995047 4 7.625 C3.2575 6.62726563 2.515 5.62953125 1.75 4.6015625 C0 2 0 2 0 0 Z " fill="#23A4C6" transform="translate(51,117)"/>
<path d="M0 0 C2.6244603 2.3745117 4.50692877 4.77810946 6 8 C5.07421875 10.16015625 5.07421875 10.16015625 4 12 C3.32332002 10.75539217 2.65905281 9.50403104 2 8.25 C1.62875 7.55390625 1.2575 6.8578125 0.875 6.140625 C0 4 0 4 0 0 Z " fill="#1477A8" transform="translate(176,96)"/>
<path d="M0 0 C0.33 0 0.66 0 1 0 C1 2.31 1 4.62 1 7 C-1.97 6.505 -1.97 6.505 -5 6 C-4.34 4.68 -3.68 3.36 -3 2 C-2.01 2 -1.02 2 0 2 C0 1.34 0 0.68 0 0 Z " fill="#1090B4" transform="translate(80,135)"/>
<path d="M0 0 C0.66 0 1.32 0 2 0 C3 3 3 3 3 6 C3.99 7.485 3.99 7.485 5 9 C2.33333333 7.66666667 -0.33333333 6.33333333 -3 5 C-3 4.01 -3 3.02 -3 2 C-2.01 2 -1.02 2 0 2 C0 1.34 0 0.68 0 0 Z " fill="#1F8AA8" transform="translate(72,138)"/>
<path d="M0 0 C0.33 0 0.66 0 1 0 C1 1.65 1 3.3 1 5 C-5.07877934 8.24201565 -10.18401613 8.33278764 -17 8 C-17 7.67 -17 7.34 -17 7 C-16.09636719 6.87882812 -15.19273438 6.75765625 -14.26171875 6.6328125 C-13.08222656 6.46523437 -11.90273437 6.29765625 -10.6875 6.125 C-8.92986328 5.88136719 -8.92986328 5.88136719 -7.13671875 5.6328125 C-3.85469105 5.17699379 -3.85469105 5.17699379 -1 3 C-0.67 2.01 -0.34 1.02 0 0 Z " fill="#2CA1BC" transform="translate(104,101)"/>
<path d="M0 0 C3.375 0.25 3.375 0.25 7 1 C7.66 2.32 8.32 3.64 9 5 C5.7 4.67 2.4 4.34 -1 4 C-0.34 3.34 0.32 2.68 1 2 C0.67 1.34 0.34 0.68 0 0 Z " fill="#198EA4" transform="translate(99,53)"/>
<path d="M0 0 C3.63 0.33 7.26 0.66 11 1 C11 1.66 11 2.32 11 3 C12.65 3.33 14.3 3.66 16 4 C12.11764181 5.49828872 9.56550712 4.43110582 5.75 3.0625 C4.67234375 2.68222656 3.5946875 2.30195313 2.484375 1.91015625 C1.66453125 1.60980469 0.8446875 1.30945313 0 1 C0 0.67 0 0.34 0 0 Z " fill="#288CA6" transform="translate(122,176)"/>
<path d="M0 0 C4.68520915 1.21815438 8.70543612 2.69559987 13 5 C13 5.66 13 6.32 13 7 C8.1725201 5.58707905 4.2837641 3.57025846 0 1 C0 0.67 0 0.34 0 0 Z " fill="#1C8FA4" transform="translate(104,167)"/>
<path d="M0 0 C-0.33 1.32 -0.66 2.64 -1 4 C-0.34 4 0.32 4 1 4 C1.33 4.99 1.66 5.98 2 7 C-3.66153846 5.52307692 -3.66153846 5.52307692 -5.375 2.875 C-5.58125 2.25625 -5.7875 1.6375 -6 1 C-3.92446352 0.4465236 -2.15634036 0 0 0 Z " fill="#1AAACC" transform="translate(66,129)"/>
<path d="M0 0 C3 1 3 1 4.421875 3.3984375 C4.86015625 4.38070312 5.2984375 5.36296875 5.75 6.375 C6.42289063 7.84066406 6.42289063 7.84066406 7.109375 9.3359375 C8 12 8 12 7 15 C5.82823482 12.87767021 4.66245215 10.75242209 3.5 8.625 C3.16613281 8.02171875 2.83226562 7.4184375 2.48828125 6.796875 C0 2.2265625 0 2.2265625 0 0 Z " fill="#36ACDA" transform="translate(173,111)"/>
<path d="M0 0 C3.28788824 3.11016455 5.83735988 6.01618925 8 10 C6.68 10 5.36 10 4 10 C0 3.375 0 3.375 0 0 Z " fill="#0B4F6D" transform="translate(163,99)"/>
<path d="M0 0 C0.33 0 0.66 0 1 0 C1.33 3.3 1.66 6.6 2 10 C1.01 9.67 0.02 9.34 -1 9 C-1.80967438 6.08517222 -2.21845993 4.53886783 -1.0625 1.6875 C-0.711875 1.130625 -0.36125 0.57375 0 0 Z " fill="#0CB0DE" transform="translate(186,127)"/>
<path d="M0 0 C0.33 0.99 0.66 1.98 1 3 C3.01508358 3.73323796 3.01508358 3.73323796 5 4 C3.06183265 3.8858134 1.12444901 3.75826577 -0.8125 3.625 C-1.89144531 3.55539063 -2.97039062 3.48578125 -4.08203125 3.4140625 C-7 3 -7 3 -10 1 C-9.36191406 1.01160156 -8.72382812 1.02320313 -8.06640625 1.03515625 C-7.24011719 1.04417969 -6.41382812 1.05320313 -5.5625 1.0625 C-4.32693359 1.07990234 -4.32693359 1.07990234 -3.06640625 1.09765625 C-1.00836062 1.23267348 -1.00836062 1.23267348 0 0 Z " fill="#1196B3" transform="translate(127,173)"/>
<path d="M0 0 C5.94 1.485 5.94 1.485 12 3 C12 3.33 12 3.66 12 4 C8.7 4.33 5.4 4.66 2 5 C2 4.01 2 3.02 2 2 C1.34 2 0.68 2 0 2 C0 1.34 0 0.68 0 0 Z " fill="#1291B8" transform="translate(126,168)"/>
<path d="M0 0 C2.125 0.375 2.125 0.375 4 1 C3.19152271 2.16945792 2.37810888 3.33550461 1.5625 4.5 C1.11003906 5.1496875 0.65757812 5.799375 0.19140625 6.46875 C-0.20175781 6.9740625 -0.59492188 7.479375 -1 8 C-1.33 8 -1.66 8 -2 8 C-2.125 5.125 -2.125 5.125 -2 2 C-1.34 1.34 -0.68 0.68 0 0 Z " fill="#0B4869" transform="translate(181,152)"/>
<path d="M0 0 C0.33 0 0.66 0 1 0 C1.33 4.62 1.66 9.24 2 14 C1.34 14 0.68 14 0 14 C-2.05459372 8.40693931 -2.05459372 5.59306069 0 0 Z " fill="#0C85BC" transform="translate(191,141)"/>
<path d="M0 0 C2.475 0.495 2.475 0.495 5 1 C5 3.31 5 5.62 5 8 C2.2175651 6.60878255 1.44789935 4.69835788 0 2 C0 1.34 0 0.68 0 0 Z " fill="#167693" transform="translate(158,92)"/>
<path d="M0 0 C0.33 0.66 0.66 1.32 1 2 C1.66 2 2.32 2 3 2 C3.33 3.65 3.66 5.3 4 7 C3.01 7.495 3.01 7.495 2 8 C1.34 9.32 0.68 10.64 0 12 C0 8.04 0 4.08 0 0 Z " fill="#2AA4CD" transform="translate(50,76)"/>
<path d="M0 0 C1.98 0.66 3.96 1.32 6 2 C5.34 3.98 4.68 5.96 4 8 C3.34 6.68 2.68 5.36 2 4 C1.34 4.99 0.68 5.98 0 7 C-0.93423645 3.98968256 -1.04449911 3.13349732 0 0 Z " fill="#099ECF" transform="translate(184,124)"/>
<path d="M0 0 C6.93 0.495 6.93 0.495 14 1 C14 1.33 14 1.66 14 2 C9.38 2.66 4.76 3.32 0 4 C0 2.68 0 1.36 0 0 Z " fill="#06ADD8" transform="translate(86,89)"/>
<path d="M0 0 C0 0.66 0 1.32 0 2 C-1.50197356 3.24076077 -3.00612315 4.47921817 -4.53125 5.69140625 C-6.28660135 7.25534961 -7.18614864 8.80260134 -8 11 C-8.33 10.01 -8.66 9.02 -9 8 C-8.07421875 6.2109375 -8.07421875 6.2109375 -6.6875 4.375 C-6.23761719 3.76398437 -5.78773437 3.15296875 -5.32421875 2.5234375 C-3.61682303 0.55917694 -2.61370921 0 0 0 Z " fill="#0F5B7D" transform="translate(67,56)"/>
<path d="M0 0 C3.63 1.32 7.26 2.64 11 4 C11 4.66 11 5.32 11 6 C9.53815942 5.77139942 8.08044581 5.51629608 6.625 5.25 C5.40683594 5.04117188 5.40683594 5.04117188 4.1640625 4.828125 C2 4 2 4 0 0 Z " fill="#0C435F" transform="translate(112,46)"/>
<path d="M0 0 C4.97306516 0.49730652 8.63799813 1.55302334 13 4 C9.29218328 5.23593891 8.32489747 4.5678132 4.8125 3.0625 C3.91144531 2.68222656 3.01039062 2.30195313 2.08203125 1.91015625 C1.39496094 1.60980469 0.70789063 1.30945313 0 1 C0 0.67 0 0.34 0 0 Z " fill="#1077A3" transform="translate(123,166)"/>
<path d="M0 0 C0.66 0.33 1.32 0.66 2 1 C1.67 1.99 1.34 2.98 1 4 C-1.06640625 4.94921875 -1.06640625 4.94921875 -3.5625 5.6875 C-4.38878906 5.93886719 -5.21507812 6.19023437 -6.06640625 6.44921875 C-6.70449219 6.63097656 -7.34257812 6.81273437 -8 7 C-7.67 6.01 -7.34 5.02 -7 4 C-3.535 3.505 -3.535 3.505 0 3 C0 2.01 0 1.02 0 0 Z " fill="#0C425D" transform="translate(176,159)"/>
<path d="M0 0 C0.66 0 1.32 0 2 0 C2.66 1.98 3.32 3.96 4 6 C2.35 6.33 0.7 6.66 -1 7 C-1.04254356 5.00045254 -1.04080783 2.99958364 -1 1 C-0.67 0.67 -0.34 0.34 0 0 Z " fill="#04ACD4" transform="translate(106,100)"/>
<path d="M0 0 C-4.61012242 2.95047835 -7.36529617 4.5497272 -13 4 C-10.81006393 1.81006393 -9.4012702 1.27802011 -6.5 0.3125 C-5.7059375 0.04050781 -4.911875 -0.23148438 -4.09375 -0.51171875 C-2 -1 -2 -1 0 0 Z " fill="#136179" transform="translate(175,178)"/>
<path d="M0 0 C0.99 0.33 1.98 0.66 3 1 C3 1.33 3 1.66 3 2 C5.97 2.495 5.97 2.495 9 3 C9 3.33 9 3.66 9 4 C5.37 4 1.74 4 -2 4 C-2 3.01 -2 2.02 -2 1 C-1.34 0.67 -0.68 0.34 0 0 Z " fill="#159BBF" transform="translate(146,177)"/>
<path d="M0 0 C0.66 0.33 1.32 0.66 2 1 C1.67 4.3 1.34 7.6 1 11 C-0.99512373 7.00975253 -1.28727578 5.30913667 -1 1 C-0.67 0.67 -0.34 0.34 0 0 Z " fill="#053548" transform="translate(130,124)"/>
<path d="M0 0 C0.66 0 1.32 0 2 0 C2 0.66 2 1.32 2 2 C2.63808594 2.10957031 3.27617187 2.21914063 3.93359375 2.33203125 C4.75988281 2.49058594 5.58617187 2.64914063 6.4375 2.8125 C7.67306641 3.03873047 7.67306641 3.03873047 8.93359375 3.26953125 C9.95646484 3.63111328 9.95646484 3.63111328 11 4 C11.33 4.99 11.66 5.98 12 7 C11.34 7 10.68 7 10 7 C10 6.34 10 5.68 10 5 C9.37351563 4.95101562 8.74703125 4.90203125 8.1015625 4.8515625 C7.28429687 4.77679688 6.46703125 4.70203125 5.625 4.625 C4.40683594 4.52058594 4.40683594 4.52058594 3.1640625 4.4140625 C1 4 1 4 -1 2 C-0.67 1.34 -0.34 0.68 0 0 Z " fill="#0A618F" transform="translate(125,55)"/>
<path d="M0 0 C2 2 2 2 2.125 4.625 C2.08375 5.40875 2.0425 6.1925 2 7 C0.68 7.33 -0.64 7.66 -2 8 C-1.125 1.125 -1.125 1.125 0 0 Z " fill="#149FC5" transform="translate(188,156)"/>
<path d="M0 0 C0.99 0.66 1.98 1.32 3 2 C-0.465 4.97 -0.465 4.97 -4 8 C-4.66 7.67 -5.32 7.34 -6 7 C-5.195625 6.401875 -4.39125 5.80375 -3.5625 5.1875 C-0.77672016 3.19052724 -0.77672016 3.19052724 0 0 Z " fill="#137289" transform="translate(181,169)"/>
<path d="M0 0 C2.31 0.33 4.62 0.66 7 1 C7.33 2.32 7.66 3.64 8 5 C4.75791433 4.64950425 3.38472296 4.43778819 1.1875 1.9375 C0.795625 1.298125 0.40375 0.65875 0 0 Z " fill="#247A9A" transform="translate(113,159)"/>
<path d="M0 0 C0.99 1.485 0.99 1.485 2 3 C2.66 2.34 3.32 1.68 4 1 C5 2 5 2 5.0625 4.5625 C5.041875 5.366875 5.02125 6.17125 5 7 C3.35 6.67 1.7 6.34 0 6 C0 4.02 0 2.04 0 0 Z " fill="#1588AF" transform="translate(184,144)"/>
<path d="M0 0 C1.57035335 2.49409061 2.0274945 3.70443416 1.75 6.6875 C1.5025 7.450625 1.255 8.21375 1 9 C0.01 9.495 0.01 9.495 -1 10 C-2.23076923 4.58461538 -2.23076923 4.58461538 -1.0625 1.625 C-0.5365625 0.820625 -0.5365625 0.820625 0 0 Z " fill="#3CB2E1" transform="translate(186,138)"/>
<path d="M0 0 C1.485 0.99 1.485 0.99 3 2 C3.66 2 4.32 2 5 2 C4.34 4.97 3.68 7.94 3 11 C2.67 11 2.34 11 2 11 C2 8.69 2 6.38 2 4 C1.34 4 0.68 4 0 4 C0 2.68 0 1.36 0 0 Z " fill="#099BC4" transform="translate(79,115)"/>
<path d="M0 0 C1.2065625 0.0309375 1.2065625 0.0309375 2.4375 0.0625 C2.7675 1.0525 3.0975 2.0425 3.4375 3.0625 C2.4475 4.0525 1.4575 5.0425 0.4375 6.0625 C-0.8825 4.4125 -2.2025 2.7625 -3.5625 1.0625 C-2.5625 0.0625 -2.5625 0.0625 0 0 Z " fill="#0CB8E5" transform="translate(106.5625,105.9375)"/>
<path d="M0 0 C5.41538462 -0.36923077 5.41538462 -0.36923077 8.375 1.5 C8.91125 1.995 9.4475 2.49 10 3 C3.375 3.125 3.375 3.125 0 2 C0 1.34 0 0.68 0 0 Z " fill="#07B9F2" transform="translate(59,50)"/>
<path d="M0 0 C0.99 0.33 1.98 0.66 3 1 C2.34 3.64 1.68 6.28 1 9 C-0.61949011 6.42786866 -1.04408751 5.32330841 -0.625 2.25 C-0.41875 1.5075 -0.2125 0.765 0 0 Z " fill="#31A8C4" transform="translate(87,92)"/>
<path d="M0 0 C0.66 0 1.32 0 2 0 C2 0.99 2 1.98 2 3 C-1 5 -1 5 -4 5 C-4 4.01 -4 3.02 -4 2 C-2.68 2 -1.36 2 0 2 C0 1.34 0 0.68 0 0 Z " fill="#189FCF" transform="translate(124,168)"/>
<path d="M0 0 C1.32 0.66 2.64 1.32 4 2 C2 4 2 4 -0.625 4.125 C-1.40875 4.08375 -2.1925 4.0425 -3 4 C-3 3.34 -3 2.68 -3 2 C-2.01 2 -1.02 2 0 2 C0 1.34 0 0.68 0 0 Z " fill="#189FCF" transform="translate(115,164)"/>
<path d="M0 0 C1.65 1.65 3.3 3.3 5 5 C4.01 5.33 3.02 5.66 2 6 C2 5.34 2 4.68 2 4 C1.34 4 0.68 4 0 4 C0 3.34 0 2.68 0 2 C-0.66 1.67 -1.32 1.34 -2 1 C-1.34 0.67 -0.68 0.34 0 0 Z " fill="#3C9BC5" transform="translate(94,146)"/>
<path d="M0 0 C1.485 0.99 1.485 0.99 3 2 C3 2.66 3 3.32 3 4 C3.66 4 4.32 4 5 4 C5 4.66 5 5.32 5 6 C3.68 6 2.36 6 1 6 C0.67 4.02 0.34 2.04 0 0 Z " fill="#1EB2DD" transform="translate(66,122)"/>
<path d="M0 0 C1.98 0.99 1.98 0.99 4 2 C3.34 3.98 2.68 5.96 2 8 C1.67 8 1.34 8 1 8 C0.67 5.36 0.34 2.72 0 0 Z " fill="#68CFF4" transform="translate(58,103)"/>
<path d="M0 0 C2 2 2 2 2.125 4.625 C2.08375 5.40875 2.0425 6.1925 2 7 C1.01 7 0.02 7 -1 7 C-0.67 4.69 -0.34 2.38 0 0 Z " fill="#0391C0" transform="translate(176,101)"/>
</svg>
